# Blender 4.4.3
# www.blender.org
mtllib rocket.mtl
o Cube
v 1.000000 1.000000 9.000000
v 1.000000 -1.000000 9.000000
v -1.000000 1.000000 9.000000
v -1.000000 -1.000000 9.000000
v -1.000000 1.000000 3.000000
v -1.000000 -1.000000 1.000000
v 1.000000 1.000000 1.000000
v -1.000000 1.000000 1.000000
v 1.000000 -1.000000 1.000000
v -2.000000 -2.000000 3.000000
v 2.000000 2.000000 3.000000
v -2.000000 2.000000 3.000000
v 2.000000 -2.000000 3.000000
v -1.000000 1.000000 -4.500000
v 1.000000 -1.000000 -4.500000
v -1.000000 -1.000000 -4.500000
v 1.000000 1.000000 -4.500000
v 1.215337 1.215337 -7.000000
v 1.859635 1.859635 -6.227994
v 1.215337 -1.215337 -7.000000
v 1.859635 -1.859635 -6.227994
v -1.215337 1.215337 -7.000000
v -1.859635 1.859635 -6.227994
v -1.859635 -1.859635 -6.227994
v -1.215337 -1.215337 -7.000000
v -0.600000 -0.500000 10.000000
v -0.600000 0.500000 10.000000
v 0.500000 0.500000 10.000000
v 0.500000 -0.500000 10.000000
vn -0.0000 0.9864 0.1644
vn -0.0000 -0.8944 0.4472
vn -0.0000 -0.9864 0.1644
vn 0.9864 -0.0000 0.1644
vn -0.0000 0.8953 0.4454
vn 1.0000 -0.0000 -0.0000
vn -0.0000 -1.0000 -0.0000
vn -0.8944 -0.0000 -0.4472
vn -0.0000 1.0000 -0.0000
vn -0.9864 -0.0000 0.1644
vn 0.8944 -0.0000 -0.4472
vn -0.0000 -0.8944 -0.4472
vn -0.0000 0.8944 -0.4472
vn -0.0000 -0.8953 0.4454
vn -0.8953 -0.0000 0.4454
vn -0.0000 -0.0000 -1.0000
vn -1.0000 -0.0000 -0.0000
vn -0.0000 -0.7678 -0.6407
vn 0.7678 -0.0000 -0.6407
vn -0.7678 -0.0000 -0.6407
vn -0.0000 0.7678 -0.6407
vn 0.8953 -0.0000 0.4454
vn -0.0000 -0.0000 1.0000
vn -0.0000 0.8944 0.4472
vn -0.9285 -0.0000 0.3714
vn 0.8944 -0.0000 0.4472
vt 0.009229 0.501896
vt 0.210026 0.501896
vt 0.159827 0.807055
vt 0.059428 0.807055
vt 0.379082 0.062256
vt 0.278684 0.062256
vt 0.303783 0.009229
vt 0.359002 0.009229
vt 0.429281 0.367414
vt 0.228485 0.367414
vt 0.666995 0.488815
vt 0.867791 0.488815
vt 0.817592 0.748635
vt 0.717194 0.748635
vt 0.016276 0.043470
vt 0.202980 0.043470
vt 0.159827 0.135070
vt 0.059428 0.135070
vt 0.717194 0.121311
vt 0.817592 0.121311
vt 0.817592 0.376887
vt 0.717194 0.376887
vt 0.379082 0.734240
vt 0.278684 0.734240
vt 0.278684 0.460468
vt 0.379082 0.460468
vt 0.447740 0.367047
vt 0.648536 0.367047
vt 0.598337 0.451754
vt 0.497939 0.451754
vt 0.159827 0.408842
vt 0.059428 0.408842
vt 0.497939 0.062850
vt 0.598337 0.062850
vt 0.422235 0.825840
vt 0.235531 0.825840
vt 0.497939 0.719126
vt 0.598337 0.719126
vt 0.641490 0.813891
vt 0.454786 0.813891
vt 0.699338 0.958427
vt 0.699338 0.836410
vt 0.821356 0.836410
vt 0.821356 0.958427
vt 0.389892 0.860081
vt 0.267874 0.860081
vt 0.860745 0.057339
vt 0.674041 0.057339
vt 0.706384 0.009229
vt 0.828402 0.009229
vt 0.666995 0.990771
vt 0.666995 0.804067
vt 0.048619 0.009229
vt 0.170636 0.009229
vt 0.497939 0.887569
vt 0.447740 0.887569
vt 0.447740 0.832350
vt 0.497939 0.832350
vt 0.139747 0.860081
vt 0.084528 0.860081
vt 0.523038 0.009229
vt 0.573237 0.009229
vt 0.792493 0.785608
vt 0.742294 0.785608
s 0
usemtl Material
f 11/1/1 12/2/1 3/3/1 1/4/1
f 4/5/2 2/6/2 29/7/2 26/8/2
f 10/9/3 13/10/3 2/6/3 4/5/3
f 13/11/4 11/12/4 1/13/4 2/14/4
f 19/15/5 23/16/5 14/17/5 17/18/5
f 15/19/6 17/20/6 7/21/6 9/22/6
f 16/23/7 15/24/7 9/25/7 6/26/7
f 10/27/8 12/28/8 8/29/8 6/30/8
f 17/18/9 14/17/9 8/31/9 7/32/9
f 4/33/10 3/34/10 12/28/10 10/27/10
f 9/22/11 7/21/11 11/12/11 13/11/11
f 6/26/12 9/25/12 13/10/12 10/9/12
f 7/32/13 8/31/13 12/2/13 11/1/13
f 24/35/14 21/36/14 15/24/14 16/23/14
f 16/37/15 14/38/15 23/39/15 24/40/15
f 25/41/16 22/42/16 18/43/16 20/44/16
f 6/30/17 8/29/17 14/38/17 16/37/17
f 21/36/18 24/35/18 25/45/18 20/46/18
f 19/47/19 21/48/19 20/49/19 18/50/19
f 22/42/20 25/41/20 24/51/20 23/52/20
f 23/16/21 19/15/21 18/53/21 22/54/21
f 21/48/22 19/47/22 17/20/22 15/19/22
f 29/55/23 28/56/23 27/57/23 26/58/23
f 1/4/24 3/3/24 27/59/24 28/60/24
f 3/34/25 4/33/25 26/61/25 27/62/25
f 2/14/26 1/13/26 28/63/26 29/64/26
l 3 5
