# This file is brought to you by Roblox Corporation
# Generated by Roblox Studio

mtllib retro.mtl

g Default1

v 2.11601 17 1.45746 
v -1.88399 17 -2.54254 
v -1.88399 17 1.45746 
v 2.11601 17 -2.54254 
v -1.88399 17 -1.54254 
v -2.88399 17 -2.54254 
v -2.88399 17 -1.54254 
v -1.88399 17 -2.54254 
v -1.88399 17 1.45746 
v -2.88399 17 0.457457 
v -2.88399 17 1.45746 
v -1.88399 17 0.457457 
v -1.88399 17 0.457457 
v -2.88399 17 -1.54254 
v -2.88399 17 0.457457 
v -1.88399 17 -1.54254 
v 5.11601 1.00001 0.457462 
v 1.11601 1.00001 -1.54254 
v 5.11601 1.00001 -1.54254 
v 1.11601 1.00001 0.457462 
v 1.11601 1.00001 -2.54254 
v 4.11601 1.00001 -1.54254 
v 4.11601 1.00001 -2.54254 
v 4.11601 1.00001 1.45746 
v 4.11601 1.00001 0.457462 
v 1.11601 1.00001 1.45746 
v -2.88399 1.00001 0.457462 
v -6.88399 1.00001 -1.54254 
v -2.88399 1.00001 -1.54254 
v -6.88399 1.00001 0.457462 
v -5.88399 1.00001 -1.54254 
v -5.88399 1.00001 -2.54254 
v -2.88399 1.00001 -2.54254 
v -2.88399 1.00001 1.45746 
v -5.88399 1.00001 0.457462 
v -5.88399 1.00001 1.45746 
v 2.11601 16 2.45746 
v -4.88399 16 -3.54254 
v -4.88399 16 2.45746 
v 2.11601 16 -3.54254 
v 3.11601 16 1.45746 
v 2.11601 16 -2.54254 
v 2.11601 16 1.45746 
v 3.11601 16 -2.54254 
v -4.88399 16 1.45746 
v -5.88399 16 -2.54254 
v -5.88399 16 1.45746 
v -4.88399 16 -2.54254 
v 3.11601 2.00001 -1.54254 
v 1.11601 2.00001 -2.54254 
v 3.11601 2.00001 -2.54254 
v 1.11601 2.00001 -1.54254 
v -1.88399 15 1.45746 
v -2.88399 15 -2.54254 
v -2.88399 15 1.45746 
v -1.88399 15 -2.54254 
v 0.116011 15 1.45746 
v -1.88399 15 -2.54254 
v -1.88399 15 1.45746 
v 0.116011 15 -2.54254 
v 2.11601 15 2.45746 
v 1.11601 15 -3.54254 
v 1.11601 15 2.45746 
v 2.11601 15 -3.54254 
v 5.11601 1.00001 0.457462 
v 5.11601 2.00001 -1.54254 
v 5.11601 2.00001 0.457462 
v 5.11601 1.00001 -1.54254 
v 5.11601 4.00001 0.457461 
v 5.11601 7.00001 -1.54254 
v 5.11601 7.00001 0.45746 
v 5.11601 4.00001 -1.54254 
v 5.11601 7.00001 0.45746 
v 5.11601 8.00001 -1.54254 
v 5.11601 8.00001 0.45746 
v 5.11601 7.00001 -1.54254 
v -6.88399 1.00001 0.457462 
v -6.88399 2.00001 -1.54254 
v -6.88399 1.00001 -1.54254 
v -6.88399 2.00001 0.457462 
v -6.88399 4.00001 0.457461 
v -6.88399 7.00001 -1.54254 
v -6.88399 4.00001 -1.54254 
v -6.88399 7.00001 0.45746 
v -6.88399 7.00001 0.45746 
v -6.88399 8.00001 -1.54254 
v -6.88399 7.00001 -1.54254 
v -6.88399 8.00001 0.45746 
v -6.88399 12 0.457459 
v -6.88399 13 -1.54254 
v -6.88399 12 -1.54254 
v -6.88399 13 0.457459 
v 3.11601 3.00001 1.45746 
v 0.116011 3.00001 -2.54254 
v 3.11601 3.00001 -2.54254 
v 0.116011 3.00001 1.45746 
v -1.88399 3.00001 1.45746 
v -4.88399 3.00001 -2.54254 
v -1.88399 3.00001 -2.54254 
v -4.88399 3.00001 1.45746 
v -2.88399 14 1.45746 
v -4.88399 14 -2.54254 
v -4.88399 14 1.45746 
v -2.88399 14 -2.54254 
v -4.88399 14 0.457458 
v -5.88399 14 -1.54254 
v -5.88399 14 0.457458 
v -4.88399 14 -1.54254 
v 1.11601 14 1.45746 
v 0.116011 14 -2.54254 
v 0.116011 14 1.45746 
v 1.11601 14 -2.54254 
v 3.11601 14 2.45746 
v 2.11601 14 -3.54254 
v 2.11601 14 2.45746 
v 3.11601 14 -3.54254 
v 4.11601 14 1.45746 
v 3.11601 14 -2.54254 
v 3.11601 14 1.45746 
v 4.11601 14 -2.54254 
v 4.11601 2.00001 0.457462 
v 4.11601 3.00001 -1.54254 
v 4.11601 3.00001 0.457461 
v 4.11601 2.00001 -1.54254 
v 4.11601 8.00001 0.45746 
v 4.11601 9.00001 -1.54254 
v 4.11601 9.00001 0.45746 
v 4.11601 8.00001 -1.54254 
v 4.11601 1.00001 -1.54254 
v 4.11601 2.00001 -2.54254 
v 4.11601 2.00001 -1.54254 
v 4.11601 1.00001 -2.54254 
v 4.11601 11 0.457459 
v 4.11601 12 -1.54254 
v 4.11601 12 0.457459 
v 4.11601 11 -1.54254 
v 4.11601 12 1.45746 
v 4.11601 14 -2.54254 
v 4.11601 14 1.45746 
v 4.11601 12 -2.54254 
v 4.11601 1.00001 1.45746 
v 4.11601 2.00001 0.457462 
v 4.11601 2.00001 1.45746 
v 4.11601 1.00001 0.457462 
v -5.88399 2.00001 0.457462 
v -5.88399 3.00001 -1.54254 
v -5.88399 2.00001 -1.54254 
v -5.88399 3.00001 0.457461 
v -5.88399 8.00001 0.45746 
v -5.88399 9.00001 -1.54254 
v -5.88399 8.00001 -1.54254 
v -5.88399 9.00001 0.45746 
v -5.88399 1.00001 -1.54254 
v -5.88399 2.00001 -2.54254 
v -5.88399 1.00001 -2.54254 
v -5.88399 2.00001 -1.54254 
v -5.88399 11 1.45746 
v -5.88399 12 -2.54254 
v -5.88399 11 -2.54254 
v -5.88399 12 1.45746 
v -5.88399 12 1.45746 
v -5.88399 13 -2.54254 
v -5.88399 12 -2.54254 
v -5.88399 13 1.45746 
v -5.88399 13 0.457459 
v -5.88399 14 -1.54254 
v -5.88399 13 -1.54254 
v -5.88399 14 0.457458 
v -5.88399 15 1.45746 
v -5.88399 16 -2.54254 
v -5.88399 15 -2.54254 
v -5.88399 16 1.45746 
v -5.88399 1.00001 1.45746 
v -5.88399 2.00001 0.457462 
v -5.88399 1.00001 0.457462 
v -5.88399 2.00001 1.45746 
v 3.11601 4.00001 1.45746 
v -4.88399 4.00001 -2.54254 
v 3.11601 4.00001 -2.54254 
v -4.88399 4.00001 1.45746 
v 5.11601 4.00001 0.457461 
v 3.11601 4.00001 -1.54254 
v 5.11601 4.00001 -1.54254 
v 3.11601 4.00001 0.457461 
v -4.88399 4.00001 0.457461 
v -6.88399 4.00001 -1.54254 
v -4.88399 4.00001 -1.54254 
v -6.88399 4.00001 0.457461 
v 0.116011 13 1.45746 
v -2.88399 13 -2.54254 
v -2.88399 13 1.45746 
v 0.116011 13 -2.54254 
v -2.88399 13 2.45746 
v -3.88399 13 -3.54254 
v -3.88399 13 2.45746 
v -2.88399 13 -3.54254 
v -3.88399 13 1.45746 
v -5.88399 13 -2.54254 
v -5.88399 13 1.45746 
v -3.88399 13 -2.54254 
v -5.88399 13 0.457459 
v -6.88399 13 -1.54254 
v -6.88399 13 0.457459 
v -5.88399 13 -1.54254 
v 1.11601 13 2.45746 
v 0.116011 13 -3.54254 
v 0.116011 13 2.45746 
v 1.11601 13 -3.54254 
v 3.11601 3.00001 1.45746 
v 3.11601 4.00001 -2.54254 
v 3.11601 4.00001 1.45746 
v 3.11601 3.00001 -2.54254 
v 3.11601 4.00001 1.45746 
v 3.11601 5.00001 -2.54254 
v 3.11601 5.00001 1.45746 
v 3.11601 4.00001 -2.54254 
v 3.11601 5.00001 0.457461 
v 3.11601 6.00001 -2.54254 
v 3.11601 6.00001 0.45746 
v 3.11601 5.00001 -2.54254 
v 3.11601 6.00001 0.45746 
v 3.11601 7.00001 -1.54254 
v 3.11601 7.00001 0.45746 
v 3.11601 6.00001 -1.54254 
v 3.11601 9.00001 0.45746 
v 3.11601 10 -1.54254 
v 3.11601 10 0.457459 
v 3.11601 9.00001 -1.54254 
v 3.11601 12 2.45746 
v 3.11601 14 -3.54254 
v 3.11601 14 2.45746 
v 3.11601 12 -3.54254 
v 3.11601 14 1.45746 
v 3.11601 15 -2.54254 
v 3.11601 15 1.45746 
v 3.11601 14 -2.54254 
v 3.11601 11 1.45746 
v 3.11601 12 -2.54254 
v 3.11601 12 1.45746 
v 3.11601 11 -2.54254 
v 3.11601 15 1.45746 
v 3.11601 16 -2.54254 
v 3.11601 16 1.45746 
v 3.11601 15 -2.54254 
v 3.11601 2.00001 1.45746 
v 3.11601 3.00001 0.457461 
v 3.11601 3.00001 1.45746 
v 3.11601 2.00001 0.457462 
v 3.11601 2.00001 -1.54254 
v 3.11601 3.00001 -2.54254 
v 3.11601 3.00001 -1.54254 
v 3.11601 2.00001 -2.54254 
v -4.88399 3.00001 1.45746 
v -4.88399 4.00001 -2.54254 
v -4.88399 3.00001 -2.54254 
v -4.88399 4.00001 1.45746 
v -4.88399 4.00001 1.45746 
v -4.88399 5.00001 -2.54254 
v -4.88399 4.00001 -2.54254 
v -4.88399 5.00001 1.45746 
v -4.88399 5.00001 0.457461 
v -4.88399 6.00001 -2.54254 
v -4.88399 5.00001 -2.54254 
v -4.88399 6.00001 0.45746 
v -4.88399 10 0.457459 
v -4.88399 11 -1.54254 
v -4.88399 10 -1.54254 
v -4.88399 11 0.457459 
v -4.88399 11 2.45746 
v -4.88399 12 -3.54254 
v -4.88399 11 -3.54254 
v -4.88399 12 2.45746 
v -4.88399 13 1.45746 
v -4.88399 14 -2.54254 
v -4.88399 13 -2.54254 
v -4.88399 14 1.45746 
v -4.88399 15 2.45746 
v -4.88399 16 -3.54254 
v -4.88399 15 -3.54254 
v -4.88399 16 2.45746 
v -4.88399 2.00001 -1.54254 
v -4.88399 3.00001 -2.54254 
v -4.88399 2.00001 -2.54254 
v -4.88399 3.00001 -1.54254 
v -4.88399 2.00001 1.45746 
v -4.88399 3.00001 0.457461 
v -4.88399 2.00001 0.457462 
v -4.88399 3.00001 1.45746 
v -1.88399 12 2.45746 
v -4.88399 12 -3.54254 
v -4.88399 12 2.45746 
v -1.88399 12 -3.54254 
v 2.11601 5.00001 1.45746 
v 2.11601 6.00001 -2.54254 
v 2.11601 6.00001 1.45746 
v 2.11601 5.00001 -2.54254 
v 2.11601 6.00001 1.45746 
v 2.11601 7.00001 -2.54254 
v 2.11601 7.00001 1.45746 
v 2.11601 6.00001 -2.54254 
v 2.11601 10 0.457459 
v 2.11601 11 -1.54254 
v 2.11601 11 0.457459 
v 2.11601 10 -1.54254 
v 2.11601 11 1.45746 
v 2.11601 12 -2.54254 
v 2.11601 12 1.45746 
v 2.11601 11 -2.54254 
v 2.11601 12 2.45746 
v 2.11601 15 -3.54254 
v 2.11601 15 2.45746 
v 2.11601 12 -3.54254 
v 2.11601 15 2.45746 
v 2.11601 16 -3.54254 
v 2.11601 16 2.45746 
v 2.11601 15 -3.54254 
v 2.11601 16 1.45746 
v 2.11601 17 -2.54254 
v 2.11601 17 1.45746 
v 2.11601 16 -2.54254 
v -1.88399 11 2.45746 
v -4.88399 12 2.45746 
v -4.88399 11 2.45746 
v -1.88399 12 2.45746 
v -2.88399 12 2.45746 
v -3.88399 13 2.45746 
v -3.88399 12 2.45746 
v -2.88399 13 2.45746 
v 3.11601 12 2.45746 
v 2.11601 14 2.45746 
v 2.11601 12 2.45746 
v 3.11601 14 2.45746 
v 2.11601 12 2.45746 
v 1.11601 15 2.45746 
v 1.11601 12 2.45746 
v 2.11601 15 2.45746 
v 1.11601 12 2.45746 
v 0.116011 13 2.45746 
v 0.116011 12 2.45746 
v 1.11601 13 2.45746 
v 1.11601 14 2.45746 
v 0.116011 15 2.45746 
v 0.116011 14 2.45746 
v 1.11601 15 2.45746 
v 2.11601 15 2.45746 
v -4.88399 16 2.45746 
v -4.88399 15 2.45746 
v 2.11601 16 2.45746 
v -1.88399 11 -3.54254 
v -4.88399 12 -3.54254 
v -1.88399 12 -3.54254 
v -4.88399 11 -3.54254 
v -2.88399 12 -3.54254 
v -3.88399 13 -3.54254 
v -2.88399 13 -3.54254 
v -3.88399 12 -3.54254 
v 3.11601 12 -3.54254 
v 2.11601 14 -3.54254 
v 3.11601 14 -3.54254 
v 2.11601 12 -3.54254 
v 2.11601 12 -3.54254 
v 1.11601 15 -3.54254 
v 2.11601 15 -3.54254 
v 1.11601 12 -3.54254 
v 1.11601 12 -3.54254 
v 0.116011 13 -3.54254 
v 1.11601 13 -3.54254 
v 0.116011 12 -3.54254 
v 1.11601 14 -3.54254 
v 0.116011 15 -3.54254 
v 1.11601 15 -3.54254 
v 0.116011 14 -3.54254 
v 2.11601 15 -3.54254 
v -4.88399 16 -3.54254 
v 2.11601 16 -3.54254 
v -4.88399 15 -3.54254 
v -3.88399 5.00001 1.45746 
v -3.88399 6.00001 -2.54254 
v -3.88399 5.00001 -2.54254 
v -3.88399 6.00001 1.45746 
v -3.88399 6.00001 1.45746 
v -3.88399 7.00001 -2.54254 
v -3.88399 6.00001 -2.54254 
v -3.88399 7.00001 1.45746 
v -3.88399 10 1.45746 
v -3.88399 11 -2.54254 
v -3.88399 10 -2.54254 
v -3.88399 11 1.45746 
v -3.88399 12 2.45746 
v -3.88399 13 -3.54254 
v -3.88399 12 -3.54254 
v -3.88399 13 2.45746 
v -3.88399 14 1.45746 
v -3.88399 15 -2.54254 
v -3.88399 14 -2.54254 
v -3.88399 15 1.45746 
v 1.11601 11 1.45746 
v -3.88399 11 -2.54254 
v -3.88399 11 1.45746 
v 1.11601 11 -2.54254 
v 1.11601 6.00001 0.45746 
v 1.11601 7.00001 -2.54254 
v 1.11601 7.00001 0.45746 
v 1.11601 6.00001 -2.54254 
v 1.11601 7.00001 1.45746 
v 1.11601 8.00001 -2.54254 
v 1.11601 8.00001 1.45746 
v 1.11601 8.00001 1.45746 
v 1.11601 10 -2.54254 
v 1.11601 10 1.45746 
v 1.11601 8.00001 -2.54254 
v 1.11601 10 1.45746 
v 1.11601 11 -2.54254 
v 1.11601 11 1.45746 
v 1.11601 10 -2.54254 
v 1.11601 13 1.45746 
v 1.11601 14 -2.54254 
v 1.11601 14 1.45746 
v 1.11601 13 -2.54254 
v 1.11601 12 2.45746 
v 1.11601 13 -3.54254 
v 1.11601 13 2.45746 
v 1.11601 12 -3.54254 
v 1.11601 7.00001 -2.54254 
v 1.11601 8.00001 -2.54254 
v 1.11601 7.00001 1.45746 
v 3.11601 3.00001 1.45746 
v 0.116011 4.00001 1.45746 
v 0.116011 3.00001 1.45746 
v 3.11601 4.00001 1.45746 
v -1.88399 3.00001 1.45746 
v -4.88399 4.00001 1.45746 
v -4.88399 3.00001 1.45746 
v -1.88399 4.00001 1.45746 
v 3.11601 4.00001 1.45746 
v -4.88399 5.00001 1.45746 
v -4.88399 4.00001 1.45746 
v 3.11601 5.00001 1.45746 
v 2.11601 5.00001 1.45746 
v -3.88399 6.00001 1.45746 
v -3.88399 5.00001 1.45746 
v 2.11601 6.00001 1.45746 
v 2.11601 6.00001 1.45746 
v 1.11601 7.00001 1.45746 
v 1.11601 6.00001 1.45746 
v 2.11601 7.00001 1.45746 
v -2.88399 6.00001 1.45746 
v -3.88399 7.00001 1.45746 
v -3.88399 6.00001 1.45746 
v -2.88399 7.00001 1.45746 
v 1.11601 7.00001 1.45746 
v -2.88399 8.00001 1.45746 
v -2.88399 7.00001 1.45746 
v 1.11601 8.00001 1.45746 
v -1.88399 8.00001 1.45746 
v -2.88399 9.00001 1.45746 
v -2.88399 8.00001 1.45746 
v -1.88399 9.00001 1.45746 
v 1.11601 8.00001 1.45746 
v 0.116011 10 1.45746 
v 0.116011 8.00001 1.45746 
v 1.11601 10 1.45746 
v 1.11601 6.00001 1.45746 
v -2.88399 7.00001 1.45746 
v -2.88399 6.00001 1.45746 
v 1.11601 7.00001 1.45746 
v 1.11601 10 1.45746 
v -3.88399 11 1.45746 
v -3.88399 10 1.45746 
v 1.11601 11 1.45746 
v 2.11601 11 1.45746 
v -1.88399 12 1.45746 
v -1.88399 11 1.45746 
v 2.11601 12 1.45746 
v 0.116011 12 1.45746 
v -2.88399 13 1.45746 
v -2.88399 12 1.45746 
v 0.116011 13 1.45746 
v -4.88399 11 1.45746 
v -5.88399 12 1.45746 
v -5.88399 11 1.45746 
v -4.88399 12 1.45746 
v -3.88399 12 1.45746 
v -5.88399 13 1.45746 
v -5.88399 12 1.45746 
v -3.88399 13 1.45746 
v -2.88399 13 1.45746 
v -4.88399 14 1.45746 
v -4.88399 13 1.45746 
v -2.88399 14 1.45746 
v -2.88399 14 1.45746 
v -3.88399 15 1.45746 
v -3.88399 14 1.45746 
v -2.88399 15 1.45746 
v -1.88399 13 1.45746 
v -2.88399 15 1.45746 
v -2.88399 13 1.45746 
v -1.88399 15 1.45746 
v 0.116011 13 1.45746 
v -1.88399 15 1.45746 
v -1.88399 13 1.45746 
v 0.116011 15 1.45746 
v 1.11601 13 1.45746 
v 0.116011 14 1.45746 
v 0.116011 13 1.45746 
v 1.11601 14 1.45746 
v 3.11601 14 1.45746 
v 2.11601 15 1.45746 
v 2.11601 14 1.45746 
v 3.11601 15 1.45746 
v 3.11601 11 1.45746 
v 2.11601 12 1.45746 
v 2.11601 11 1.45746 
v 3.11601 12 1.45746 
v 4.11601 12 1.45746 
v 3.11601 14 1.45746 
v 3.11601 12 1.45746 
v 4.11601 14 1.45746 
v 3.11601 15 1.45746 
v 2.11601 16 1.45746 
v 2.11601 15 1.45746 
v 3.11601 16 1.45746 
v -4.88399 15 1.45746 
v -5.88399 16 1.45746 
v -5.88399 15 1.45746 
v -4.88399 16 1.45746 
v 2.11601 16 1.45746 
v -1.88399 17 1.45746 
v -1.88399 16 1.45746 
v 2.11601 17 1.45746 
v 4.11601 1.00001 1.45746 
v 1.11601 2.00001 1.45746 
v 1.11601 1.00001 1.45746 
v 4.11601 2.00001 1.45746 
v -2.88399 1.00001 1.45746 
v -5.88399 2.00001 1.45746 
v -5.88399 1.00001 1.45746 
v -2.88399 2.00001 1.45746 
v -2.88399 2.00001 1.45746 
v -4.88399 3.00001 1.45746 
v -4.88399 2.00001 1.45746 
v -2.88399 3.00001 1.45746 
v 3.11601 2.00001 1.45746 
v 1.11601 3.00001 1.45746 
v 1.11601 2.00001 1.45746 
v 3.11601 3.00001 1.45746 
v -1.88399 16 1.45746 
v -2.88399 17 1.45746 
v -2.88399 16 1.45746 
v -1.88399 17 1.45746 
v 3.11601 3.00001 -2.54254 
v 0.116011 4.00001 -2.54254 
v 3.11601 4.00001 -2.54254 
v 0.116011 3.00001 -2.54254 
v -1.88399 3.00001 -2.54254 
v -4.88399 4.00001 -2.54254 
v -1.88399 4.00001 -2.54254 
v -4.88399 3.00001 -2.54254 
v 3.11601 4.00001 -2.54254 
v -4.88399 5.00001 -2.54254 
v 3.11601 5.00001 -2.54254 
v -4.88399 4.00001 -2.54254 
v 2.11601 5.00001 -2.54254 
v -3.88399 6.00001 -2.54254 
v 2.11601 6.00001 -2.54254 
v -3.88399 5.00001 -2.54254 
v 0.116011 6.00001 -2.54254 
v -1.88399 7.00001 -2.54254 
v 0.116011 7.00001 -2.54254 
v -1.88399 6.00001 -2.54254 
v 2.11601 6.00001 -2.54254 
v 1.11601 7.00001 -2.54254 
v 2.11601 7.00001 -2.54254 
v 1.11601 6.00001 -2.54254 
v 3.11601 5.00001 -2.54254 
v 2.11601 6.00001 -2.54254 
v 3.11601 6.00001 -2.54254 
v 2.11601 5.00001 -2.54254 
v -3.88399 5.00001 -2.54254 
v -4.88399 6.00001 -2.54254 
v -3.88399 6.00001 -2.54254 
v -4.88399 5.00001 -2.54254 
v -2.88399 6.00001 -2.54254 
v -3.88399 7.00001 -2.54254 
v -2.88399 7.00001 -2.54254 
v -3.88399 6.00001 -2.54254 
v 1.11601 6.00001 -2.54254 
v 0.116011 7.00001 -2.54254 
v 1.11601 7.00001 -2.54254 
v 0.116011 6.00001 -2.54254 
v -1.88399 6.00001 -2.54254 
v -2.88399 7.00001 -2.54254 
v -1.88399 7.00001 -2.54254 
v -2.88399 6.00001 -2.54254 
v 1.11601 7.00001 -2.54254 
v -2.88399 8.00001 -2.54254 
v 1.11601 8.00001 -2.54254 
v -2.88399 7.00001 -2.54254 
v -1.88399 8.00001 -2.54254 
v -2.88399 9.00001 -2.54254 
v -1.88399 9.00001 -2.54254 
v -2.88399 8.00001 -2.54254 
v 1.11601 8.00001 -2.54254 
v 0.116011 10 -2.54254 
v 1.11601 10 -2.54254 
v 0.116011 8.00001 -2.54254 
v 4.11601 1.00001 -2.54254 
v 1.11601 2.00001 -2.54254 
v 4.11601 2.00001 -2.54254 
v 1.11601 1.00001 -2.54254 
v -2.88399 1.00001 -2.54254 
v -5.88399 2.00001 -2.54254 
v -2.88399 2.00001 -2.54254 
v -5.88399 1.00001 -2.54254 
v 1.11601 10 -2.54254 
v -3.88399 11 -2.54254 
v 1.11601 11 -2.54254 
v -3.88399 10 -2.54254 
v 2.11601 11 -2.54254 
v -1.88399 12 -2.54254 
v 2.11601 12 -2.54254 
v -1.88399 11 -2.54254 
v 0.116011 12 -2.54254 
v -2.88399 13 -2.54254 
v 0.116011 13 -2.54254 
v -2.88399 12 -2.54254 
v -4.88399 11 -2.54254 
v -5.88399 12 -2.54254 
v -4.88399 12 -2.54254 
v -5.88399 11 -2.54254 
v -3.88399 12 -2.54254 
v -5.88399 13 -2.54254 
v -3.88399 13 -2.54254 
v -5.88399 12 -2.54254 
v -2.88399 13 -2.54254 
v -4.88399 14 -2.54254 
v -2.88399 14 -2.54254 
v -4.88399 13 -2.54254 
v -2.88399 14 -2.54254 
v -3.88399 15 -2.54254 
v -2.88399 15 -2.54254 
v -3.88399 14 -2.54254 
v -1.88399 13 -2.54254 
v -2.88399 15 -2.54254 
v -1.88399 15 -2.54254 
v -2.88399 13 -2.54254 
v 0.116011 13 -2.54254 
v -1.88399 15 -2.54254 
v 0.116011 15 -2.54254 
v -1.88399 13 -2.54254 
v 1.11601 13 -2.54254 
v 0.116011 14 -2.54254 
v 1.11601 14 -2.54254 
v 0.116011 13 -2.54254 
v 3.11601 14 -2.54254 
v 2.11601 15 -2.54254 
v 3.11601 15 -2.54254 
v 2.11601 14 -2.54254 
v 3.11601 11 -2.54254 
v 2.11601 12 -2.54254 
v 3.11601 12 -2.54254 
v 2.11601 11 -2.54254 
v 4.11601 12 -2.54254 
v 3.11601 14 -2.54254 
v 4.11601 14 -2.54254 
v 3.11601 12 -2.54254 
v 3.11601 15 -2.54254 
v 2.11601 16 -2.54254 
v 3.11601 16 -2.54254 
v 2.11601 15 -2.54254 
v -4.88399 15 -2.54254 
v -5.88399 16 -2.54254 
v -4.88399 16 -2.54254 
v -5.88399 15 -2.54254 
v 2.11601 16 -2.54254 
v -1.88399 17 -2.54254 
v 2.11601 17 -2.54254 
v -1.88399 16 -2.54254 
v -2.88399 2.00001 -2.54254 
v -4.88399 3.00001 -2.54254 
v -2.88399 3.00001 -2.54254 
v -4.88399 2.00001 -2.54254 
v 3.11601 2.00001 -2.54254 
v 1.11601 3.00001 -2.54254 
v 3.11601 3.00001 -2.54254 
v 1.11601 2.00001 -2.54254 
v -1.88399 16 -2.54254 
v -2.88399 17 -2.54254 
v -1.88399 17 -2.54254 
v -2.88399 16 -2.54254 
v -2.88399 7.00001 1.45746 
v -2.88399 8.00001 -2.54254 
v -2.88399 7.00001 -2.54254 
v -2.88399 8.00001 1.45746 
v -2.88399 9.00001 -2.54254 
v -2.88399 8.00001 -2.54254 
v -2.88399 9.00001 1.45746 
v -2.88399 9.00001 0.45746 
v -2.88399 10 -1.54254 
v -2.88399 9.00001 -1.54254 
v -2.88399 10 0.457459 
v -2.88399 16 -1.54254 
v -2.88399 17 -2.54254 
v -2.88399 16 -2.54254 
v -2.88399 17 -1.54254 
v -2.88399 16 1.45746 
v -2.88399 17 0.457457 
v -2.88399 16 0.457458 
v -2.88399 17 1.45746 
v -2.88399 16 0.457458 
v -2.88399 17 -1.54254 
v -2.88399 16 -1.54254 
v -2.88399 17 0.457457 
v -2.88399 8.00001 1.45746 
v -2.88399 8.00001 -2.54254 
v -2.88399 7.00001 1.45746 
v 3.11601 10 0.457459 
v 1.11601 10 -1.54254 
v 1.11601 10 0.457459 
v 3.11601 10 -1.54254 
v 0.116011 6.00001 0.45746 
v 0.116011 7.00001 -2.54254 
v 0.116011 7.00001 0.45746 
v 0.116011 6.00001 -2.54254 
v 5.11601 1.00001 0.457462 
v 1.11601 2.00001 0.457462 
v 1.11601 1.00001 0.457462 
v 5.11601 2.00001 0.457462 
v 4.11601 2.00001 0.457462 
v 1.11601 3.00001 0.457461 
v 1.11601 2.00001 0.457462 
v 4.11601 3.00001 0.457461 
v -2.88399 2.00001 0.457462 
v -5.88399 3.00001 0.457461 
v -5.88399 2.00001 0.457462 
v -2.88399 3.00001 0.457461 
v -2.88399 1.00001 0.457462 
v -6.88399 2.00001 0.457462 
v -6.88399 1.00001 0.457462 
v -2.88399 2.00001 0.457462 
v 3.11601 5.00001 0.457461 
v 2.11601 6.00001 0.45746 
v 2.11601 5.00001 0.457461 
v 3.11601 6.00001 0.45746 
v -3.88399 5.00001 0.457461 
v -4.88399 6.00001 0.45746 
v -4.88399 5.00001 0.457461 
v -3.88399 6.00001 0.45746 
v 5.11601 4.00001 0.457461 
v 3.11601 7.00001 0.45746 
v 3.11601 4.00001 0.457461 
v 5.11601 7.00001 0.45746 
v -4.88399 4.00001 0.457461 
v -6.88399 7.00001 0.45746 
v -6.88399 4.00001 0.457461 
v -4.88399 7.00001 0.45746 
v 3.11601 6.00001 0.45746 
v 2.11601 7.00001 0.45746 
v 2.11601 6.00001 0.45746 
v 3.11601 7.00001 0.45746 
v -3.88399 6.00001 0.45746 
v -4.88399 7.00001 0.45746 
v -4.88399 6.00001 0.45746 
v -3.88399 7.00001 0.45746 
v 5.11601 7.00001 0.45746 
v 1.11601 8.00001 0.45746 
v 1.11601 7.00001 0.45746 
v 5.11601 8.00001 0.45746 
v 4.11601 8.00001 0.45746 
v 1.11601 9.00001 0.45746 
v 1.11601 8.00001 0.45746 
v 4.11601 9.00001 0.45746 
v 3.11601 9.00001 0.45746 
v 1.11601 10 0.457459 
v 1.11601 9.00001 0.45746 
v 3.11601 10 0.457459 
v 0.116011 8.00001 0.45746 
v -1.88399 10 0.457459 
v -1.88399 8.00001 0.45746 
v 0.116011 10 0.457459 
v -2.88399 7.00001 0.45746 
v -6.88399 8.00001 0.45746 
v -6.88399 7.00001 0.45746 
v -2.88399 8.00001 0.45746 
v -2.88399 8.00001 0.45746 
v -5.88399 9.00001 0.45746 
v -5.88399 8.00001 0.45746 
v -2.88399 9.00001 0.45746 
v -1.88399 9.00001 0.45746 
v -2.88399 10 0.457459 
v -2.88399 9.00001 0.45746 
v -1.88399 10 0.457459 
v -3.88399 10 0.457459 
v -4.88399 11 0.457459 
v -4.88399 10 0.457459 
v -3.88399 11 0.457459 
v 2.11601 10 0.457459 
v 1.11601 11 0.457459 
v 1.11601 10 0.457459 
v 2.11601 11 0.457459 
v -5.88399 12 0.457459 
v -6.88399 13 0.457459 
v -6.88399 12 0.457459 
v -5.88399 13 0.457459 
v -4.88399 13 0.457459 
v -5.88399 14 0.457458 
v -5.88399 13 0.457459 
v -4.88399 14 0.457458 
v 4.11601 11 0.457459 
v 3.11601 12 0.457459 
v 3.11601 11 0.457459 
v 4.11601 12 0.457459 
v 5.11601 1.00001 -1.54254 
v 1.11601 2.00001 -1.54254 
v 5.11601 2.00001 -1.54254 
v 1.11601 1.00001 -1.54254 
v 4.11601 2.00001 -1.54254 
v 1.11601 3.00001 -1.54254 
v 4.11601 3.00001 -1.54254 
v 1.11601 2.00001 -1.54254 
v -2.88399 2.00001 -1.54254 
v -5.88399 3.00001 -1.54254 
v -2.88399 3.00001 -1.54254 
v -5.88399 2.00001 -1.54254 
v -2.88399 1.00001 -1.54254 
v -6.88399 2.00001 -1.54254 
v -2.88399 2.00001 -1.54254 
v -6.88399 1.00001 -1.54254 
v 5.11601 4.00001 -1.54254 
v 3.11601 7.00001 -1.54254 
v 5.11601 7.00001 -1.54254 
v 3.11601 4.00001 -1.54254 
v -4.88399 4.00001 -1.54254 
v -6.88399 7.00001 -1.54254 
v -4.88399 7.00001 -1.54254 
v -6.88399 4.00001 -1.54254 
v 3.11601 6.00001 -1.54254 
v 2.11601 7.00001 -1.54254 
v 3.11601 7.00001 -1.54254 
v 2.11601 6.00001 -1.54254 
v -3.88399 6.00001 -1.54254 
v -4.88399 7.00001 -1.54254 
v -3.88399 7.00001 -1.54254 
v -4.88399 6.00001 -1.54254 
v 5.11601 7.00001 -1.54254 
v 1.11601 8.00001 -1.54254 
v 5.11601 8.00001 -1.54254 
v 1.11601 7.00001 -1.54254 
v 4.11601 8.00001 -1.54254 
v 1.11601 9.00001 -1.54254 
v 4.11601 9.00001 -1.54254 
v 1.11601 8.00001 -1.54254 
v 3.11601 9.00001 -1.54254 
v 1.11601 10 -1.54254 
v 3.11601 10 -1.54254 
v 1.11601 9.00001 -1.54254 
v 0.116011 8.00001 -1.54254 
v -1.88399 10 -1.54254 
v 0.116011 10 -1.54254 
v -1.88399 8.00001 -1.54254 
v -2.88399 7.00001 -1.54254 
v -6.88399 8.00001 -1.54254 
v -2.88399 8.00001 -1.54254 
v -6.88399 7.00001 -1.54254 
v -2.88399 8.00001 -1.54254 
v -5.88399 9.00001 -1.54254 
v -2.88399 9.00001 -1.54254 
v -5.88399 8.00001 -1.54254 
v -1.88399 9.00001 -1.54254 
v -2.88399 10 -1.54254 
v -1.88399 10 -1.54254 
v -2.88399 9.00001 -1.54254 
v -3.88399 10 -1.54254 
v -4.88399 11 -1.54254 
v -3.88399 11 -1.54254 
v -4.88399 10 -1.54254 
v 2.11601 10 -1.54254 
v 1.11601 11 -1.54254 
v 2.11601 11 -1.54254 
v 1.11601 10 -1.54254 
v -5.88399 12 -1.54254 
v -6.88399 13 -1.54254 
v -5.88399 13 -1.54254 
v -6.88399 12 -1.54254 
v -4.88399 13 -1.54254 
v -5.88399 14 -1.54254 
v -4.88399 14 -1.54254 
v -5.88399 13 -1.54254 
v 4.11601 11 -1.54254 
v 3.11601 12 -1.54254 
v 4.11601 12 -1.54254 
v 3.11601 11 -1.54254 
v -1.88399 16 -1.54254 
v -2.88399 17 -1.54254 
v -1.88399 17 -1.54254 
v -2.88399 16 -1.54254 
v -1.88399 9.00001 1.45746 
v -2.88399 9.00001 -2.54254 
v -2.88399 9.00001 1.45746 
v -1.88399 9.00001 -2.54254 
v 4.11601 9.00001 0.45746 
v 1.11601 9.00001 -1.54254 
v 1.11601 9.00001 0.45746 
v 4.11601 9.00001 -1.54254 
v -2.88399 9.00001 0.45746 
v -5.88399 9.00001 -1.54254 
v -5.88399 9.00001 0.45746 
v -2.88399 9.00001 -1.54254 
v 1.11601 8.00001 1.45746 
v -2.88399 8.00001 -2.54254 
v -2.88399 8.00001 1.45746 
v 1.11601 8.00001 -2.54254 
v 5.11601 8.00001 0.45746 
v 1.11601 8.00001 -1.54254 
v 1.11601 8.00001 0.45746 
v 5.11601 8.00001 -1.54254 
v -2.88399 8.00001 0.45746 
v -6.88399 8.00001 -1.54254 
v -6.88399 8.00001 0.45746 
v -2.88399 8.00001 -1.54254 
v -1.88399 3.00001 1.45746 
v -1.88399 4.00001 -2.54254 
v -1.88399 4.00001 1.45746 
v -1.88399 3.00001 -2.54254 
v -1.88399 6.00001 0.45746 
v -1.88399 7.00001 -2.54254 
v -1.88399 7.00001 0.45746 
v -1.88399 6.00001 -2.54254 
v -1.88399 8.00001 1.45746 
v -1.88399 9.00001 -2.54254 
v -1.88399 9.00001 1.45746 
v -1.88399 8.00001 -2.54254 
v -1.88399 9.00001 0.45746 
v -1.88399 10 -1.54254 
v -1.88399 10 0.457459 
v -1.88399 9.00001 -1.54254 
v -1.88399 11 2.45746 
v -1.88399 12 -3.54254 
v -1.88399 12 2.45746 
v -1.88399 11 -3.54254 
v -1.88399 13 1.45746 
v -1.88399 15 -2.54254 
v -1.88399 15 1.45746 
v -1.88399 13 -2.54254 
v 4.11601 1.00001 -1.54254 
v 1.11601 2.00001 -1.54254 
v 1.11601 1.00001 -1.54254 
v 4.11601 2.00001 -1.54254 
v -2.88399 1.00001 -1.54254 
v -5.88399 2.00001 -1.54254 
v -5.88399 1.00001 -1.54254 
v -2.88399 2.00001 -1.54254 
v 3.11601 2.00001 0.457462 
v 1.11601 3.00001 0.457461 
v 3.11601 3.00001 0.457461 
v 1.11601 2.00001 0.457462 
v 0.116011 3.00001 1.45746 
v 0.116011 4.00001 -2.54254 
v 0.116011 3.00001 -2.54254 
v 0.116011 4.00001 1.45746 
v 0.116011 8.00001 1.45746 
v 0.116011 10 -2.54254 
v 0.116011 8.00001 -2.54254 
v 0.116011 10 1.45746 
v 0.116011 12 2.45746 
v 0.116011 13 -3.54254 
v 0.116011 12 -3.54254 
v 0.116011 13 2.45746 
v 0.116011 14 2.45746 
v 0.116011 15 -3.54254 
v 0.116011 14 -3.54254 
v 0.116011 15 2.45746 
v 1.11601 10 1.45746 
v -3.88399 10 -2.54254 
v 1.11601 10 -2.54254 
v -3.88399 10 1.45746 
v -3.88399 10 0.457459 
v -4.88399 10 -1.54254 
v -3.88399 10 -1.54254 
v -4.88399 10 0.457459 
v 2.11601 7.00001 1.45746 
v 1.11601 7.00001 -2.54254 
v 1.11601 7.00001 1.45746 
v 2.11601 7.00001 -2.54254 
v -2.88399 7.00001 1.45746 
v -3.88399 7.00001 -2.54254 
v -3.88399 7.00001 1.45746 
v -2.88399 7.00001 -2.54254 
v 5.11601 7.00001 0.45746 
v 3.11601 7.00001 -1.54254 
v 3.11601 7.00001 0.45746 
v 5.11601 7.00001 -1.54254 
v -2.88399 2.00001 0.457462 
v -2.88399 3.00001 -1.54254 
v -2.88399 3.00001 0.457461 
v -2.88399 2.00001 -1.54254 
v -2.88399 3.00001 -2.54254 
v -2.88399 2.00001 -2.54254 
v -2.88399 1.00001 0.457462 
v -2.88399 2.00001 -1.54254 
v -2.88399 2.00001 0.457462 
v -2.88399 1.00001 -1.54254 
v -2.88399 2.00001 -2.54254 
v -2.88399 1.00001 -2.54254 
v -2.88399 6.00001 1.45746 
v -2.88399 7.00001 -2.54254 
v -2.88399 7.00001 1.45746 
v -2.88399 6.00001 -2.54254 
v -2.88399 7.00001 0.45746 
v -2.88399 8.00001 -1.54254 
v -2.88399 8.00001 0.45746 
v -2.88399 7.00001 -1.54254 
v -2.88399 8.00001 0.45746 
v -2.88399 9.00001 -1.54254 
v -2.88399 9.00001 0.45746 
v -2.88399 8.00001 -1.54254 
v -2.88399 12 2.45746 
v -2.88399 13 -3.54254 
v -2.88399 13 2.45746 
v -2.88399 12 -3.54254 
v -2.88399 13 1.45746 
v -2.88399 14 -2.54254 
v -2.88399 14 1.45746 
v -2.88399 13 -2.54254 
v -2.88399 14 1.45746 
v -2.88399 15 -2.54254 
v -2.88399 15 1.45746 
v -2.88399 14 -2.54254 
v -2.88399 1.00001 1.45746 
v -2.88399 2.00001 0.457462 
v -2.88399 2.00001 1.45746 
v -2.88399 1.00001 0.457462 
v -2.88399 2.00001 1.45746 
v -2.88399 3.00001 0.457461 
v -2.88399 3.00001 1.45746 
v -2.88399 2.00001 0.457462 
v 1.11601 1.00001 0.457462 
v 1.11601 2.00001 -1.54254 
v 1.11601 1.00001 -1.54254 
v 1.11601 2.00001 0.457462 
v 1.11601 2.00001 -2.54254 
v 1.11601 1.00001 -2.54254 
v 1.11601 2.00001 0.457462 
v 1.11601 3.00001 -1.54254 
v 1.11601 2.00001 -1.54254 
v 1.11601 3.00001 0.457461 
v 1.11601 3.00001 -2.54254 
v 1.11601 2.00001 -2.54254 
v 1.11601 12 2.45746 
v 1.11601 15 -3.54254 
v 1.11601 12 -3.54254 
v 1.11601 15 2.45746 
v 1.11601 1.00001 1.45746 
v 1.11601 2.00001 0.457462 
v 1.11601 1.00001 0.457462 
v 1.11601 2.00001 1.45746 
v 1.11601 2.00001 1.45746 
v 1.11601 3.00001 0.457461 
v 1.11601 2.00001 0.457462 
v 1.11601 3.00001 1.45746 
v 2.11601 11 1.45746 
v -1.88399 11 -2.54254 
v 2.11601 11 -2.54254 
v -1.88399 11 1.45746 
v -1.88399 11 2.45746 
v -4.88399 11 -3.54254 
v -1.88399 11 -3.54254 
v -4.88399 11 2.45746 
v -4.88399 11 1.45746 
v -5.88399 11 -2.54254 
v -4.88399 11 -2.54254 
v -5.88399 11 1.45746 
v 3.11601 11 1.45746 
v 2.11601 11 -2.54254 
v 3.11601 11 -2.54254 
v 2.11601 11 1.45746 
v 4.11601 11 0.457459 
v 3.11601 11 -1.54254 
v 4.11601 11 -1.54254 
v 3.11601 11 0.457459 
v 2.11601 6.00001 1.45746 
v -3.88399 6.00001 -2.54254 
v -3.88399 6.00001 1.45746 
v 2.11601 6.00001 -2.54254 
v 3.11601 6.00001 0.45746 
v 2.11601 6.00001 -2.54254 
v 2.11601 6.00001 0.45746 
v 3.11601 6.00001 -2.54254 
v -3.88399 6.00001 0.45746 
v -4.88399 6.00001 -2.54254 
v -4.88399 6.00001 0.45746 
v -3.88399 6.00001 -2.54254 
v -3.88399 5.00001 0.457461 
v -3.88399 6.00001 -2.54254 
v -3.88399 6.00001 0.45746 
v -3.88399 5.00001 -2.54254 
v -3.88399 10 0.457459 
v -3.88399 11 -1.54254 
v -3.88399 11 0.457459 
v -3.88399 10 -1.54254 
v -3.88399 12 1.45746 
v -3.88399 13 -2.54254 
v -3.88399 13 1.45746 
v -3.88399 12 -2.54254 
v -5.88399 12 0.457459 
v -6.88399 12 -1.54254 
v -5.88399 12 -1.54254 
v -6.88399 12 0.457459 
v 3.11601 12 2.45746 
v 2.11601 12 -3.54254 
v 3.11601 12 -3.54254 
v 2.11601 12 2.45746 
v 2.11601 12 2.45746 
v 1.11601 12 -3.54254 
v 2.11601 12 -3.54254 
v 1.11601 12 2.45746 
v 1.11601 12 2.45746 
v 0.116011 12 -3.54254 
v 1.11601 12 -3.54254 
v 0.116011 12 2.45746 
v 4.11601 12 1.45746 
v 3.11601 12 -2.54254 
v 4.11601 12 -2.54254 
v 3.11601 12 1.45746 
v 3.11601 5.00001 1.45746 
v -4.88399 5.00001 -2.54254 
v -4.88399 5.00001 1.45746 
v 3.11601 5.00001 -2.54254 
v -4.88399 4.00001 0.457461 
v -4.88399 7.00001 -1.54254 
v -4.88399 7.00001 0.45746 
v -4.88399 4.00001 -1.54254 
v -4.88399 11 1.45746 
v -4.88399 12 -2.54254 
v -4.88399 12 1.45746 
v -4.88399 11 -2.54254 
v -4.88399 13 0.457459 
v -4.88399 14 -1.54254 
v -4.88399 14 0.457458 
v -4.88399 13 -1.54254 
v -4.88399 15 1.45746 
v -4.88399 16 -2.54254 
v -4.88399 16 1.45746 
v -4.88399 15 -2.54254 
v -5.88399 12 0.457459 
v -5.88399 13 -1.54254 
v -5.88399 13 0.457459 
v -5.88399 12 -1.54254 
v 1.11601 14 2.45746 
v 0.116011 14 -3.54254 
v 1.11601 14 -3.54254 
v 0.116011 14 2.45746 
v 4.11601 3.00001 0.457461 
v 1.11601 3.00001 -1.54254 
v 1.11601 3.00001 0.457461 
v 4.11601 3.00001 -1.54254 
v 3.11601 3.00001 -1.54254 
v 1.11601 3.00001 -2.54254 
v 3.11601 3.00001 -2.54254 
v -2.88399 3.00001 0.457461 
v -5.88399 3.00001 -1.54254 
v -5.88399 3.00001 0.457461 
v -2.88399 3.00001 -1.54254 
v -4.88399 3.00001 -2.54254 
v -4.88399 3.00001 -1.54254 
v -2.88399 3.00001 -2.54254 
v 2.11601 15 2.45746 
v -4.88399 15 -3.54254 
v 2.11601 15 -3.54254 
v -4.88399 15 2.45746 
v -4.88399 15 1.45746 
v -5.88399 15 -2.54254 
v -4.88399 15 -2.54254 
v -5.88399 15 1.45746 
v 5.11601 2.00001 0.457462 
v 1.11601 2.00001 -1.54254 
v 1.11601 2.00001 0.457462 
v 5.11601 2.00001 -1.54254 
v 4.11601 2.00001 0.457462 
v 4.11601 2.00001 1.45746 
v 1.11601 2.00001 1.45746 
v 4.11601 2.00001 -1.54254 
v 1.11601 2.00001 -2.54254 
v 4.11601 2.00001 -2.54254 
v -2.88399 2.00001 0.457462 
v -6.88399 2.00001 -1.54254 
v -6.88399 2.00001 0.457462 
v -2.88399 2.00001 -1.54254 
v -5.88399 2.00001 0.457462 
v -2.88399 2.00001 1.45746 
v -5.88399 2.00001 1.45746 
v -5.88399 2.00001 -2.54254 
v -5.88399 2.00001 -1.54254 
v -2.88399 2.00001 -2.54254 

vn 0 1 0 
vn 0 1 0 
vn 0 1 0 
vn 0 1 0 
vn 0 1 0 
vn 0 1 0 
vn 0 1 0 
vn 0 1 0 
vn 0 1 0 
vn 0 1 0 
vn 0 1 0 
vn 0 1 0 
vn 0 1 0 
vn 0 1 0 
vn 0 1 0 
vn 0 1 0 
vn 0 -1 0 
vn 0 -1 0 
vn 0 -1 0 
vn 0 -1 0 
vn 0 -1 0 
vn 0 -1 0 
vn 0 -1 0 
vn 0 -1 0 
vn 0 -1 0 
vn 0 -1 0 
vn 0 -1 0 
vn 0 -1 0 
vn 0 -1 0 
vn 0 -1 0 
vn 0 -1 0 
vn 0 -1 0 
vn 0 -1 0 
vn 0 -1 0 
vn 0 -1 0 
vn 0 -1 0 
vn 0 1 0 
vn 0 1 0 
vn 0 1 0 
vn 0 1 0 
vn 0 1 0 
vn 0 1 0 
vn 0 1 0 
vn 0 1 0 
vn 0 1 0 
vn 0 1 0 
vn 0 1 0 
vn 0 1 0 
vn 0 -1 0 
vn 0 -1 0 
vn 0 -1 0 
vn 0 -1 0 
vn 0 1 0 
vn 0 1 0 
vn 0 1 0 
vn 0 1 0 
vn 0 1 0 
vn 0 1 0 
vn 0 1 0 
vn 0 1 0 
vn 0 1 0 
vn 0 1 0 
vn 0 1 0 
vn 0 1 0 
vn 1 0 0 
vn 1 0 0 
vn 1 0 0 
vn 1 0 0 
vn 1 0 0 
vn 1 0 0 
vn 1 0 0 
vn 1 0 0 
vn 1 0 0 
vn 1 0 0 
vn 1 0 0 
vn 1 0 0 
vn -1 0 0 
vn -1 0 0 
vn -1 0 0 
vn -1 0 0 
vn -1 0 0 
vn -1 0 0 
vn -1 0 0 
vn -1 0 0 
vn -1 0 0 
vn -1 0 0 
vn -1 0 0 
vn -1 0 0 
vn -1 0 0 
vn -1 0 0 
vn -1 0 0 
vn -1 0 0 
vn 0 -1 0 
vn 0 -1 0 
vn 0 -1 0 
vn 0 -1 0 
vn 0 -1 0 
vn 0 -1 0 
vn 0 -1 0 
vn 0 -1 0 
vn 0 1 0 
vn 0 1 0 
vn 0 1 0 
vn 0 1 0 
vn 0 1 0 
vn 0 1 0 
vn 0 1 0 
vn 0 1 0 
vn 0 1 0 
vn 0 1 0 
vn 0 1 0 
vn 0 1 0 
vn 0 1 0 
vn 0 1 0 
vn 0 1 0 
vn 0 1 0 
vn 0 1 0 
vn 0 1 0 
vn 0 1 0 
vn 0 1 0 
vn 1 0 0 
vn 1 0 0 
vn 1 0 0 
vn 1 0 0 
vn 1 0 0 
vn 1 0 0 
vn 1 0 0 
vn 1 0 0 
vn 1 0 0 
vn 1 0 0 
vn 1 0 0 
vn 1 0 0 
vn 1 0 0 
vn 1 0 0 
vn 1 0 0 
vn 1 0 0 
vn 1 0 0 
vn 1 0 0 
vn 1 0 0 
vn 1 0 0 
vn 1 0 0 
vn 1 0 0 
vn 1 0 0 
vn 1 0 0 
vn -1 0 0 
vn -1 0 0 
vn -1 0 0 
vn -1 0 0 
vn -1 0 0 
vn -1 0 0 
vn -1 0 0 
vn -1 0 0 
vn -1 0 0 
vn -1 0 0 
vn -1 0 0 
vn -1 0 0 
vn -1 0 0 
vn -1 0 0 
vn -1 0 0 
vn -1 0 0 
vn -1 0 0 
vn -1 0 0 
vn -1 0 0 
vn -1 0 0 
vn -1 0 0 
vn -1 0 0 
vn -1 0 0 
vn -1 0 0 
vn -1 0 0 
vn -1 0 0 
vn -1 0 0 
vn -1 0 0 
vn -1 0 0 
vn -1 0 0 
vn -1 0 0 
vn -1 0 0 
vn 0 -1 0 
vn 0 -1 0 
vn 0 -1 0 
vn 0 -1 0 
vn 0 -1 0 
vn 0 -1 0 
vn 0 -1 0 
vn 0 -1 0 
vn 0 -1 0 
vn 0 -1 0 
vn 0 -1 0 
vn 0 -1 0 
vn 0 1 0 
vn 0 1 0 
vn 0 1 0 
vn 0 1 0 
vn 0 1 0 
vn 0 1 0 
vn 0 1 0 
vn 0 1 0 
vn 0 1 0 
vn 0 1 0 
vn 0 1 0 
vn 0 1 0 
vn 0 1 0 
vn 0 1 0 
vn 0 1 0 
vn 0 1 0 
vn 0 1 0 
vn 0 1 0 
vn 0 1 0 
vn 0 1 0 
vn 1 0 0 
vn 1 0 0 
vn 1 0 0 
vn 1 0 0 
vn 1 0 0 
vn 1 0 0 
vn 1 0 0 
vn 1 0 0 
vn 1 0 0 
vn 1 0 0 
vn 1 0 0 
vn 1 0 0 
vn 1 0 0 
vn 1 0 0 
vn 1 0 0 
vn 1 0 0 
vn 1 0 0 
vn 1 0 0 
vn 1 0 0 
vn 1 0 0 
vn 1 0 0 
vn 1 0 0 
vn 1 0 0 
vn 1 0 0 
vn 1 0 0 
vn 1 0 0 
vn 1 0 0 
vn 1 0 0 
vn 1 0 0 
vn 1 0 0 
vn 1 0 0 
vn 1 0 0 
vn 1 0 0 
vn 1 0 0 
vn 1 0 0 
vn 1 0 0 
vn 1 0 0 
vn 1 0 0 
vn 1 0 0 
vn 1 0 0 
vn 1 0 0 
vn 1 0 0 
vn 1 0 0 
vn 1 0 0 
vn -1 0 0 
vn -1 0 0 
vn -1 0 0 
vn -1 0 0 
vn -1 0 0 
vn -1 0 0 
vn -1 0 0 
vn -1 0 0 
vn -1 0 0 
vn -1 0 0 
vn -1 0 0 
vn -1 0 0 
vn -1 0 0 
vn -1 0 0 
vn -1 0 0 
vn -1 0 0 
vn -1 0 0 
vn -1 0 0 
vn -1 0 0 
vn -1 0 0 
vn -1 0 0 
vn -1 0 0 
vn -1 0 0 
vn -1 0 0 
vn -1 0 0 
vn -1 0 0 
vn -1 0 0 
vn -1 0 0 
vn -1 0 0 
vn -1 0 0 
vn -1 0 0 
vn -1 0 0 
vn -1 0 0 
vn -1 0 0 
vn -1 0 0 
vn -1 0 0 
vn 0 1 0 
vn 0 1 0 
vn 0 1 0 
vn 0 1 0 
vn 1 0 0 
vn 1 0 0 
vn 1 0 0 
vn 1 0 0 
vn 1 0 0 
vn 1 0 0 
vn 1 0 0 
vn 1 0 0 
vn 1 0 0 
vn 1 0 0 
vn 1 0 0 
vn 1 0 0 
vn 1 0 0 
vn 1 0 0 
vn 1 0 0 
vn 1 0 0 
vn 1 0 0 
vn 1 0 0 
vn 1 0 0 
vn 1 0 0 
vn 1 0 0 
vn 1 0 0 
vn 1 0 0 
vn 1 0 0 
vn 1 0 0 
vn 1 0 0 
vn 1 0 0 
vn 1 0 0 
vn 0 0 1 
vn 0 0 1 
vn 0 0 1 
vn 0 0 1 
vn 0 0 1 
vn 0 0 1 
vn 0 0 1 
vn 0 0 1 
vn 0 0 1 
vn 0 0 1 
vn 0 0 1 
vn 0 0 1 
vn 0 0 1 
vn 0 0 1 
vn 0 0 1 
vn 0 0 1 
vn 0 0 1 
vn 0 0 1 
vn 0 0 1 
vn 0 0 1 
vn 0 0 1 
vn 0 0 1 
vn 0 0 1 
vn 0 0 1 
vn 0 0 1 
vn 0 0 1 
vn 0 0 1 
vn 0 0 1 
vn 0 0 -1 
vn 0 0 -1 
vn 0 0 -1 
vn 0 0 -1 
vn 0 0 -1 
vn 0 0 -1 
vn 0 0 -1 
vn 0 0 -1 
vn 0 0 -1 
vn 0 0 -1 
vn 0 0 -1 
vn 0 0 -1 
vn 0 0 -1 
vn 0 0 -1 
vn 0 0 -1 
vn 0 0 -1 
vn 0 0 -1 
vn 0 0 -1 
vn 0 0 -1 
vn 0 0 -1 
vn 0 0 -1 
vn 0 0 -1 
vn 0 0 -1 
vn 0 0 -1 
vn 0 0 -1 
vn 0 0 -1 
vn 0 0 -1 
vn 0 0 -1 
vn -1 0 0 
vn -1 0 0 
vn -1 0 0 
vn -1 0 0 
vn -1 0 0 
vn -1 0 0 
vn -1 0 0 
vn -1 0 0 
vn -1 0 0 
vn -1 0 0 
vn -1 0 0 
vn -1 0 0 
vn -1 0 0 
vn -1 0 0 
vn -1 0 0 
vn -1 0 0 
vn -1 0 0 
vn -1 0 0 
vn -1 0 0 
vn -1 0 0 
vn 0 1 0 
vn 0 1 0 
vn 0 1 0 
vn 0 1 0 
vn 1 0 0 
vn 1 0 0 
vn 1 0 0 
vn 1 0 0 
vn 1 0 0 
vn 1 0 0 
vn 1 0 0 
vn 1 0 0 
vn 1 0 0 
vn 1 0 0 
vn 1 0 0 
vn 1 0 0 
vn 1 0 0 
vn 1 0 0 
vn 1 0 0 
vn 1 0 0 
vn 1 0 0 
vn 1 0 0 
vn 1 0 0 
vn 1 0 0 
vn 1 0 0 
vn 1 0 0 
vn 1 0 0 
vn 1 0 0 
vn 1 0 0 
vn 1 0 0 
vn 0 0 1 
vn 0 0 1 
vn 0 0 1 
vn 0 0 1 
vn 0 0 1 
vn 0 0 1 
vn 0 0 1 
vn 0 0 1 
vn 0 0 1 
vn 0 0 1 
vn 0 0 1 
vn 0 0 1 
vn 0 0 1 
vn 0 0 1 
vn 0 0 1 
vn 0 0 1 
vn 0 0 1 
vn 0 0 1 
vn 0 0 1 
vn 0 0 1 
vn 0 0 1 
vn 0 0 1 
vn 0 0 1 
vn 0 0 1 
vn 0 0 1 
vn 0 0 1 
vn 0 0 1 
vn 0 0 1 
vn 0 0 1 
vn 0 0 1 
vn 0 0 1 
vn 0 0 1 
vn 0 0 1 
vn 0 0 1 
vn 0 0 1 
vn 0 0 1 
vn 0 0 1 
vn 0 0 1 
vn 0 0 1 
vn 0 0 1 
vn 0 0 1 
vn 0 0 1 
vn 0 0 1 
vn 0 0 1 
vn 0 0 1 
vn 0 0 1 
vn 0 0 1 
vn 0 0 1 
vn 0 0 1 
vn 0 0 1 
vn 0 0 1 
vn 0 0 1 
vn 0 0 1 
vn 0 0 1 
vn 0 0 1 
vn 0 0 1 
vn 0 0 1 
vn 0 0 1 
vn 0 0 1 
vn 0 0 1 
vn 0 0 1 
vn 0 0 1 
vn 0 0 1 
vn 0 0 1 
vn 0 0 1 
vn 0 0 1 
vn 0 0 1 
vn 0 0 1 
vn 0 0 1 
vn 0 0 1 
vn 0 0 1 
vn 0 0 1 
vn 0 0 1 
vn 0 0 1 
vn 0 0 1 
vn 0 0 1 
vn 0 0 1 
vn 0 0 1 
vn 0 0 1 
vn 0 0 1 
vn 0 0 1 
vn 0 0 1 
vn 0 0 1 
vn 0 0 1 
vn 0 0 1 
vn 0 0 1 
vn 0 0 1 
vn 0 0 1 
vn 0 0 1 
vn 0 0 1 
vn 0 0 1 
vn 0 0 1 
vn 0 0 1 
vn 0 0 1 
vn 0 0 1 
vn 0 0 1 
vn 0 0 1 
vn 0 0 1 
vn 0 0 1 
vn 0 0 1 
vn 0 0 1 
vn 0 0 1 
vn 0 0 1 
vn 0 0 1 
vn 0 0 1 
vn 0 0 1 
vn 0 0 1 
vn 0 0 1 
vn 0 0 1 
vn 0 0 1 
vn 0 0 1 
vn 0 0 1 
vn 0 0 1 
vn 0 0 1 
vn 0 0 1 
vn 0 0 1 
vn 0 0 1 
vn 0 0 1 
vn 0 0 1 
vn 0 0 1 
vn 0 0 1 
vn 0 0 1 
vn 0 0 1 
vn 0 0 1 
vn 0 0 -1 
vn 0 0 -1 
vn 0 0 -1 
vn 0 0 -1 
vn 0 0 -1 
vn 0 0 -1 
vn 0 0 -1 
vn 0 0 -1 
vn 0 0 -1 
vn 0 0 -1 
vn 0 0 -1 
vn 0 0 -1 
vn 0 0 -1 
vn 0 0 -1 
vn 0 0 -1 
vn 0 0 -1 
vn 0 0 -1 
vn 0 0 -1 
vn 0 0 -1 
vn 0 0 -1 
vn 0 0 -1 
vn 0 0 -1 
vn 0 0 -1 
vn 0 0 -1 
vn 0 0 -1 
vn 0 0 -1 
vn 0 0 -1 
vn 0 0 -1 
vn 0 0 -1 
vn 0 0 -1 
vn 0 0 -1 
vn 0 0 -1 
vn 0 0 -1 
vn 0 0 -1 
vn 0 0 -1 
vn 0 0 -1 
vn 0 0 -1 
vn 0 0 -1 
vn 0 0 -1 
vn 0 0 -1 
vn 0 0 -1 
vn 0 0 -1 
vn 0 0 -1 
vn 0 0 -1 
vn 0 0 -1 
vn 0 0 -1 
vn 0 0 -1 
vn 0 0 -1 
vn 0 0 -1 
vn 0 0 -1 
vn 0 0 -1 
vn 0 0 -1 
vn 0 0 -1 
vn 0 0 -1 
vn 0 0 -1 
vn 0 0 -1 
vn 0 0 -1 
vn 0 0 -1 
vn 0 0 -1 
vn 0 0 -1 
vn 0 0 -1 
vn 0 0 -1 
vn 0 0 -1 
vn 0 0 -1 
vn 0 0 -1 
vn 0 0 -1 
vn 0 0 -1 
vn 0 0 -1 
vn 0 0 -1 
vn 0 0 -1 
vn 0 0 -1 
vn 0 0 -1 
vn 0 0 -1 
vn 0 0 -1 
vn 0 0 -1 
vn 0 0 -1 
vn 0 0 -1 
vn 0 0 -1 
vn 0 0 -1 
vn 0 0 -1 
vn 0 0 -1 
vn 0 0 -1 
vn 0 0 -1 
vn 0 0 -1 
vn 0 0 -1 
vn 0 0 -1 
vn 0 0 -1 
vn 0 0 -1 
vn 0 0 -1 
vn 0 0 -1 
vn 0 0 -1 
vn 0 0 -1 
vn 0 0 -1 
vn 0 0 -1 
vn 0 0 -1 
vn 0 0 -1 
vn 0 0 -1 
vn 0 0 -1 
vn 0 0 -1 
vn 0 0 -1 
vn 0 0 -1 
vn 0 0 -1 
vn 0 0 -1 
vn 0 0 -1 
vn 0 0 -1 
vn 0 0 -1 
vn 0 0 -1 
vn 0 0 -1 
vn 0 0 -1 
vn 0 0 -1 
vn 0 0 -1 
vn 0 0 -1 
vn 0 0 -1 
vn 0 0 -1 
vn 0 0 -1 
vn 0 0 -1 
vn 0 0 -1 
vn 0 0 -1 
vn 0 0 -1 
vn 0 0 -1 
vn 0 0 -1 
vn 0 0 -1 
vn 0 0 -1 
vn 0 0 -1 
vn 0 0 -1 
vn 0 0 -1 
vn 0 0 -1 
vn 0 0 -1 
vn 0 0 -1 
vn 0 0 -1 
vn 0 0 -1 
vn 0 0 -1 
vn 0 0 -1 
vn 0 0 -1 
vn 0 0 -1 
vn 0 0 -1 
vn 0 0 -1 
vn 0 0 -1 
vn 0 0 -1 
vn 0 0 -1 
vn -1 0 0 
vn -1 0 0 
vn -1 0 0 
vn -1 0 0 
vn -1 0 0 
vn -1 0 0 
vn -1 0 0 
vn -1 0 0 
vn -1 0 0 
vn -1 0 0 
vn -1 0 0 
vn -1 0 0 
vn -1 0 0 
vn -1 0 0 
vn -1 0 0 
vn -1 0 0 
vn -1 0 0 
vn -1 0 0 
vn -1 0 0 
vn -1 0 0 
vn -1 0 0 
vn -1 0 0 
vn -1 0 0 
vn -1 0 0 
vn -1 0 0 
vn -1 0 0 
vn 0 1 0 
vn 0 1 0 
vn 0 1 0 
vn 0 1 0 
vn 1 0 0 
vn 1 0 0 
vn 1 0 0 
vn 1 0 0 
vn 0 0 1 
vn 0 0 1 
vn 0 0 1 
vn 0 0 1 
vn 0 0 1 
vn 0 0 1 
vn 0 0 1 
vn 0 0 1 
vn 0 0 1 
vn 0 0 1 
vn 0 0 1 
vn 0 0 1 
vn 0 0 1 
vn 0 0 1 
vn 0 0 1 
vn 0 0 1 
vn 0 0 1 
vn 0 0 1 
vn 0 0 1 
vn 0 0 1 
vn 0 0 1 
vn 0 0 1 
vn 0 0 1 
vn 0 0 1 
vn 0 0 1 
vn 0 0 1 
vn 0 0 1 
vn 0 0 1 
vn 0 0 1 
vn 0 0 1 
vn 0 0 1 
vn 0 0 1 
vn 0 0 1 
vn 0 0 1 
vn 0 0 1 
vn 0 0 1 
vn 0 0 1 
vn 0 0 1 
vn 0 0 1 
vn 0 0 1 
vn 0 0 1 
vn 0 0 1 
vn 0 0 1 
vn 0 0 1 
vn 0 0 1 
vn 0 0 1 
vn 0 0 1 
vn 0 0 1 
vn 0 0 1 
vn 0 0 1 
vn 0 0 1 
vn 0 0 1 
vn 0 0 1 
vn 0 0 1 
vn 0 0 1 
vn 0 0 1 
vn 0 0 1 
vn 0 0 1 
vn 0 0 1 
vn 0 0 1 
vn 0 0 1 
vn 0 0 1 
vn 0 0 1 
vn 0 0 1 
vn 0 0 1 
vn 0 0 1 
vn 0 0 1 
vn 0 0 1 
vn 0 0 1 
vn 0 0 1 
vn 0 0 1 
vn 0 0 1 
vn 0 0 1 
vn 0 0 1 
vn 0 0 1 
vn 0 0 1 
vn 0 0 1 
vn 0 0 1 
vn 0 0 1 
vn 0 0 1 
vn 0 0 1 
vn 0 0 1 
vn 0 0 1 
vn 0 0 1 
vn 0 0 1 
vn 0 0 1 
vn 0 0 1 
vn 0 0 1 
vn 0 0 -1 
vn 0 0 -1 
vn 0 0 -1 
vn 0 0 -1 
vn 0 0 -1 
vn 0 0 -1 
vn 0 0 -1 
vn 0 0 -1 
vn 0 0 -1 
vn 0 0 -1 
vn 0 0 -1 
vn 0 0 -1 
vn 0 0 -1 
vn 0 0 -1 
vn 0 0 -1 
vn 0 0 -1 
vn 0 0 -1 
vn 0 0 -1 
vn 0 0 -1 
vn 0 0 -1 
vn 0 0 -1 
vn 0 0 -1 
vn 0 0 -1 
vn 0 0 -1 
vn 0 0 -1 
vn 0 0 -1 
vn 0 0 -1 
vn 0 0 -1 
vn 0 0 -1 
vn 0 0 -1 
vn 0 0 -1 
vn 0 0 -1 
vn 0 0 -1 
vn 0 0 -1 
vn 0 0 -1 
vn 0 0 -1 
vn 0 0 -1 
vn 0 0 -1 
vn 0 0 -1 
vn 0 0 -1 
vn 0 0 -1 
vn 0 0 -1 
vn 0 0 -1 
vn 0 0 -1 
vn 0 0 -1 
vn 0 0 -1 
vn 0 0 -1 
vn 0 0 -1 
vn 0 0 -1 
vn 0 0 -1 
vn 0 0 -1 
vn 0 0 -1 
vn 0 0 -1 
vn 0 0 -1 
vn 0 0 -1 
vn 0 0 -1 
vn 0 0 -1 
vn 0 0 -1 
vn 0 0 -1 
vn 0 0 -1 
vn 0 0 -1 
vn 0 0 -1 
vn 0 0 -1 
vn 0 0 -1 
vn 0 0 -1 
vn 0 0 -1 
vn 0 0 -1 
vn 0 0 -1 
vn 0 0 -1 
vn 0 0 -1 
vn 0 0 -1 
vn 0 0 -1 
vn 0 0 -1 
vn 0 0 -1 
vn 0 0 -1 
vn 0 0 -1 
vn 0 0 -1 
vn 0 0 -1 
vn 0 0 -1 
vn 0 0 -1 
vn 0 0 -1 
vn 0 0 -1 
vn 0 0 -1 
vn 0 0 -1 
vn 0 1 0 
vn 0 1 0 
vn 0 1 0 
vn 0 1 0 
vn 0 1 0 
vn 0 1 0 
vn 0 1 0 
vn 0 1 0 
vn 0 1 0 
vn 0 1 0 
vn 0 1 0 
vn 0 1 0 
vn 0 1 0 
vn 0 1 0 
vn 0 1 0 
vn 0 1 0 
vn 0 1 0 
vn 0 1 0 
vn 0 1 0 
vn 0 1 0 
vn 0 1 0 
vn 0 1 0 
vn 0 1 0 
vn 0 1 0 
vn 1 0 0 
vn 1 0 0 
vn 1 0 0 
vn 1 0 0 
vn 1 0 0 
vn 1 0 0 
vn 1 0 0 
vn 1 0 0 
vn 1 0 0 
vn 1 0 0 
vn 1 0 0 
vn 1 0 0 
vn 1 0 0 
vn 1 0 0 
vn 1 0 0 
vn 1 0 0 
vn 1 0 0 
vn 1 0 0 
vn 1 0 0 
vn 1 0 0 
vn 1 0 0 
vn 1 0 0 
vn 1 0 0 
vn 1 0 0 
vn 0 0 1 
vn 0 0 1 
vn 0 0 1 
vn 0 0 1 
vn 0 0 1 
vn 0 0 1 
vn 0 0 1 
vn 0 0 1 
vn 0 0 -1 
vn 0 0 -1 
vn 0 0 -1 
vn 0 0 -1 
vn -1 0 0 
vn -1 0 0 
vn -1 0 0 
vn -1 0 0 
vn -1 0 0 
vn -1 0 0 
vn -1 0 0 
vn -1 0 0 
vn -1 0 0 
vn -1 0 0 
vn -1 0 0 
vn -1 0 0 
vn -1 0 0 
vn -1 0 0 
vn -1 0 0 
vn -1 0 0 
vn 0 -1 0 
vn 0 -1 0 
vn 0 -1 0 
vn 0 -1 0 
vn 0 -1 0 
vn 0 -1 0 
vn 0 -1 0 
vn 0 -1 0 
vn 0 1 0 
vn 0 1 0 
vn 0 1 0 
vn 0 1 0 
vn 0 1 0 
vn 0 1 0 
vn 0 1 0 
vn 0 1 0 
vn 0 1 0 
vn 0 1 0 
vn 0 1 0 
vn 0 1 0 
vn 1 0 0 
vn 1 0 0 
vn 1 0 0 
vn 1 0 0 
vn 1 0 0 
vn 1 0 0 
vn 1 0 0 
vn 1 0 0 
vn 1 0 0 
vn 1 0 0 
vn 1 0 0 
vn 1 0 0 
vn 1 0 0 
vn 1 0 0 
vn 1 0 0 
vn 1 0 0 
vn 1 0 0 
vn 1 0 0 
vn 1 0 0 
vn 1 0 0 
vn 1 0 0 
vn 1 0 0 
vn 1 0 0 
vn 1 0 0 
vn 1 0 0 
vn 1 0 0 
vn 1 0 0 
vn 1 0 0 
vn 1 0 0 
vn 1 0 0 
vn 1 0 0 
vn 1 0 0 
vn 1 0 0 
vn 1 0 0 
vn 1 0 0 
vn 1 0 0 
vn 1 0 0 
vn 1 0 0 
vn 1 0 0 
vn 1 0 0 
vn 1 0 0 
vn 1 0 0 
vn 1 0 0 
vn 1 0 0 
vn -1 0 0 
vn -1 0 0 
vn -1 0 0 
vn -1 0 0 
vn -1 0 0 
vn -1 0 0 
vn -1 0 0 
vn -1 0 0 
vn -1 0 0 
vn -1 0 0 
vn -1 0 0 
vn -1 0 0 
vn -1 0 0 
vn -1 0 0 
vn -1 0 0 
vn -1 0 0 
vn -1 0 0 
vn -1 0 0 
vn -1 0 0 
vn -1 0 0 
vn -1 0 0 
vn -1 0 0 
vn -1 0 0 
vn -1 0 0 
vn 0 -1 0 
vn 0 -1 0 
vn 0 -1 0 
vn 0 -1 0 
vn 0 -1 0 
vn 0 -1 0 
vn 0 -1 0 
vn 0 -1 0 
vn 0 -1 0 
vn 0 -1 0 
vn 0 -1 0 
vn 0 -1 0 
vn 0 -1 0 
vn 0 -1 0 
vn 0 -1 0 
vn 0 -1 0 
vn 0 -1 0 
vn 0 -1 0 
vn 0 -1 0 
vn 0 -1 0 
vn 0 1 0 
vn 0 1 0 
vn 0 1 0 
vn 0 1 0 
vn 0 1 0 
vn 0 1 0 
vn 0 1 0 
vn 0 1 0 
vn 0 1 0 
vn 0 1 0 
vn 0 1 0 
vn 0 1 0 
vn 1 0 0 
vn 1 0 0 
vn 1 0 0 
vn 1 0 0 
vn 1 0 0 
vn 1 0 0 
vn 1 0 0 
vn 1 0 0 
vn 1 0 0 
vn 1 0 0 
vn 1 0 0 
vn 1 0 0 
vn 0 -1 0 
vn 0 -1 0 
vn 0 -1 0 
vn 0 -1 0 
vn 0 -1 0 
vn 0 -1 0 
vn 0 -1 0 
vn 0 -1 0 
vn 0 -1 0 
vn 0 -1 0 
vn 0 -1 0 
vn 0 -1 0 
vn 0 -1 0 
vn 0 -1 0 
vn 0 -1 0 
vn 0 -1 0 
vn 0 -1 0 
vn 0 -1 0 
vn 0 -1 0 
vn 0 -1 0 
vn 0 1 0 
vn 0 1 0 
vn 0 1 0 
vn 0 1 0 
vn 1 0 0 
vn 1 0 0 
vn 1 0 0 
vn 1 0 0 
vn 1 0 0 
vn 1 0 0 
vn 1 0 0 
vn 1 0 0 
vn 1 0 0 
vn 1 0 0 
vn 1 0 0 
vn 1 0 0 
vn 1 0 0 
vn 1 0 0 
vn 1 0 0 
vn 1 0 0 
vn 1 0 0 
vn 1 0 0 
vn 1 0 0 
vn 1 0 0 
vn 0 -1 0 
vn 0 -1 0 
vn 0 -1 0 
vn 0 -1 0 
vn 0 1 0 
vn 0 1 0 
vn 0 1 0 
vn 0 1 0 
vn 0 1 0 
vn 0 1 0 
vn 0 1 0 
vn 0 1 0 
vn 0 1 0 
vn 0 1 0 
vn 0 1 0 
vn 0 1 0 
vn 0 1 0 
vn 0 1 0 
vn 0 -1 0 
vn 0 -1 0 
vn 0 -1 0 
vn 0 -1 0 
vn 0 -1 0 
vn 0 -1 0 
vn 0 -1 0 
vn 0 -1 0 
vn 0 1 0 
vn 0 1 0 
vn 0 1 0 
vn 0 1 0 
vn 0 1 0 
vn 0 1 0 
vn 0 1 0 
vn 0 1 0 
vn 0 1 0 
vn 0 1 0 
vn 0 1 0 
vn 0 1 0 
vn 0 1 0 
vn 0 1 0 
vn 0 1 0 
vn 0 1 0 
vn 0 1 0 
vn 0 1 0 
vn 0 1 0 
vn 0 1 0 

vt 0.560173 0.924282 
vt 0.93287 0.924282 
vt 0.93287 0.924282 
vt 0.560173 0.924282 
vt 0.560173 0.924282 
vt 0.93287 0.924282 
vt 0.93287 0.924282 
vt 0.560173 0.924282 
vt 0.560173 0.924282 
vt 0.93287 0.924282 
vt 0.93287 0.924282 
vt 0.560173 0.924282 
vt 0.089999 0.924282 
vt 0.462696 0.924282 
vt 0.462696 0.924282 
vt 0.089999 0.924282 
vt 0.303319 0.072282 
vt 0.676015 0.072282 
vt 0.303319 0.072282 
vt 0.676015 0.072282 
vt 0.676015 0.072282 
vt 0.303319 0.072282 
vt 0.303319 0.072282 
vt 0.303319 0.072282 
vt 0.303319 0.072282 
vt 0.676015 0.072282 
vt 0.303319 0.072282 
vt 0.676015 0.072282 
vt 0.303319 0.072282 
vt 0.676015 0.072282 
vt 0.676015 0.072282 
vt 0.676015 0.072282 
vt 0.303319 0.072282 
vt 0.303319 0.072282 
vt 0.676015 0.072282 
vt 0.676015 0.072282 
vt 0.560173 0.924282 
vt 0.93287 0.924282 
vt 0.93287 0.924282 
vt 0.560173 0.924282 
vt 0.560173 0.924282 
vt 0.93287 0.924282 
vt 0.93287 0.924282 
vt 0.560173 0.924282 
vt 0.560173 0.924282 
vt 0.93287 0.924282 
vt 0.93287 0.924282 
vt 0.560173 0.924282 
vt 0.303319 0.072282 
vt 0.676015 0.072282 
vt 0.303319 0.072282 
vt 0.676015 0.072282 
vt 0.333793 0.444979 
vt 0.70649 0.444979 
vt 0.70649 0.444979 
vt 0.333793 0.444979 
vt 0.076939 0.924282 
vt 0.449635 0.924282 
vt 0.449635 0.924282 
vt 0.076939 0.924282 
vt 0.303319 0.436264 
vt 0.676015 0.436264 
vt 0.676015 0.436264 
vt 0.303319 0.436264 
vt 0.303319 0.072282 
vt 0.303319 0.444979 
vt 0.303319 0.444979 
vt 0.303319 0.072282 
vt 0.081292 0.590801 
vt 0.081292 0.963497 
vt 0.081292 0.963497 
vt 0.081292 0.590801 
vt 0.312026 0.085354 
vt 0.312026 0.458051 
vt 0.312026 0.458051 
vt 0.312026 0.085354 
vt 0.676015 0.072282 
vt 0.676015 0.444979 
vt 0.676015 0.072282 
vt 0.676015 0.444979 
vt 0.453989 0.590801 
vt 0.453989 0.963497 
vt 0.453989 0.590801 
vt 0.453989 0.963497 
vt 0.684722 0.085354 
vt 0.684722 0.458051 
vt 0.684722 0.085354 
vt 0.684722 0.458051 
vt 0.453989 0.582086 
vt 0.453989 0.954783 
vt 0.453989 0.582086 
vt 0.453989 0.954783 
vt 0.551466 0.590801 
vt 0.924163 0.590801 
vt 0.551466 0.590801 
vt 0.924163 0.590801 
vt 0.551466 0.590801 
vt 0.924163 0.590801 
vt 0.551466 0.590801 
vt 0.924163 0.590801 
vt 0.081292 0.954783 
vt 0.453989 0.954783 
vt 0.453989 0.954783 
vt 0.081292 0.954783 
vt 0.081292 0.954783 
vt 0.453989 0.954783 
vt 0.453989 0.954783 
vt 0.081292 0.954783 
vt 0.072585 0.954783 
vt 0.445282 0.954783 
vt 0.445282 0.954783 
vt 0.072585 0.954783 
vt 0.072585 0.954783 
vt 0.445282 0.954783 
vt 0.445282 0.954783 
vt 0.072585 0.954783 
vt 0.303319 0.436264 
vt 0.676015 0.436264 
vt 0.676015 0.436264 
vt 0.303319 0.436264 
vt 0.303319 0.072282 
vt 0.303319 0.444979 
vt 0.303319 0.444979 
vt 0.303319 0.072282 
vt 0.312026 0.085354 
vt 0.312026 0.458051 
vt 0.312026 0.458051 
vt 0.312026 0.085354 
vt 0.303319 0.072282 
vt 0.303319 0.444979 
vt 0.303319 0.444979 
vt 0.303319 0.072282 
vt 0.303319 0.063568 
vt 0.303319 0.436264 
vt 0.303319 0.436264 
vt 0.303319 0.063568 
vt 0.303319 0.063568 
vt 0.303319 0.436264 
vt 0.303319 0.436264 
vt 0.303319 0.063568 
vt 0.303319 0.072282 
vt 0.303319 0.444979 
vt 0.303319 0.444979 
vt 0.303319 0.072282 
vt 0.676015 0.072282 
vt 0.676015 0.444979 
vt 0.676015 0.072282 
vt 0.676015 0.444979 
vt 0.684722 0.085354 
vt 0.684722 0.458051 
vt 0.684722 0.085354 
vt 0.684722 0.458051 
vt 0.676015 0.072282 
vt 0.676015 0.444979 
vt 0.676015 0.072282 
vt 0.676015 0.444979 
vt 0.697783 0.067925 
vt 0.697783 0.440622 
vt 0.697783 0.067925 
vt 0.697783 0.440622 
vt 0.453989 0.582086 
vt 0.453989 0.954783 
vt 0.453989 0.582086 
vt 0.453989 0.954783 
vt 0.453989 0.582086 
vt 0.453989 0.954783 
vt 0.453989 0.582086 
vt 0.453989 0.954783 
vt 0.93287 0.551585 
vt 0.93287 0.924282 
vt 0.93287 0.551585 
vt 0.93287 0.924282 
vt 0.676015 0.072282 
vt 0.676015 0.444979 
vt 0.676015 0.072282 
vt 0.676015 0.444979 
vt 0.551466 0.590801 
vt 0.924163 0.590801 
vt 0.551466 0.590801 
vt 0.924163 0.590801 
vt 0.081292 0.590801 
vt 0.453989 0.590801 
vt 0.081292 0.590801 
vt 0.453989 0.590801 
vt 0.081292 0.590801 
vt 0.453989 0.590801 
vt 0.081292 0.590801 
vt 0.453989 0.590801 
vt 0.081292 0.954783 
vt 0.453989 0.954783 
vt 0.453989 0.954783 
vt 0.081292 0.954783 
vt 0.325086 0.440622 
vt 0.697783 0.440622 
vt 0.697783 0.440622 
vt 0.325086 0.440622 
vt 0.081292 0.954783 
vt 0.453989 0.954783 
vt 0.453989 0.954783 
vt 0.081292 0.954783 
vt 0.081292 0.954783 
vt 0.453989 0.954783 
vt 0.453989 0.954783 
vt 0.081292 0.954783 
vt 0.303319 0.436264 
vt 0.676015 0.436264 
vt 0.676015 0.436264 
vt 0.303319 0.436264 
vt 0.551466 0.590801 
vt 0.551466 0.963497 
vt 0.551466 0.963497 
vt 0.551466 0.590801 
vt 0.551466 0.590801 
vt 0.551466 0.963497 
vt 0.551466 0.963497 
vt 0.551466 0.590801 
vt 0.081292 0.590801 
vt 0.081292 0.963497 
vt 0.081292 0.963497 
vt 0.081292 0.590801 
vt 0.312026 0.085354 
vt 0.312026 0.458051 
vt 0.312026 0.458051 
vt 0.312026 0.085354 
vt 0.312026 0.085354 
vt 0.312026 0.458051 
vt 0.312026 0.458051 
vt 0.312026 0.085354 
vt 0.072585 0.582086 
vt 0.072585 0.954783 
vt 0.072585 0.954783 
vt 0.072585 0.582086 
vt 0.303319 0.063568 
vt 0.303319 0.436264 
vt 0.303319 0.436264 
vt 0.303319 0.063568 
vt 0.303319 0.063568 
vt 0.303319 0.436264 
vt 0.303319 0.436264 
vt 0.303319 0.063568 
vt 0.560173 0.551585 
vt 0.560173 0.924282 
vt 0.560173 0.924282 
vt 0.560173 0.551585 
vt 0.303319 0.072282 
vt 0.303319 0.444979 
vt 0.303319 0.444979 
vt 0.303319 0.072282 
vt 0.303319 0.072282 
vt 0.303319 0.444979 
vt 0.303319 0.444979 
vt 0.303319 0.072282 
vt 0.924163 0.590801 
vt 0.924163 0.963497 
vt 0.924163 0.590801 
vt 0.924163 0.963497 
vt 0.924163 0.590801 
vt 0.924163 0.963497 
vt 0.924163 0.590801 
vt 0.924163 0.963497 
vt 0.453989 0.590801 
vt 0.453989 0.963497 
vt 0.453989 0.590801 
vt 0.453989 0.963497 
vt 0.453989 0.582086 
vt 0.453989 0.954783 
vt 0.453989 0.582086 
vt 0.453989 0.954783 
vt 0.662955 0.054853 
vt 0.662955 0.42755 
vt 0.662955 0.054853 
vt 0.662955 0.42755 
vt 0.453989 0.582086 
vt 0.453989 0.954783 
vt 0.453989 0.582086 
vt 0.453989 0.954783 
vt 0.93287 0.551585 
vt 0.93287 0.924282 
vt 0.93287 0.551585 
vt 0.93287 0.924282 
vt 0.676015 0.072282 
vt 0.676015 0.444979 
vt 0.676015 0.072282 
vt 0.676015 0.444979 
vt 0.676015 0.072282 
vt 0.676015 0.444979 
vt 0.676015 0.072282 
vt 0.676015 0.444979 
vt 0.290258 0.42755 
vt 0.662955 0.42755 
vt 0.662955 0.42755 
vt 0.290258 0.42755 
vt 0.551466 0.590801 
vt 0.551466 0.963497 
vt 0.551466 0.963497 
vt 0.551466 0.590801 
vt 0.551466 0.590801 
vt 0.551466 0.963497 
vt 0.551466 0.963497 
vt 0.551466 0.590801 
vt 0.081292 0.582086 
vt 0.081292 0.954783 
vt 0.081292 0.954783 
vt 0.081292 0.582086 
vt 0.081292 0.582086 
vt 0.081292 0.954783 
vt 0.081292 0.954783 
vt 0.081292 0.582086 
vt 0.303319 0.063568 
vt 0.303319 0.436264 
vt 0.303319 0.436264 
vt 0.303319 0.063568 
vt 0.560173 0.551585 
vt 0.560173 0.924282 
vt 0.560173 0.924282 
vt 0.560173 0.551585 
vt 0.560173 0.551585 
vt 0.560173 0.924282 
vt 0.560173 0.924282 
vt 0.560173 0.551585 
vt 0.290258 0.054853 
vt 0.662955 0.42755 
vt 0.662955 0.054853 
vt 0.290258 0.42755 
vt 0.325086 0.067925 
vt 0.697783 0.440622 
vt 0.697783 0.067925 
vt 0.325086 0.440622 
vt 0.072585 0.582086 
vt 0.445282 0.954783 
vt 0.445282 0.582086 
vt 0.072585 0.954783 
vt 0.303319 0.063568 
vt 0.676015 0.436264 
vt 0.676015 0.063568 
vt 0.303319 0.436264 
vt 0.303319 0.063568 
vt 0.676015 0.436264 
vt 0.676015 0.063568 
vt 0.303319 0.436264 
vt 0.303319 0.063568 
vt 0.676015 0.436264 
vt 0.676015 0.063568 
vt 0.303319 0.436264 
vt 0.560173 0.551585 
vt 0.93287 0.924282 
vt 0.93287 0.551585 
vt 0.560173 0.924282 
vt 0.290258 0.054853 
vt 0.662955 0.42755 
vt 0.290258 0.42755 
vt 0.662955 0.054853 
vt 0.325086 0.067925 
vt 0.697783 0.440622 
vt 0.325086 0.440622 
vt 0.697783 0.067925 
vt 0.072585 0.582086 
vt 0.445282 0.954783 
vt 0.072585 0.954783 
vt 0.445282 0.582086 
vt 0.303319 0.063568 
vt 0.676015 0.436264 
vt 0.303319 0.436264 
vt 0.676015 0.063568 
vt 0.303319 0.063568 
vt 0.676015 0.436264 
vt 0.303319 0.436264 
vt 0.676015 0.063568 
vt 0.303319 0.063568 
vt 0.676015 0.436264 
vt 0.303319 0.436264 
vt 0.676015 0.063568 
vt 0.560173 0.551585 
vt 0.93287 0.924282 
vt 0.560173 0.924282 
vt 0.93287 0.551585 
vt 0.924163 0.590801 
vt 0.924163 0.963497 
vt 0.924163 0.590801 
vt 0.924163 0.963497 
vt 0.93287 0.590801 
vt 0.93287 0.963497 
vt 0.93287 0.590801 
vt 0.93287 0.963497 
vt 0.453989 0.582086 
vt 0.453989 0.954783 
vt 0.453989 0.582086 
vt 0.453989 0.954783 
vt 0.697783 0.067925 
vt 0.697783 0.440622 
vt 0.697783 0.067925 
vt 0.697783 0.440622 
vt 0.453989 0.582086 
vt 0.453989 0.954783 
vt 0.453989 0.582086 
vt 0.453989 0.954783 
vt 0.081292 0.954783 
vt 0.453989 0.954783 
vt 0.453989 0.954783 
vt 0.081292 0.954783 
vt 0.072585 0.590801 
vt 0.072585 0.963497 
vt 0.072585 0.963497 
vt 0.072585 0.590801 
vt 0.551466 0.590801 
vt 0.551466 0.963497 
vt 0.551466 0.963497 
vt 0.560173 0.590801 
vt 0.560173 0.963497 
vt 0.560173 0.963497 
vt 0.560173 0.590801 
vt 0.081292 0.582086 
vt 0.081292 0.954783 
vt 0.081292 0.954783 
vt 0.081292 0.582086 
vt 0.072585 0.582086 
vt 0.072585 0.954783 
vt 0.072585 0.954783 
vt 0.072585 0.582086 
vt 0.303319 0.063568 
vt 0.303319 0.436264 
vt 0.303319 0.436264 
vt 0.303319 0.063568 
vt 0.551466 0.590801 
vt 0.551466 0.963497 
vt 0.551466 0.590801 
vt 0.551466 0.590801 
vt 0.924163 0.963497 
vt 0.924163 0.590801 
vt 0.551466 0.963497 
vt 0.551466 0.590801 
vt 0.924163 0.963497 
vt 0.924163 0.590801 
vt 0.551466 0.963497 
vt 0.551466 0.590801 
vt 0.924163 0.963497 
vt 0.924163 0.590801 
vt 0.551466 0.963497 
vt 0.551466 0.590801 
vt 0.924163 0.963497 
vt 0.924163 0.590801 
vt 0.551466 0.963497 
vt 0.551466 0.590801 
vt 0.924163 0.963497 
vt 0.924163 0.590801 
vt 0.551466 0.963497 
vt 0.560173 0.590801 
vt 0.93287 0.963497 
vt 0.93287 0.590801 
vt 0.560173 0.963497 
vt 0.551466 0.590801 
vt 0.924163 0.963497 
vt 0.924163 0.590801 
vt 0.551466 0.963497 
vt 0.560173 0.590801 
vt 0.93287 0.963497 
vt 0.93287 0.590801 
vt 0.560173 0.963497 
vt 0.560173 0.590801 
vt 0.93287 0.963497 
vt 0.93287 0.590801 
vt 0.560173 0.963497 
vt 0.551466 0.590801 
vt 0.924163 0.963497 
vt 0.924163 0.590801 
vt 0.551466 0.963497 
vt 0.081292 0.582086 
vt 0.453989 0.954783 
vt 0.453989 0.582086 
vt 0.081292 0.954783 
vt 0.081292 0.582086 
vt 0.453989 0.954783 
vt 0.453989 0.582086 
vt 0.081292 0.954783 
vt 0.081292 0.582086 
vt 0.453989 0.954783 
vt 0.453989 0.582086 
vt 0.081292 0.954783 
vt 0.325086 0.067925 
vt 0.697783 0.440622 
vt 0.697783 0.067925 
vt 0.325086 0.440622 
vt 0.081292 0.582086 
vt 0.453989 0.954783 
vt 0.453989 0.582086 
vt 0.081292 0.954783 
vt 0.081292 0.582086 
vt 0.453989 0.954783 
vt 0.453989 0.582086 
vt 0.081292 0.954783 
vt 0.081292 0.582086 
vt 0.453989 0.954783 
vt 0.453989 0.582086 
vt 0.081292 0.954783 
vt 0.333793 0.072282 
vt 0.70649 0.444979 
vt 0.70649 0.072282 
vt 0.333793 0.444979 
vt 0.076939 0.551585 
vt 0.449635 0.924282 
vt 0.449635 0.551585 
vt 0.076939 0.924282 
vt 0.072585 0.582086 
vt 0.445282 0.954783 
vt 0.445282 0.582086 
vt 0.072585 0.954783 
vt 0.303319 0.063568 
vt 0.676015 0.436264 
vt 0.676015 0.063568 
vt 0.303319 0.436264 
vt 0.303319 0.063568 
vt 0.676015 0.436264 
vt 0.676015 0.063568 
vt 0.303319 0.436264 
vt 0.303319 0.063568 
vt 0.676015 0.436264 
vt 0.676015 0.063568 
vt 0.303319 0.436264 
vt 0.560173 0.551585 
vt 0.93287 0.924282 
vt 0.93287 0.551585 
vt 0.560173 0.924282 
vt 0.560173 0.551585 
vt 0.93287 0.924282 
vt 0.93287 0.551585 
vt 0.560173 0.924282 
vt 0.560173 0.551585 
vt 0.93287 0.924282 
vt 0.93287 0.551585 
vt 0.560173 0.924282 
vt 0.303319 0.072282 
vt 0.676015 0.444979 
vt 0.676015 0.072282 
vt 0.303319 0.444979 
vt 0.303319 0.072282 
vt 0.676015 0.444979 
vt 0.676015 0.072282 
vt 0.303319 0.444979 
vt 0.303319 0.072282 
vt 0.676015 0.444979 
vt 0.676015 0.072282 
vt 0.303319 0.444979 
vt 0.303319 0.072282 
vt 0.676015 0.444979 
vt 0.676015 0.072282 
vt 0.303319 0.444979 
vt 0.560173 0.551585 
vt 0.93287 0.924282 
vt 0.93287 0.551585 
vt 0.560173 0.924282 
vt 0.551466 0.590801 
vt 0.924163 0.963497 
vt 0.551466 0.963497 
vt 0.924163 0.590801 
vt 0.551466 0.590801 
vt 0.924163 0.963497 
vt 0.551466 0.963497 
vt 0.924163 0.590801 
vt 0.551466 0.590801 
vt 0.924163 0.963497 
vt 0.551466 0.963497 
vt 0.924163 0.590801 
vt 0.551466 0.590801 
vt 0.924163 0.963497 
vt 0.551466 0.963497 
vt 0.924163 0.590801 
vt 0.551466 0.590801 
vt 0.924163 0.963497 
vt 0.551466 0.963497 
vt 0.924163 0.590801 
vt 0.551466 0.590801 
vt 0.924163 0.963497 
vt 0.551466 0.963497 
vt 0.924163 0.590801 
vt 0.081292 0.590801 
vt 0.453989 0.963497 
vt 0.081292 0.963497 
vt 0.453989 0.590801 
vt 0.081292 0.590801 
vt 0.453989 0.963497 
vt 0.081292 0.963497 
vt 0.453989 0.590801 
vt 0.560173 0.590801 
vt 0.93287 0.963497 
vt 0.560173 0.963497 
vt 0.93287 0.590801 
vt 0.072585 0.590801 
vt 0.445282 0.963497 
vt 0.072585 0.963497 
vt 0.445282 0.590801 
vt 0.072585 0.590801 
vt 0.445282 0.963497 
vt 0.072585 0.963497 
vt 0.445282 0.590801 
vt 0.551466 0.590801 
vt 0.924163 0.963497 
vt 0.551466 0.963497 
vt 0.924163 0.590801 
vt 0.560173 0.590801 
vt 0.93287 0.963497 
vt 0.560173 0.963497 
vt 0.93287 0.590801 
vt 0.560173 0.590801 
vt 0.93287 0.963497 
vt 0.560173 0.963497 
vt 0.93287 0.590801 
vt 0.303319 0.072282 
vt 0.676015 0.444979 
vt 0.303319 0.444979 
vt 0.676015 0.072282 
vt 0.303319 0.072282 
vt 0.676015 0.444979 
vt 0.303319 0.444979 
vt 0.676015 0.072282 
vt 0.081292 0.582086 
vt 0.453989 0.954783 
vt 0.081292 0.954783 
vt 0.453989 0.582086 
vt 0.081292 0.582086 
vt 0.453989 0.954783 
vt 0.081292 0.954783 
vt 0.453989 0.582086 
vt 0.081292 0.582086 
vt 0.453989 0.954783 
vt 0.081292 0.954783 
vt 0.453989 0.582086 
vt 0.325086 0.067925 
vt 0.697783 0.440622 
vt 0.325086 0.440622 
vt 0.697783 0.067925 
vt 0.081292 0.582086 
vt 0.453989 0.954783 
vt 0.081292 0.954783 
vt 0.453989 0.582086 
vt 0.081292 0.582086 
vt 0.453989 0.954783 
vt 0.081292 0.954783 
vt 0.453989 0.582086 
vt 0.081292 0.582086 
vt 0.453989 0.954783 
vt 0.081292 0.954783 
vt 0.453989 0.582086 
vt 0.333793 0.072282 
vt 0.70649 0.444979 
vt 0.333793 0.444979 
vt 0.70649 0.072282 
vt 0.076939 0.551585 
vt 0.449635 0.924282 
vt 0.076939 0.924282 
vt 0.449635 0.551585 
vt 0.072585 0.582086 
vt 0.445282 0.954783 
vt 0.072585 0.954783 
vt 0.445282 0.582086 
vt 0.303319 0.063568 
vt 0.676015 0.436264 
vt 0.303319 0.436264 
vt 0.676015 0.063568 
vt 0.303319 0.063568 
vt 0.676015 0.436264 
vt 0.303319 0.436264 
vt 0.676015 0.063568 
vt 0.303319 0.063568 
vt 0.676015 0.436264 
vt 0.303319 0.436264 
vt 0.676015 0.063568 
vt 0.560173 0.551585 
vt 0.93287 0.924282 
vt 0.560173 0.924282 
vt 0.93287 0.551585 
vt 0.560173 0.551585 
vt 0.93287 0.924282 
vt 0.560173 0.924282 
vt 0.93287 0.551585 
vt 0.560173 0.551585 
vt 0.93287 0.924282 
vt 0.560173 0.924282 
vt 0.93287 0.551585 
vt 0.303319 0.072282 
vt 0.676015 0.444979 
vt 0.303319 0.444979 
vt 0.676015 0.072282 
vt 0.303319 0.072282 
vt 0.676015 0.444979 
vt 0.303319 0.444979 
vt 0.676015 0.072282 
vt 0.560173 0.551585 
vt 0.93287 0.924282 
vt 0.560173 0.924282 
vt 0.93287 0.551585 
vt 0.924163 0.590801 
vt 0.924163 0.963497 
vt 0.924163 0.590801 
vt 0.93287 0.590801 
vt 0.93287 0.963497 
vt 0.93287 0.590801 
vt 0.93287 0.963497 
vt 0.684722 0.085354 
vt 0.684722 0.458051 
vt 0.684722 0.085354 
vt 0.684722 0.458051 
vt 0.93287 0.551585 
vt 0.93287 0.924282 
vt 0.93287 0.551585 
vt 0.93287 0.924282 
vt 0.93287 0.551585 
vt 0.93287 0.924282 
vt 0.93287 0.551585 
vt 0.93287 0.924282 
vt 0.462696 0.551585 
vt 0.462696 0.924282 
vt 0.462696 0.551585 
vt 0.462696 0.924282 
vt 0.924163 0.963497 
vt 0.924163 0.963497 
vt 0.924163 0.590801 
vt 0.312026 0.458051 
vt 0.684722 0.458051 
vt 0.684722 0.458051 
vt 0.312026 0.458051 
vt 0.551466 0.590801 
vt 0.551466 0.963497 
vt 0.551466 0.963497 
vt 0.551466 0.590801 
vt 0.303319 0.072282 
vt 0.676015 0.444979 
vt 0.676015 0.072282 
vt 0.303319 0.444979 
vt 0.303319 0.072282 
vt 0.676015 0.444979 
vt 0.676015 0.072282 
vt 0.303319 0.444979 
vt 0.303319 0.072282 
vt 0.676015 0.444979 
vt 0.676015 0.072282 
vt 0.303319 0.444979 
vt 0.303319 0.072282 
vt 0.676015 0.444979 
vt 0.676015 0.072282 
vt 0.303319 0.444979 
vt 0.081292 0.590801 
vt 0.453989 0.963497 
vt 0.453989 0.590801 
vt 0.081292 0.963497 
vt 0.081292 0.590801 
vt 0.453989 0.963497 
vt 0.453989 0.590801 
vt 0.081292 0.963497 
vt 0.081292 0.590801 
vt 0.453989 0.963497 
vt 0.453989 0.590801 
vt 0.081292 0.963497 
vt 0.081292 0.590801 
vt 0.453989 0.963497 
vt 0.453989 0.590801 
vt 0.081292 0.963497 
vt 0.312026 0.085354 
vt 0.684722 0.458051 
vt 0.684722 0.085354 
vt 0.312026 0.458051 
vt 0.312026 0.085354 
vt 0.684722 0.458051 
vt 0.684722 0.085354 
vt 0.312026 0.458051 
vt 0.312026 0.085354 
vt 0.684722 0.458051 
vt 0.684722 0.085354 
vt 0.312026 0.458051 
vt 0.312026 0.085354 
vt 0.684722 0.458051 
vt 0.684722 0.085354 
vt 0.312026 0.458051 
vt 0.312026 0.085354 
vt 0.684722 0.458051 
vt 0.684722 0.085354 
vt 0.312026 0.458051 
vt 0.312026 0.085354 
vt 0.684722 0.458051 
vt 0.684722 0.085354 
vt 0.312026 0.458051 
vt 0.312026 0.085354 
vt 0.684722 0.458051 
vt 0.684722 0.085354 
vt 0.312026 0.458051 
vt 0.312026 0.085354 
vt 0.684722 0.458051 
vt 0.684722 0.085354 
vt 0.312026 0.458051 
vt 0.312026 0.085354 
vt 0.684722 0.458051 
vt 0.684722 0.085354 
vt 0.312026 0.458051 
vt 0.081292 0.582086 
vt 0.453989 0.954783 
vt 0.453989 0.582086 
vt 0.081292 0.954783 
vt 0.081292 0.582086 
vt 0.453989 0.954783 
vt 0.453989 0.582086 
vt 0.081292 0.954783 
vt 0.081292 0.582086 
vt 0.453989 0.954783 
vt 0.453989 0.582086 
vt 0.081292 0.954783 
vt 0.081292 0.582086 
vt 0.453989 0.954783 
vt 0.453989 0.582086 
vt 0.081292 0.954783 
vt 0.303319 0.063568 
vt 0.676015 0.436264 
vt 0.676015 0.063568 
vt 0.303319 0.436264 
vt 0.303319 0.072282 
vt 0.676015 0.444979 
vt 0.303319 0.444979 
vt 0.676015 0.072282 
vt 0.303319 0.072282 
vt 0.676015 0.444979 
vt 0.303319 0.444979 
vt 0.676015 0.072282 
vt 0.303319 0.072282 
vt 0.676015 0.444979 
vt 0.303319 0.444979 
vt 0.676015 0.072282 
vt 0.303319 0.072282 
vt 0.676015 0.444979 
vt 0.303319 0.444979 
vt 0.676015 0.072282 
vt 0.081292 0.590801 
vt 0.453989 0.963497 
vt 0.081292 0.963497 
vt 0.453989 0.590801 
vt 0.081292 0.590801 
vt 0.453989 0.963497 
vt 0.081292 0.963497 
vt 0.453989 0.590801 
vt 0.312026 0.085354 
vt 0.684722 0.458051 
vt 0.312026 0.458051 
vt 0.684722 0.085354 
vt 0.312026 0.085354 
vt 0.684722 0.458051 
vt 0.312026 0.458051 
vt 0.684722 0.085354 
vt 0.312026 0.085354 
vt 0.684722 0.458051 
vt 0.312026 0.458051 
vt 0.684722 0.085354 
vt 0.312026 0.085354 
vt 0.684722 0.458051 
vt 0.312026 0.458051 
vt 0.684722 0.085354 
vt 0.312026 0.085354 
vt 0.684722 0.458051 
vt 0.312026 0.458051 
vt 0.684722 0.085354 
vt 0.312026 0.085354 
vt 0.684722 0.458051 
vt 0.312026 0.458051 
vt 0.684722 0.085354 
vt 0.312026 0.085354 
vt 0.684722 0.458051 
vt 0.312026 0.458051 
vt 0.684722 0.085354 
vt 0.312026 0.085354 
vt 0.684722 0.458051 
vt 0.312026 0.458051 
vt 0.684722 0.085354 
vt 0.312026 0.085354 
vt 0.684722 0.458051 
vt 0.312026 0.458051 
vt 0.684722 0.085354 
vt 0.081292 0.582086 
vt 0.453989 0.954783 
vt 0.081292 0.954783 
vt 0.453989 0.582086 
vt 0.081292 0.582086 
vt 0.453989 0.954783 
vt 0.081292 0.954783 
vt 0.453989 0.582086 
vt 0.081292 0.582086 
vt 0.453989 0.954783 
vt 0.081292 0.954783 
vt 0.453989 0.582086 
vt 0.081292 0.582086 
vt 0.453989 0.954783 
vt 0.081292 0.954783 
vt 0.453989 0.582086 
vt 0.303319 0.063568 
vt 0.676015 0.436264 
vt 0.303319 0.436264 
vt 0.676015 0.063568 
vt 0.089999 0.551585 
vt 0.462696 0.924282 
vt 0.089999 0.924282 
vt 0.462696 0.551585 
vt 0.560173 0.963497 
vt 0.93287 0.963497 
vt 0.93287 0.963497 
vt 0.560173 0.963497 
vt 0.312026 0.458051 
vt 0.684722 0.458051 
vt 0.684722 0.458051 
vt 0.312026 0.458051 
vt 0.312026 0.458051 
vt 0.684722 0.458051 
vt 0.684722 0.458051 
vt 0.312026 0.458051 
vt 0.551466 0.963497 
vt 0.924163 0.963497 
vt 0.924163 0.963497 
vt 0.551466 0.963497 
vt 0.312026 0.458051 
vt 0.684722 0.458051 
vt 0.684722 0.458051 
vt 0.312026 0.458051 
vt 0.312026 0.458051 
vt 0.684722 0.458051 
vt 0.684722 0.458051 
vt 0.312026 0.458051 
vt 0.551466 0.590801 
vt 0.551466 0.963497 
vt 0.551466 0.963497 
vt 0.551466 0.590801 
vt 0.072585 0.590801 
vt 0.072585 0.963497 
vt 0.072585 0.963497 
vt 0.072585 0.590801 
vt 0.560173 0.590801 
vt 0.560173 0.963497 
vt 0.560173 0.963497 
vt 0.560173 0.590801 
vt 0.312026 0.085354 
vt 0.312026 0.458051 
vt 0.312026 0.458051 
vt 0.312026 0.085354 
vt 0.290258 0.054853 
vt 0.290258 0.42755 
vt 0.290258 0.42755 
vt 0.290258 0.054853 
vt 0.333793 0.072282 
vt 0.333793 0.444979 
vt 0.333793 0.444979 
vt 0.333793 0.072282 
vt 0.303319 0.072282 
vt 0.676015 0.444979 
vt 0.676015 0.072282 
vt 0.303319 0.444979 
vt 0.303319 0.072282 
vt 0.676015 0.444979 
vt 0.676015 0.072282 
vt 0.303319 0.444979 
vt 0.303319 0.072282 
vt 0.676015 0.444979 
vt 0.303319 0.444979 
vt 0.676015 0.072282 
vt 0.924163 0.590801 
vt 0.924163 0.963497 
vt 0.924163 0.590801 
vt 0.924163 0.963497 
vt 0.93287 0.590801 
vt 0.93287 0.963497 
vt 0.93287 0.590801 
vt 0.93287 0.963497 
vt 0.676015 0.063568 
vt 0.676015 0.436264 
vt 0.676015 0.063568 
vt 0.676015 0.436264 
vt 0.676015 0.063568 
vt 0.676015 0.436264 
vt 0.676015 0.063568 
vt 0.676015 0.436264 
vt 0.081292 0.582086 
vt 0.453989 0.582086 
vt 0.081292 0.582086 
vt 0.453989 0.582086 
vt 0.081292 0.582086 
vt 0.453989 0.582086 
vt 0.081292 0.582086 
vt 0.453989 0.582086 
vt 0.551466 0.963497 
vt 0.924163 0.963497 
vt 0.924163 0.963497 
vt 0.551466 0.963497 
vt 0.560173 0.963497 
vt 0.93287 0.963497 
vt 0.93287 0.963497 
vt 0.560173 0.963497 
vt 0.081292 0.963497 
vt 0.453989 0.963497 
vt 0.453989 0.963497 
vt 0.081292 0.963497 
vt 0.303319 0.072282 
vt 0.303319 0.444979 
vt 0.303319 0.444979 
vt 0.303319 0.072282 
vt 0.303319 0.444979 
vt 0.303319 0.072282 
vt 0.303319 0.072282 
vt 0.303319 0.444979 
vt 0.303319 0.444979 
vt 0.303319 0.072282 
vt 0.303319 0.444979 
vt 0.303319 0.072282 
vt 0.560173 0.590801 
vt 0.560173 0.963497 
vt 0.560173 0.963497 
vt 0.560173 0.590801 
vt 0.312026 0.085354 
vt 0.312026 0.458051 
vt 0.312026 0.458051 
vt 0.312026 0.085354 
vt 0.312026 0.085354 
vt 0.312026 0.458051 
vt 0.312026 0.458051 
vt 0.312026 0.085354 
vt 0.325086 0.067925 
vt 0.325086 0.440622 
vt 0.325086 0.440622 
vt 0.325086 0.067925 
vt 0.081292 0.582086 
vt 0.081292 0.954783 
vt 0.081292 0.954783 
vt 0.081292 0.582086 
vt 0.081292 0.582086 
vt 0.081292 0.954783 
vt 0.081292 0.954783 
vt 0.081292 0.582086 
vt 0.303319 0.072282 
vt 0.303319 0.444979 
vt 0.303319 0.444979 
vt 0.303319 0.072282 
vt 0.303319 0.072282 
vt 0.303319 0.444979 
vt 0.303319 0.444979 
vt 0.303319 0.072282 
vt 0.676015 0.072282 
vt 0.676015 0.444979 
vt 0.676015 0.072282 
vt 0.676015 0.444979 
vt 0.676015 0.444979 
vt 0.676015 0.072282 
vt 0.676015 0.072282 
vt 0.676015 0.444979 
vt 0.676015 0.072282 
vt 0.676015 0.444979 
vt 0.676015 0.444979 
vt 0.676015 0.072282 
vt 0.676015 0.063568 
vt 0.676015 0.436264 
vt 0.676015 0.063568 
vt 0.676015 0.436264 
vt 0.676015 0.072282 
vt 0.676015 0.444979 
vt 0.676015 0.072282 
vt 0.676015 0.444979 
vt 0.676015 0.072282 
vt 0.676015 0.444979 
vt 0.676015 0.072282 
vt 0.676015 0.444979 
vt 0.081292 0.582086 
vt 0.453989 0.582086 
vt 0.081292 0.582086 
vt 0.453989 0.582086 
vt 0.290258 0.054853 
vt 0.662955 0.054853 
vt 0.290258 0.054853 
vt 0.662955 0.054853 
vt 0.325086 0.067925 
vt 0.697783 0.067925 
vt 0.325086 0.067925 
vt 0.697783 0.067925 
vt 0.303319 0.063568 
vt 0.676015 0.063568 
vt 0.303319 0.063568 
vt 0.676015 0.063568 
vt 0.303319 0.063568 
vt 0.676015 0.063568 
vt 0.303319 0.063568 
vt 0.676015 0.063568 
vt 0.551466 0.963497 
vt 0.924163 0.963497 
vt 0.924163 0.963497 
vt 0.551466 0.963497 
vt 0.081292 0.963497 
vt 0.453989 0.963497 
vt 0.453989 0.963497 
vt 0.081292 0.963497 
vt 0.081292 0.963497 
vt 0.453989 0.963497 
vt 0.453989 0.963497 
vt 0.081292 0.963497 
vt 0.081292 0.590801 
vt 0.081292 0.963497 
vt 0.081292 0.963497 
vt 0.081292 0.590801 
vt 0.081292 0.582086 
vt 0.081292 0.954783 
vt 0.081292 0.954783 
vt 0.081292 0.582086 
vt 0.081292 0.582086 
vt 0.081292 0.954783 
vt 0.081292 0.954783 
vt 0.081292 0.582086 
vt 0.081292 0.582086 
vt 0.453989 0.582086 
vt 0.081292 0.582086 
vt 0.453989 0.582086 
vt 0.072585 0.582086 
vt 0.445282 0.582086 
vt 0.072585 0.582086 
vt 0.445282 0.582086 
vt 0.303319 0.063568 
vt 0.676015 0.063568 
vt 0.303319 0.063568 
vt 0.676015 0.063568 
vt 0.303319 0.063568 
vt 0.676015 0.063568 
vt 0.303319 0.063568 
vt 0.676015 0.063568 
vt 0.303319 0.063568 
vt 0.676015 0.063568 
vt 0.303319 0.063568 
vt 0.676015 0.063568 
vt 0.551466 0.963497 
vt 0.924163 0.963497 
vt 0.924163 0.963497 
vt 0.551466 0.963497 
vt 0.081292 0.590801 
vt 0.081292 0.963497 
vt 0.081292 0.963497 
vt 0.081292 0.590801 
vt 0.325086 0.067925 
vt 0.325086 0.440622 
vt 0.325086 0.440622 
vt 0.325086 0.067925 
vt 0.081292 0.582086 
vt 0.081292 0.954783 
vt 0.081292 0.954783 
vt 0.081292 0.582086 
vt 0.560173 0.551585 
vt 0.560173 0.924282 
vt 0.560173 0.924282 
vt 0.560173 0.551585 
vt 0.081292 0.582086 
vt 0.081292 0.954783 
vt 0.081292 0.954783 
vt 0.081292 0.582086 
vt 0.303319 0.063568 
vt 0.676015 0.063568 
vt 0.303319 0.063568 
vt 0.676015 0.063568 
vt 0.303319 0.444979 
vt 0.676015 0.444979 
vt 0.676015 0.444979 
vt 0.303319 0.444979 
vt 0.303319 0.444979 
vt 0.676015 0.444979 
vt 0.303319 0.444979 
vt 0.303319 0.444979 
vt 0.676015 0.444979 
vt 0.676015 0.444979 
vt 0.303319 0.444979 
vt 0.676015 0.444979 
vt 0.676015 0.444979 
vt 0.303319 0.444979 
vt 0.560173 0.551585 
vt 0.93287 0.551585 
vt 0.560173 0.551585 
vt 0.93287 0.551585 
vt 0.560173 0.551585 
vt 0.93287 0.551585 
vt 0.560173 0.551585 
vt 0.93287 0.551585 
vt 0.303319 0.444979 
vt 0.676015 0.444979 
vt 0.676015 0.444979 
vt 0.303319 0.444979 
vt 0.303319 0.444979 
vt 0.303319 0.444979 
vt 0.676015 0.444979 
vt 0.303319 0.444979 
vt 0.676015 0.444979 
vt 0.303319 0.444979 
vt 0.303319 0.444979 
vt 0.676015 0.444979 
vt 0.676015 0.444979 
vt 0.303319 0.444979 
vt 0.676015 0.444979 
vt 0.303319 0.444979 
vt 0.676015 0.444979 
vt 0.676015 0.444979 
vt 0.676015 0.444979 
vt 0.303319 0.444979 

usemtl Default1Mtl

f 1/1/1 2/2/2 3/3/3 
f 4/4/4 2/2/2 1/1/1 
f 5/5/5 6/6/6 7/7/7 
f 8/8/8 6/6/6 5/5/5 
f 9/9/9 10/10/10 11/11/11 
f 12/12/12 10/10/10 9/9/9 
f 13/13/13 14/14/14 15/15/15 
f 16/16/16 14/14/14 13/13/13 
f 17/17/17 18/18/18 19/19/19 
f 20/20/20 18/18/18 17/17/17 
f 18/18/18 21/21/21 22/22/22 
f 22/22/22 21/21/21 23/23/23 
f 24/24/24 20/20/20 25/25/25 
f 26/26/26 20/20/20 24/24/24 
f 27/27/27 28/28/28 29/29/29 
f 30/30/30 28/28/28 27/27/27 
f 31/31/31 32/32/32 29/29/29 
f 29/29/29 32/32/32 33/33/33 
f 34/34/34 35/35/35 27/27/27 
f 36/36/36 35/35/35 34/34/34 
f 37/37/37 38/38/38 39/39/39 
f 40/40/40 38/38/38 37/37/37 
f 41/41/41 42/42/42 43/43/43 
f 44/44/44 42/42/42 41/41/41 
f 45/45/45 46/46/46 47/47/47 
f 48/48/48 46/46/46 45/45/45 
f 49/49/49 50/50/50 51/51/51 
f 52/52/52 50/50/50 49/49/49 
f 53/53/53 54/54/54 55/55/55 
f 56/56/56 54/54/54 53/53/53 
f 57/57/57 58/58/58 59/59/59 
f 60/60/60 58/58/58 57/57/57 
f 61/61/61 62/62/62 63/63/63 
f 64/64/64 62/62/62 61/61/61 
f 65/65/65 66/66/66 67/67/67 
f 68/68/68 66/66/66 65/65/65 
f 69/69/69 70/70/70 71/71/71 
f 72/72/72 70/70/70 69/69/69 
f 73/73/73 74/74/74 75/75/75 
f 76/76/76 74/74/74 73/73/73 
f 77/77/77 78/78/78 79/79/79 
f 80/80/80 78/78/78 77/77/77 
f 81/81/81 82/82/82 83/83/83 
f 84/84/84 82/82/82 81/81/81 
f 85/85/85 86/86/86 87/87/87 
f 88/88/88 86/86/86 85/85/85 
f 89/89/89 90/90/90 91/91/91 
f 92/92/92 90/90/90 89/89/89 
f 93/93/93 94/94/94 95/95/95 
f 96/96/96 94/94/94 93/93/93 
f 97/97/97 98/98/98 99/99/99 
f 100/100/100 98/98/98 97/97/97 
f 101/101/101 102/102/102 103/103/103 
f 104/104/104 102/102/102 101/101/101 
f 105/105/105 106/106/106 107/107/107 
f 108/108/108 106/106/106 105/105/105 
f 109/109/109 110/110/110 111/111/111 
f 112/112/112 110/110/110 109/109/109 
f 113/113/113 114/114/114 115/115/115 
f 116/116/116 114/114/114 113/113/113 
f 117/117/117 118/118/118 119/119/119 
f 120/120/120 118/118/118 117/117/117 
f 121/121/121 122/122/122 123/123/123 
f 124/124/124 122/122/122 121/121/121 
f 125/125/125 126/126/126 127/127/127 
f 128/128/128 126/126/126 125/125/125 
f 129/129/129 130/130/130 131/131/131 
f 132/132/132 130/130/130 129/129/129 
f 133/133/133 134/134/134 135/135/135 
f 136/136/136 134/134/134 133/133/133 
f 137/137/137 138/138/138 139/139/139 
f 140/140/140 138/138/138 137/137/137 
f 141/141/141 142/142/142 143/143/143 
f 144/144/144 142/142/142 141/141/141 
f 145/145/145 146/146/146 147/147/147 
f 148/148/148 146/146/146 145/145/145 
f 149/149/149 150/150/150 151/151/151 
f 152/152/152 150/150/150 149/149/149 
f 153/153/153 154/154/154 155/155/155 
f 156/156/156 154/154/154 153/153/153 
f 157/157/157 158/158/158 159/159/159 
f 160/160/160 158/158/158 157/157/157 
f 161/161/161 162/162/162 163/163/163 
f 164/164/164 162/162/162 161/161/161 
f 165/165/165 166/166/166 167/167/167 
f 168/168/168 166/166/166 165/165/165 
f 169/169/169 170/170/170 171/171/171 
f 172/172/172 170/170/170 169/169/169 
f 173/173/173 174/174/174 175/175/175 
f 176/176/176 174/174/174 173/173/173 
f 177/177/177 178/178/178 179/179/179 
f 180/180/180 178/178/178 177/177/177 
f 181/181/181 182/182/182 183/183/183 
f 184/184/184 182/182/182 181/181/181 
f 185/185/185 186/186/186 187/187/187 
f 188/188/188 186/186/186 185/185/185 
f 189/189/189 190/190/190 191/191/191 
f 192/192/192 190/190/190 189/189/189 
f 193/193/193 194/194/194 195/195/195 
f 196/196/196 194/194/194 193/193/193 
f 197/197/197 198/198/198 199/199/199 
f 200/200/200 198/198/198 197/197/197 
f 201/201/201 202/202/202 203/203/203 
f 204/204/204 202/202/202 201/201/201 
f 205/205/205 206/206/206 207/207/207 
f 208/208/208 206/206/206 205/205/205 
f 209/209/209 210/210/210 211/211/211 
f 212/212/212 210/210/210 209/209/209 
f 213/213/213 214/214/214 215/215/215 
f 216/216/216 214/214/214 213/213/213 
f 217/217/217 218/218/218 219/219/219 
f 220/220/220 218/218/218 217/217/217 
f 221/221/221 222/222/222 223/223/223 
f 224/224/224 222/222/222 221/221/221 
f 225/225/225 226/226/226 227/227/227 
f 228/228/228 226/226/226 225/225/225 
f 229/229/229 230/230/230 231/231/231 
f 232/232/232 230/230/230 229/229/229 
f 233/233/233 234/234/234 235/235/235 
f 236/236/236 234/234/234 233/233/233 
f 237/237/237 238/238/238 239/239/239 
f 240/240/240 238/238/238 237/237/237 
f 241/241/241 242/242/242 243/243/243 
f 244/244/244 242/242/242 241/241/241 
f 245/245/245 246/246/246 247/247/247 
f 248/248/248 246/246/246 245/245/245 
f 249/249/249 250/250/250 251/251/251 
f 252/252/252 250/250/250 249/249/249 
f 253/253/253 254/254/254 255/255/255 
f 256/256/256 254/254/254 253/253/253 
f 257/257/257 258/258/258 259/259/259 
f 260/260/260 258/258/258 257/257/257 
f 261/261/261 262/262/262 263/263/263 
f 264/264/264 262/262/262 261/261/261 
f 265/265/265 266/266/266 267/267/267 
f 268/268/268 266/266/266 265/265/265 
f 269/269/269 270/270/270 271/271/271 
f 272/272/272 270/270/270 269/269/269 
f 273/273/273 274/274/274 275/275/275 
f 276/276/276 274/274/274 273/273/273 
f 277/277/277 278/278/278 279/279/279 
f 280/280/280 278/278/278 277/277/277 
f 281/281/281 282/282/282 283/283/283 
f 284/284/284 282/282/282 281/281/281 
f 285/285/285 286/286/286 287/287/287 
f 288/288/288 286/286/286 285/285/285 
f 289/289/289 290/290/290 291/291/291 
f 292/292/292 290/290/290 289/289/289 
f 293/293/293 294/294/294 295/295/295 
f 296/296/296 294/294/294 293/293/293 
f 297/297/297 298/298/298 299/299/299 
f 300/300/300 298/298/298 297/297/297 
f 301/301/301 302/302/302 303/303/303 
f 304/304/304 302/302/302 301/301/301 
f 305/305/305 306/306/306 307/307/307 
f 308/308/308 306/306/306 305/305/305 
f 309/309/309 310/310/310 311/311/311 
f 312/312/312 310/310/310 309/309/309 
f 313/313/313 314/314/314 315/315/315 
f 316/316/316 314/314/314 313/313/313 
f 317/317/317 318/318/318 319/319/319 
f 320/320/320 318/318/318 317/317/317 
f 321/321/321 322/322/322 323/323/323 
f 324/324/324 322/322/322 321/321/321 
f 325/325/325 326/326/326 327/327/327 
f 328/328/328 326/326/326 325/325/325 
f 329/329/329 330/330/330 331/331/331 
f 332/332/332 330/330/330 329/329/329 
f 333/333/333 334/334/334 335/335/335 
f 336/336/336 334/334/334 333/333/333 
f 337/337/337 338/338/338 339/339/339 
f 340/340/340 338/338/338 337/337/337 
f 341/341/341 342/342/342 343/343/343 
f 344/344/344 342/342/342 341/341/341 
f 345/345/345 346/346/346 347/347/347 
f 348/348/348 346/346/346 345/345/345 
f 349/349/349 350/350/350 351/351/351 
f 352/352/352 350/350/350 349/349/349 
f 353/353/353 354/354/354 355/355/355 
f 356/356/356 354/354/354 353/353/353 
f 357/357/357 358/358/358 359/359/359 
f 360/360/360 358/358/358 357/357/357 
f 361/361/361 362/362/362 363/363/363 
f 364/364/364 362/362/362 361/361/361 
f 365/365/365 366/366/366 367/367/367 
f 368/368/368 366/366/366 365/365/365 
f 369/369/369 370/370/370 371/371/371 
f 372/372/372 370/370/370 369/369/369 
f 373/373/373 374/374/374 375/375/375 
f 376/376/376 374/374/374 373/373/373 
f 377/377/377 378/378/378 379/379/379 
f 380/380/380 378/378/378 377/377/377 
f 381/381/381 382/382/382 383/383/383 
f 384/384/384 382/382/382 381/381/381 
f 385/385/385 386/386/386 387/387/387 
f 388/388/388 386/386/386 385/385/385 
f 389/389/389 390/390/390 391/391/391 
f 392/392/392 390/390/390 389/389/389 
f 393/393/393 394/394/394 395/395/395 
f 396/396/396 394/394/394 393/393/393 
f 397/397/397 398/398/398 399/399/399 
f 400/400/400 398/398/398 397/397/397 
f 401/401/401 402/402/402 403/403/403 
f 404/404/404 402/402/402 401/401/401 
f 405/405/405 406/406/406 407/407/407 
f 408/408/408 409/409/409 410/410/410 
f 411/411/411 409/409/409 408/408/408 
f 412/412/412 413/413/413 414/414/414 
f 415/415/415 413/413/413 412/412/412 
f 416/416/416 417/417/417 418/418/418 
f 419/419/419 417/417/417 416/416/416 
f 420/420/420 421/421/421 422/422/422 
f 423/423/423 421/421/421 420/420/420 
f 424/424/424 425/425/425 426/426/426 
f 427/427/427 428/428/428 429/429/429 
f 430/430/430 428/428/428 427/427/427 
f 431/431/431 432/432/432 433/433/433 
f 434/434/434 432/432/432 431/431/431 
f 435/435/435 436/436/436 437/437/437 
f 438/438/438 436/436/436 435/435/435 
f 439/439/439 440/440/440 441/441/441 
f 442/442/442 440/440/440 439/439/439 
f 443/443/443 444/444/444 445/445/445 
f 446/446/446 444/444/444 443/443/443 
f 447/447/447 448/448/448 449/449/449 
f 450/450/450 448/448/448 447/447/447 
f 451/451/451 452/452/452 453/453/453 
f 454/454/454 452/452/452 451/451/451 
f 455/455/455 456/456/456 457/457/457 
f 458/458/458 456/456/456 455/455/455 
f 459/459/459 460/460/460 461/461/461 
f 462/462/462 460/460/460 459/459/459 
f 463/463/463 464/464/464 465/465/465 
f 466/466/466 464/464/464 463/463/463 
f 467/467/467 468/468/468 469/469/469 
f 470/470/470 468/468/468 467/467/467 
f 471/471/471 472/472/472 473/473/473 
f 474/474/474 472/472/472 471/471/471 
f 475/475/475 476/476/476 477/477/477 
f 478/478/478 476/476/476 475/475/475 
f 479/479/479 480/480/480 481/481/481 
f 482/482/482 480/480/480 479/479/479 
f 483/483/483 484/484/484 485/485/485 
f 486/486/486 484/484/484 483/483/483 
f 487/487/487 488/488/488 489/489/489 
f 490/490/490 488/488/488 487/487/487 
f 491/491/491 492/492/492 493/493/493 
f 494/494/494 492/492/492 491/491/491 
f 495/495/495 496/496/496 497/497/497 
f 498/498/498 496/496/496 495/495/495 
f 499/499/499 500/500/500 501/501/501 
f 502/502/502 500/500/500 499/499/499 
f 503/503/503 504/504/504 505/505/505 
f 506/506/506 504/504/504 503/503/503 
f 507/507/507 508/508/508 509/509/509 
f 510/510/510 508/508/508 507/507/507 
f 511/511/511 512/512/512 513/513/513 
f 514/514/514 512/512/512 511/511/511 
f 515/515/515 516/516/516 517/517/517 
f 518/518/518 516/516/516 515/515/515 
f 519/519/519 520/520/520 521/521/521 
f 522/522/522 520/520/520 519/519/519 
f 523/523/523 524/524/524 525/525/525 
f 526/526/526 524/524/524 523/523/523 
f 527/527/527 528/528/528 529/529/529 
f 530/530/530 528/528/528 527/527/527 
f 531/531/531 532/532/532 533/533/533 
f 534/534/534 532/532/532 531/531/531 
f 535/535/535 536/536/536 537/537/537 
f 538/538/538 536/536/536 535/535/535 
f 539/539/539 540/540/540 541/541/541 
f 542/542/542 540/540/540 539/539/539 
f 543/543/543 544/544/544 545/545/545 
f 546/546/546 544/544/544 543/543/543 
f 547/547/547 548/548/548 549/549/549 
f 550/550/550 548/548/548 547/547/547 
f 551/551/551 552/552/552 553/553/553 
f 554/554/554 552/552/552 551/551/551 
f 555/555/555 556/556/556 557/557/557 
f 558/558/558 556/556/556 555/555/555 
f 559/559/559 560/560/560 561/561/561 
f 562/562/562 560/560/560 559/559/559 
f 563/563/563 564/564/564 565/565/565 
f 566/566/566 564/564/564 563/563/563 
f 567/567/567 568/568/568 569/569/569 
f 570/570/570 568/568/568 567/567/567 
f 571/571/571 572/572/572 573/573/573 
f 574/574/574 572/572/572 571/571/571 
f 575/575/575 576/576/576 577/577/577 
f 578/578/578 576/576/576 575/575/575 
f 579/579/579 580/580/580 581/581/581 
f 582/582/582 580/580/580 579/579/579 
f 583/583/583 584/584/584 585/585/585 
f 586/586/586 584/584/584 583/583/583 
f 587/587/587 588/588/588 589/589/589 
f 590/590/590 588/588/588 587/587/587 
f 591/591/591 592/592/592 593/593/593 
f 594/594/594 592/592/592 591/591/591 
f 595/595/595 596/596/596 597/597/597 
f 598/598/598 596/596/596 595/595/595 
f 599/599/599 600/600/600 601/601/601 
f 602/602/602 600/600/600 599/599/599 
f 603/603/603 604/604/604 605/605/605 
f 606/606/606 604/604/604 603/603/603 
f 607/607/607 608/608/608 609/609/609 
f 610/610/610 608/608/608 607/607/607 
f 611/611/611 612/612/612 613/613/613 
f 614/614/614 612/612/612 611/611/611 
f 615/615/615 616/616/616 617/617/617 
f 618/618/618 616/616/616 615/615/615 
f 619/619/619 620/620/620 621/621/621 
f 622/622/622 620/620/620 619/619/619 
f 623/623/623 624/624/624 625/625/625 
f 626/626/626 624/624/624 623/623/623 
f 627/627/627 628/628/628 629/629/629 
f 630/630/630 628/628/628 627/627/627 
f 631/631/631 632/632/632 633/633/633 
f 634/634/634 632/632/632 631/631/631 
f 635/635/635 636/636/636 637/637/637 
f 638/638/638 636/636/636 635/635/635 
f 639/639/639 640/640/640 641/641/641 
f 642/642/642 640/640/640 639/639/639 
f 643/643/643 644/644/644 645/645/645 
f 646/646/646 644/644/644 643/643/643 
f 647/647/647 648/648/648 649/649/649 
f 650/650/650 648/648/648 647/647/647 
f 651/651/651 652/652/652 653/653/653 
f 654/654/654 652/652/652 651/651/651 
f 655/655/655 656/656/656 657/657/657 
f 658/658/658 656/656/656 655/655/655 
f 659/659/659 660/660/660 661/661/661 
f 662/662/662 660/660/660 659/659/659 
f 663/663/663 664/664/664 665/665/665 
f 666/666/666 664/664/664 663/663/663 
f 667/667/667 668/668/668 669/669/669 
f 670/670/670 668/668/668 667/667/667 
f 671/671/671 672/672/672 673/673/673 
f 674/674/674 672/672/672 671/671/671 
f 675/675/675 676/676/676 677/677/677 
f 678/678/678 676/676/676 675/675/675 
f 679/679/679 680/680/680 681/681/681 
f 682/682/682 680/680/680 679/679/679 
f 683/683/683 684/684/684 685/685/685 
f 686/686/686 684/684/684 683/683/683 
f 687/687/687 688/688/688 689/689/689 
f 690/690/690 688/688/688 687/687/687 
f 691/691/691 692/692/692 693/693/693 
f 694/694/694 695/695/695 696/696/696 
f 697/697/697 695/695/695 694/694/694 
f 698/698/698 699/699/699 700/700/700 
f 701/701/701 699/699/699 698/698/698 
f 702/702/702 703/703/703 704/704/704 
f 705/705/705 703/703/703 702/702/702 
f 706/706/706 707/707/707 708/708/708 
f 709/709/709 707/707/707 706/706/706 
f 710/710/710 711/711/711 712/712/712 
f 713/713/713 711/711/711 710/710/710 
f 714/714/714 715/715/715 716/716/716 
f 717/717/717 718/718/718 719/719/719 
f 720/720/720 718/718/718 717/717/717 
f 721/721/721 722/722/722 723/723/723 
f 724/724/724 722/722/722 721/721/721 
f 725/725/725 726/726/726 727/727/727 
f 728/728/728 726/726/726 725/725/725 
f 729/729/729 730/730/730 731/731/731 
f 732/732/732 730/730/730 729/729/729 
f 733/733/733 734/734/734 735/735/735 
f 736/736/736 734/734/734 733/733/733 
f 737/737/737 738/738/738 739/739/739 
f 740/740/740 738/738/738 737/737/737 
f 741/741/741 742/742/742 743/743/743 
f 744/744/744 742/742/742 741/741/741 
f 745/745/745 746/746/746 747/747/747 
f 748/748/748 746/746/746 745/745/745 
f 749/749/749 750/750/750 751/751/751 
f 752/752/752 750/750/750 749/749/749 
f 753/753/753 754/754/754 755/755/755 
f 756/756/756 754/754/754 753/753/753 
f 757/757/757 758/758/758 759/759/759 
f 760/760/760 758/758/758 757/757/757 
f 761/761/761 762/762/762 763/763/763 
f 764/764/764 762/762/762 761/761/761 
f 765/765/765 766/766/766 767/767/767 
f 768/768/768 766/766/766 765/765/765 
f 769/769/769 770/770/770 771/771/771 
f 772/772/772 770/770/770 769/769/769 
f 773/773/773 774/774/774 775/775/775 
f 776/776/776 774/774/774 773/773/773 
f 777/777/777 778/778/778 779/779/779 
f 780/780/780 778/778/778 777/777/777 
f 781/781/781 782/782/782 783/783/783 
f 784/784/784 782/782/782 781/781/781 
f 785/785/785 786/786/786 787/787/787 
f 788/788/788 786/786/786 785/785/785 
f 789/789/789 790/790/790 791/791/791 
f 792/792/792 790/790/790 789/789/789 
f 793/793/793 794/794/794 795/795/795 
f 796/796/796 794/794/794 793/793/793 
f 797/797/797 798/798/798 799/799/799 
f 800/800/800 798/798/798 797/797/797 
f 801/801/801 802/802/802 803/803/803 
f 804/804/804 802/802/802 801/801/801 
f 805/805/805 806/806/806 807/807/807 
f 808/808/808 806/806/806 805/805/805 
f 809/809/809 810/810/810 811/811/811 
f 812/812/812 810/810/810 809/809/809 
f 813/813/813 814/814/814 815/815/815 
f 816/816/816 814/814/814 813/813/813 
f 817/817/817 818/818/818 819/819/819 
f 820/820/820 818/818/818 817/817/817 
f 821/821/821 822/822/822 823/823/823 
f 824/824/824 822/822/822 821/821/821 
f 825/825/825 826/826/826 827/827/827 
f 828/828/828 826/826/826 825/825/825 
f 829/829/829 830/830/830 831/831/831 
f 832/832/832 830/830/830 829/829/829 
f 833/833/833 834/834/834 835/835/835 
f 836/836/836 834/834/834 833/833/833 
f 837/837/837 838/838/838 839/839/839 
f 840/840/840 838/838/838 837/837/837 
f 841/841/841 842/842/842 843/843/843 
f 844/844/844 842/842/842 841/841/841 
f 845/845/845 846/846/846 847/847/847 
f 848/848/848 846/846/846 845/845/845 
f 849/849/849 850/850/850 851/851/851 
f 852/852/852 850/850/850 849/849/849 
f 853/853/853 854/854/854 855/855/855 
f 856/856/856 854/854/854 853/853/853 
f 857/857/857 858/858/858 859/859/859 
f 860/860/860 858/858/858 857/857/857 
f 861/861/861 862/862/862 863/863/863 
f 864/864/864 862/862/862 861/861/861 
f 865/865/865 866/866/866 867/867/867 
f 868/868/868 866/866/866 865/865/865 
f 869/869/869 870/870/870 871/871/871 
f 872/872/872 870/870/870 869/869/869 
f 873/873/873 874/874/874 875/875/875 
f 876/876/876 874/874/874 873/873/873 
f 877/877/877 878/878/878 879/879/879 
f 880/880/880 878/878/878 877/877/877 
f 881/881/881 882/882/882 883/883/883 
f 884/884/884 882/882/882 881/881/881 
f 885/885/885 886/886/886 887/887/887 
f 888/888/888 886/886/886 885/885/885 
f 889/889/889 890/890/890 891/891/891 
f 892/892/892 890/890/890 889/889/889 
f 893/893/893 894/894/894 895/895/895 
f 896/896/896 894/894/894 893/893/893 
f 897/897/897 898/898/898 899/899/899 
f 900/900/900 898/898/898 897/897/897 
f 901/901/901 902/902/902 903/903/903 
f 904/904/904 902/902/902 901/901/901 
f 905/905/905 906/906/906 907/907/907 
f 908/908/908 906/906/906 905/905/905 
f 909/909/909 910/910/910 911/911/911 
f 912/912/912 910/910/910 909/909/909 
f 913/913/913 914/914/914 915/915/915 
f 916/916/916 914/914/914 913/913/913 
f 917/917/917 918/918/918 919/919/919 
f 920/920/920 918/918/918 917/917/917 
f 921/921/921 922/922/922 923/923/923 
f 924/924/924 922/922/922 921/921/921 
f 925/925/925 926/926/926 927/927/927 
f 928/928/928 926/926/926 925/925/925 
f 929/929/929 930/930/930 931/931/931 
f 932/932/932 930/930/930 929/929/929 
f 933/933/933 934/934/934 935/935/935 
f 936/936/936 934/934/934 933/933/933 
f 937/937/937 938/938/938 939/939/939 
f 940/940/940 938/938/938 937/937/937 
f 941/941/941 942/942/942 943/943/943 
f 944/944/944 942/942/942 941/941/941 
f 945/945/945 946/946/946 947/947/947 
f 948/948/948 946/946/946 945/945/945 
f 949/949/949 950/950/950 951/951/951 
f 952/952/952 950/950/950 949/949/949 
f 953/953/953 954/954/954 955/955/955 
f 956/956/956 954/954/954 953/953/953 
f 957/957/957 958/958/958 959/959/959 
f 960/960/960 958/958/958 957/957/957 
f 961/961/961 962/962/962 963/963/963 
f 964/964/964 962/962/962 961/961/961 
f 965/965/965 966/966/966 967/967/967 
f 968/968/968 966/966/966 965/965/965 
f 969/969/969 970/970/970 971/971/971 
f 972/972/972 970/970/970 969/969/969 
f 973/973/973 974/974/974 975/975/975 
f 976/976/976 974/974/974 973/973/973 
f 977/977/977 978/978/978 979/979/979 
f 980/980/980 978/978/978 977/977/977 
f 981/981/981 982/982/982 983/983/983 
f 984/984/984 982/982/982 981/981/981 
f 985/985/985 986/986/986 987/987/987 
f 988/988/988 986/986/986 985/985/985 
f 989/989/989 990/990/990 991/991/991 
f 992/992/992 990/990/990 989/989/989 
f 993/993/993 994/994/994 995/995/995 
f 996/996/996 994/994/994 993/993/993 
f 996/996/996 997/997/997 994/994/994 
f 998/998/998 997/997/997 996/996/996 
f 999/999/999 1000/1000/1000 1001/1001/1001 
f 1002/1002/1002 1000/1000/1000 999/999/999 
f 1002/1002/1002 1003/1003/1003 1000/1000/1000 
f 1004/1004/1004 1003/1003/1003 1002/1002/1002 
f 1005/1005/1005 1006/1006/1006 1007/1007/1007 
f 1008/1008/1008 1006/1006/1006 1005/1005/1005 
f 1009/1009/1009 1010/1010/1010 1011/1011/1011 
f 1012/1012/1012 1010/1010/1010 1009/1009/1009 
f 1013/1013/1013 1014/1014/1014 1015/1015/1015 
f 1016/1016/1016 1014/1014/1014 1013/1013/1013 
f 1017/1017/1017 1018/1018/1018 1019/1019/1019 
f 1020/1020/1020 1018/1018/1018 1017/1017/1017 
f 1021/1021/1021 1022/1022/1022 1023/1023/1023 
f 1024/1024/1024 1022/1022/1022 1021/1021/1021 
f 1025/1025/1025 1026/1026/1026 1027/1027/1027 
f 1028/1028/1028 1026/1026/1026 1025/1025/1025 
f 1029/1029/1029 1030/1030/1030 1031/1031/1031 
f 1032/1032/1032 1030/1030/1030 1029/1029/1029 
f 1033/1033/1033 1034/1034/1034 1035/1035/1035 
f 1036/1036/1036 1034/1034/1034 1033/1033/1033 
f 1037/1037/1037 1038/1038/1038 1039/1039/1039 
f 1040/1040/1040 1038/1038/1038 1037/1037/1037 
f 1038/1038/1038 1041/1041/1041 1039/1039/1039 
f 1039/1039/1039 1041/1041/1041 1042/1042/1042 
f 1043/1043/1043 1044/1044/1044 1045/1045/1045 
f 1046/1046/1046 1044/1044/1044 1043/1043/1043 
f 1044/1044/1044 1047/1047/1047 1045/1045/1045 
f 1045/1045/1045 1047/1047/1047 1048/1048/1048 
f 1049/1049/1049 1050/1050/1050 1051/1051/1051 
f 1052/1052/1052 1050/1050/1050 1049/1049/1049 
f 1053/1053/1053 1054/1054/1054 1055/1055/1055 
f 1056/1056/1056 1054/1054/1054 1053/1053/1053 
f 1057/1057/1057 1058/1058/1058 1059/1059/1059 
f 1060/1060/1060 1058/1058/1058 1057/1057/1057 
f 1061/1061/1061 1062/1062/1062 1063/1063/1063 
f 1064/1064/1064 1062/1062/1062 1061/1061/1061 
f 1065/1065/1065 1066/1066/1066 1067/1067/1067 
f 1068/1068/1068 1066/1066/1066 1065/1065/1065 
f 1069/1069/1069 1070/1070/1070 1071/1071/1071 
f 1072/1072/1072 1070/1070/1070 1069/1069/1069 
f 1073/1073/1073 1074/1074/1074 1075/1075/1075 
f 1076/1076/1076 1074/1074/1074 1073/1073/1073 
f 1077/1077/1077 1078/1078/1078 1079/1079/1079 
f 1080/1080/1080 1078/1078/1078 1077/1077/1077 
f 1081/1081/1081 1082/1082/1082 1083/1083/1083 
f 1084/1084/1084 1082/1082/1082 1081/1081/1081 
f 1085/1085/1085 1086/1086/1086 1087/1087/1087 
f 1088/1088/1088 1086/1086/1086 1085/1085/1085 
f 1089/1089/1089 1090/1090/1090 1091/1091/1091 
f 1092/1092/1092 1090/1090/1090 1089/1089/1089 
f 1093/1093/1093 1094/1094/1094 1095/1095/1095 
f 1096/1096/1096 1094/1094/1094 1093/1093/1093 
f 1097/1097/1097 1098/1098/1098 1099/1099/1099 
f 1100/1100/1100 1098/1098/1098 1097/1097/1097 
f 1101/1101/1101 1102/1102/1102 1103/1103/1103 
f 1104/1104/1104 1102/1102/1102 1101/1101/1101 
f 1105/1105/1105 1106/1106/1106 1107/1107/1107 
f 1108/1108/1108 1106/1106/1106 1105/1105/1105 
f 1109/1109/1109 1110/1110/1110 1111/1111/1111 
f 1112/1112/1112 1110/1110/1110 1109/1109/1109 
f 1113/1113/1113 1114/1114/1114 1115/1115/1115 
f 1116/1116/1116 1114/1114/1114 1113/1113/1113 
f 1117/1117/1117 1118/1118/1118 1119/1119/1119 
f 1120/1120/1120 1118/1118/1118 1117/1117/1117 
f 1121/1121/1121 1122/1122/1122 1123/1123/1123 
f 1124/1124/1124 1122/1122/1122 1121/1121/1121 
f 1125/1125/1125 1126/1126/1126 1127/1127/1127 
f 1128/1128/1128 1126/1126/1126 1125/1125/1125 
f 1129/1129/1129 1130/1130/1130 1131/1131/1131 
f 1132/1132/1132 1130/1130/1130 1129/1129/1129 
f 1133/1133/1133 1134/1134/1134 1135/1135/1135 
f 1136/1136/1136 1134/1134/1134 1133/1133/1133 
f 1137/1137/1137 1138/1138/1138 1139/1139/1139 
f 1140/1140/1140 1138/1138/1138 1137/1137/1137 
f 1141/1141/1141 1142/1142/1142 1143/1143/1143 
f 1144/1144/1144 1142/1142/1142 1141/1141/1141 
f 1145/1145/1145 1146/1146/1146 1147/1147/1147 
f 1148/1148/1148 1146/1146/1146 1145/1145/1145 
f 1149/1149/1149 1150/1150/1150 1151/1151/1151 
f 1152/1152/1152 1150/1150/1150 1149/1149/1149 
f 1153/1153/1153 1154/1154/1154 1155/1155/1155 
f 1156/1156/1156 1154/1154/1154 1153/1153/1153 
f 1157/1157/1157 1158/1158/1158 1154/1154/1154 
f 1159/1159/1159 1158/1158/1158 1157/1157/1157 
f 1160/1160/1160 1161/1161/1161 1162/1162/1162 
f 1163/1163/1163 1161/1161/1161 1160/1160/1160 
f 1163/1163/1163 1164/1164/1164 1165/1165/1165 
f 1166/1166/1166 1164/1164/1164 1163/1163/1163 
f 1167/1167/1167 1168/1168/1168 1169/1169/1169 
f 1170/1170/1170 1168/1168/1168 1167/1167/1167 
f 1171/1171/1171 1172/1172/1172 1173/1173/1173 
f 1174/1174/1174 1172/1172/1172 1171/1171/1171 
f 1175/1175/1175 1176/1176/1176 1177/1177/1177 
f 1178/1178/1178 1176/1176/1176 1175/1175/1175 
f 1179/1179/1179 1177/1177/1177 1180/1180/1180 
f 1180/1180/1180 1177/1177/1177 1181/1181/1181 
f 1182/1182/1182 1183/1183/1183 1176/1176/1176 
f 1184/1184/1184 1183/1183/1183 1182/1182/1182 
f 1185/1185/1185 1186/1186/1186 1187/1187/1187 
f 1188/1188/1188 1186/1186/1186 1185/1185/1185 
f 1185/1185/1185 1189/1189/1189 1190/1190/1190 
f 1190/1190/1190 1189/1189/1189 1191/1191/1191 
f 1188/1188/1188 1192/1192/1192 1193/1193/1193 
f 1194/1194/1194 1192/1192/1192 1188/1188/1188 

