# Blender 4.0.2
# www.blender.org
mtllib Lamp glass obj.mtl
o Glass
v -0.640163 0.287853 0.526029
v -0.640163 0.287853 -0.526029
v -0.640163 1.612147 -0.526029
v -0.640163 1.612147 0.526029
v 0.533968 0.287853 0.640163
v -0.533968 0.287853 0.640163
v -0.533968 1.612147 0.640163
v 0.533968 1.612147 0.640163
v -0.533968 0.287853 -0.640163
v 0.533968 0.287853 -0.640163
v 0.533968 1.612147 -0.640163
v -0.533968 1.612147 -0.640163
v 0.640163 0.287853 -0.526029
v 0.640163 0.287853 0.526029
v 0.640163 1.612147 0.526029
v 0.640163 1.612147 -0.526029
v -0.610163 0.287853 0.526029
v -0.610163 0.287853 -0.526029
v -0.610163 1.612147 -0.526029
v -0.610163 1.612147 0.526029
v 0.533968 0.287853 0.610163
v -0.533968 0.287853 0.610163
v -0.533968 1.612147 0.610163
v 0.533968 1.612147 0.610163
v -0.533968 0.287853 -0.610163
v 0.533968 0.287853 -0.610163
v 0.533968 1.612147 -0.610163
v -0.533968 1.612147 -0.610163
v 0.610163 0.287853 -0.526029
v 0.610163 0.287853 0.526029
v 0.610163 1.612147 0.526029
v 0.610163 1.612147 -0.526029
vn -1.0000 -0.0000 -0.0000
vn -0.0000 -0.0000 1.0000
vn -0.0000 -0.0000 -1.0000
vn 1.0000 -0.0000 -0.0000
vn -0.0000 -1.0000 -0.0000
vn -0.0000 1.0000 -0.0000
vt 0.862500 0.551478
vt 0.862500 0.698522
vt 0.862500 0.698522
vt 0.823523 0.737500
vt 0.676477 0.737500
vt 0.676478 0.737500
vt 0.823523 0.737500
vt 0.676478 0.512500
vt 0.823522 0.512500
vt 0.823522 0.512500
vt 0.637500 0.698522
vt 0.637500 0.551477
vt 0.637500 0.551477
vt 0.637500 0.698523
s 0
usemtl Material.006
f 2/1/1 1/2/1 4/3/1 3/1/1
f 6/4/2 5/5/2 8/6/2 7/7/2
f 10/8/3 9/9/3 12/10/3 11/8/3
f 14/11/4 13/12/4 16/13/4 15/14/4
f 18/1/4 19/1/4 20/3/4 17/2/4
f 22/4/3 23/7/3 24/6/3 21/5/3
f 26/8/2 27/8/2 28/10/2 25/9/2
f 30/11/1 31/14/1 32/13/1 29/12/1
f 1/2/5 2/1/5 18/1/5 17/2/5
f 2/1/3 3/1/3 19/1/3 18/1/3
f 4/3/2 1/2/2 17/2/2 20/3/2
f 3/1/6 4/3/6 20/3/6 19/1/6
f 5/5/5 6/4/5 22/4/5 21/5/5
f 6/4/1 7/7/1 23/7/1 22/4/1
f 8/6/4 5/5/4 21/5/4 24/6/4
f 7/7/6 8/6/6 24/6/6 23/7/6
f 9/9/5 10/8/5 26/8/5 25/9/5
f 10/8/4 11/8/4 27/8/4 26/8/4
f 12/10/1 9/9/1 25/9/1 28/10/1
f 11/8/6 12/10/6 28/10/6 27/8/6
f 13/12/5 14/11/5 30/11/5 29/12/5
f 14/11/2 15/14/2 31/14/2 30/11/2
f 16/13/3 13/12/3 29/12/3 32/13/3
f 15/14/6 16/13/6 32/13/6 31/14/6
