# Blender 4.0.2
# www.blender.org
mtllib Lamp metal obj.mtl
o Cube.001
v 0.000000 2.395456 -0.181815
v 0.000000 2.504544 -0.181815
v 0.035470 2.395456 -0.178321
v 0.035470 2.504544 -0.178321
v 0.069577 2.395456 -0.167975
v 0.069577 2.504544 -0.167975
v 0.101011 2.395456 -0.151173
v 0.101011 2.504544 -0.151173
v 0.128562 2.395456 -0.128562
v 0.128562 2.504544 -0.128562
v 0.151173 2.395456 -0.101011
v 0.151173 2.504544 -0.101011
v 0.167975 2.395456 -0.069577
v 0.167975 2.504544 -0.069577
v 0.178321 2.395456 -0.035470
v 0.178321 2.504544 -0.035470
v 0.181815 2.395456 0.000000
v 0.181815 2.504544 0.000000
v 0.178321 2.395456 0.035470
v 0.178321 2.504544 0.035470
v 0.167975 2.395456 0.069577
v 0.167975 2.504544 0.069577
v 0.151173 2.395456 0.101011
v 0.151173 2.504544 0.101011
v 0.128562 2.395456 0.128562
v 0.128562 2.504544 0.128562
v 0.101011 2.395456 0.151173
v 0.101011 2.504544 0.151173
v 0.069577 2.395456 0.167975
v 0.069577 2.504544 0.167975
v 0.035470 2.395456 0.178321
v 0.035470 2.504544 0.178321
v 0.000000 2.395456 0.181815
v 0.000000 2.504544 0.181815
v -0.035470 2.395456 0.178321
v -0.035470 2.504544 0.178321
v -0.069577 2.395456 0.167975
v -0.069577 2.504544 0.167975
v -0.101011 2.395456 0.151173
v -0.101011 2.504544 0.151173
v -0.128562 2.395456 0.128562
v -0.128562 2.504544 0.128562
v -0.151173 2.395456 0.101011
v -0.151173 2.504544 0.101011
v -0.167975 2.395456 0.069577
v -0.167975 2.504544 0.069577
v -0.178321 2.395456 0.035470
v -0.178321 2.504544 0.035470
v -0.181815 2.395456 0.000000
v -0.181815 2.504544 0.000000
v -0.178321 2.395456 -0.035470
v -0.178321 2.504544 -0.035470
v -0.167975 2.395456 -0.069577
v -0.167975 2.504544 -0.069577
v -0.151173 2.395456 -0.101011
v -0.151173 2.504544 -0.101011
v -0.128562 2.395456 -0.128562
v -0.128562 2.504544 -0.128562
v -0.101011 2.395456 -0.151173
v -0.101011 2.504544 -0.151173
v -0.069577 2.395456 -0.167975
v -0.069577 2.504544 -0.167975
v -0.035470 2.395456 -0.178321
v -0.035470 2.504544 -0.178321
v 0.023508 2.504544 -0.118185
v 0.000000 2.504544 -0.120501
v -0.023508 2.504544 -0.118185
v -0.046114 2.504544 -0.111328
v -0.066947 2.504544 -0.100193
v -0.085207 2.504544 -0.085207
v -0.100193 2.504544 -0.066947
v -0.111328 2.504544 -0.046114
v -0.118185 2.504544 -0.023508
v -0.120501 2.504544 0.000000
v -0.118185 2.504544 0.023508
v -0.111328 2.504544 0.046114
v -0.100193 2.504544 0.066947
v -0.085207 2.504544 0.085207
v -0.066947 2.504544 0.100193
v -0.046114 2.504544 0.111328
v -0.023508 2.504544 0.118185
v 0.000000 2.504544 0.120501
v 0.023508 2.504544 0.118185
v 0.046114 2.504544 0.111328
v 0.066947 2.504544 0.100193
v 0.085207 2.504544 0.085207
v 0.100193 2.504544 0.066947
v 0.111328 2.504544 0.046114
v 0.118185 2.504544 0.023508
v 0.120501 2.504544 0.000000
v 0.118185 2.504544 -0.023508
v 0.111328 2.504544 -0.046114
v 0.100193 2.504544 -0.066947
v 0.085207 2.504544 -0.085207
v 0.066947 2.504544 -0.100193
v 0.046114 2.504544 -0.111328
v 0.019641 2.654545 -0.098741
v -0.000000 2.654545 -0.100675
v 0.038527 2.654545 -0.093012
v -0.019641 2.654545 -0.098741
v -0.038527 2.654545 -0.093012
v -0.055932 2.654545 -0.083708
v -0.071188 2.654545 -0.071188
v -0.083708 2.654545 -0.055932
v -0.093012 2.654545 -0.038527
v -0.098741 2.654545 -0.019641
v -0.100675 2.654545 0.000000
v -0.098741 2.654545 0.019641
v -0.093012 2.654545 0.038527
v -0.083708 2.654545 0.055932
v -0.071188 2.654545 0.071188
v -0.055932 2.654545 0.083708
v -0.038527 2.654545 0.093012
v -0.019641 2.654545 0.098741
v -0.000000 2.654545 0.100675
v 0.019641 2.654545 0.098741
v 0.038527 2.654545 0.093012
v 0.055932 2.654545 0.083708
v 0.071188 2.654545 0.071188
v 0.083708 2.654545 0.055932
v 0.093012 2.654545 0.038527
v 0.098741 2.654545 0.019641
v 0.100675 2.654545 0.000000
v 0.098741 2.654545 -0.019641
v 0.093012 2.654545 -0.038527
v 0.083708 2.654545 -0.055932
v 0.071188 2.654545 -0.071188
v 0.055932 2.654545 -0.083708
v 0.324913 2.850000 0.000000
v 0.319109 2.850000 0.021661
v 0.303252 2.850000 0.037518
v 0.281592 2.850000 0.043322
v 0.259931 2.850000 0.037518
v 0.244074 2.850000 0.021661
v 0.238270 2.850000 0.000000
v 0.244074 2.850000 -0.021661
v 0.259931 2.850000 -0.037518
v 0.281592 2.850000 -0.043322
v 0.303252 2.850000 -0.037518
v 0.319109 2.850000 -0.021661
v 0.322134 2.892410 0.000000
v 0.316379 2.891652 0.021661
v 0.300658 2.889582 0.037518
v 0.279182 2.886755 0.043322
v 0.257707 2.883928 0.037518
v 0.241986 2.881858 0.021661
v 0.236231 2.881100 0.000000
v 0.241986 2.881858 -0.021661
v 0.257707 2.883928 -0.037518
v 0.279182 2.886755 -0.043322
v 0.300658 2.889582 -0.037518
v 0.316379 2.891652 -0.021661
v 0.313842 2.934094 0.000000
v 0.308236 2.932592 0.021661
v 0.292919 2.928487 0.037518
v 0.271996 2.922881 0.043322
v 0.251074 2.917275 0.037518
v 0.235757 2.913171 0.021661
v 0.230151 2.911669 0.000000
v 0.235757 2.913171 -0.021661
v 0.251074 2.917275 -0.037518
v 0.271996 2.922881 -0.043322
v 0.292919 2.928487 -0.037518
v 0.308236 2.932592 -0.021661
v 0.300181 2.974339 0.000000
v 0.294819 2.972118 0.021661
v 0.280169 2.966049 0.037518
v 0.260157 2.957760 0.043322
v 0.240145 2.949471 0.037518
v 0.225495 2.943403 0.021661
v 0.220133 2.941182 0.000000
v 0.225495 2.943403 -0.021661
v 0.240145 2.949471 -0.037518
v 0.260157 2.957760 -0.043322
v 0.280169 2.966049 -0.037518
v 0.294819 2.972118 -0.021661
v 0.281383 3.012457 0.000000
v 0.276357 3.009555 0.021661
v 0.262624 3.001626 0.037518
v 0.243865 2.990796 0.043322
v 0.225106 2.979965 0.037518
v 0.211374 2.972037 0.021661
v 0.206348 2.969135 0.000000
v 0.211374 2.972037 -0.021661
v 0.225106 2.979965 -0.037518
v 0.243865 2.990796 -0.043322
v 0.262624 3.001626 -0.037518
v 0.276357 3.009555 -0.021661
v 0.257771 3.047795 0.000000
v 0.253166 3.044261 0.021661
v 0.240586 3.034608 0.037518
v 0.223402 3.021422 0.043322
v 0.206217 3.008236 0.037518
v 0.193637 2.998583 0.021661
v 0.189032 2.995049 0.000000
v 0.193637 2.998583 -0.021661
v 0.206217 3.008236 -0.037518
v 0.223402 3.021422 -0.043322
v 0.240586 3.034608 -0.037518
v 0.253166 3.044261 -0.021661
v 0.229748 3.079748 0.000000
v 0.225644 3.075644 0.021661
v 0.214432 3.064432 0.037518
v 0.199115 3.049115 0.043322
v 0.183799 3.033799 0.037518
v 0.172586 3.022586 0.021661
v 0.168482 3.018482 0.000000
v 0.172586 3.022586 -0.021661
v 0.183799 3.033799 -0.037518
v 0.199115 3.049115 -0.043322
v 0.214432 3.064432 -0.037518
v 0.225644 3.075644 -0.021661
v 0.197795 3.107771 0.000000
v 0.194261 3.103167 0.021661
v 0.184608 3.090586 0.037518
v 0.171422 3.073402 0.043322
v 0.158236 3.056217 0.037518
v 0.148583 3.043637 0.021661
v 0.145049 3.039032 0.000000
v 0.148583 3.043637 -0.021661
v 0.158236 3.056217 -0.037518
v 0.171422 3.073402 -0.043322
v 0.184608 3.090586 -0.037518
v 0.194261 3.103167 -0.021661
v 0.162457 3.131383 0.000000
v 0.159555 3.126357 0.021661
v 0.151626 3.112624 0.037518
v 0.140796 3.093866 0.043322
v 0.129965 3.075106 0.037518
v 0.122037 3.061374 0.021661
v 0.119135 3.056348 0.000000
v 0.122037 3.061374 -0.021661
v 0.129965 3.075106 -0.037518
v 0.140796 3.093866 -0.043322
v 0.151626 3.112624 -0.037518
v 0.159555 3.126357 -0.021661
v 0.124339 3.150181 0.000000
v 0.122118 3.144819 0.021661
v 0.116050 3.130168 0.037518
v 0.107760 3.110157 0.043322
v 0.099471 3.090144 0.037518
v 0.093403 3.075495 0.021661
v 0.091182 3.070132 0.000000
v 0.093403 3.075495 -0.021661
v 0.099471 3.090144 -0.037518
v 0.107760 3.110157 -0.043322
v 0.116050 3.130168 -0.037518
v 0.122118 3.144819 -0.021661
v 0.084094 3.163842 0.000000
v 0.082592 3.158236 0.021661
v 0.078487 3.142919 0.037518
v 0.072881 3.121996 0.043322
v 0.067275 3.101074 0.037518
v 0.063171 3.085757 0.021661
v 0.061669 3.080151 0.000000
v 0.063171 3.085757 -0.021661
v 0.067275 3.101074 -0.037518
v 0.072881 3.121996 -0.043322
v 0.078487 3.142919 -0.037518
v 0.082592 3.158236 -0.021661
v 0.042410 3.172133 0.000000
v 0.041652 3.166379 0.021661
v 0.039582 3.150658 0.037518
v 0.036755 3.129182 0.043322
v 0.033928 3.107707 0.037518
v 0.031858 3.091985 0.021661
v 0.031100 3.086231 0.000000
v 0.031858 3.091985 -0.021661
v 0.033928 3.107707 -0.037518
v 0.036755 3.129182 -0.043322
v 0.039582 3.150658 -0.037518
v 0.041652 3.166379 -0.021661
v 0.000000 3.174913 0.000000
v 0.000000 3.169109 0.021661
v 0.000000 3.153252 0.037518
v 0.000000 3.131591 0.043322
v 0.000000 3.109931 0.037518
v 0.000000 3.094074 0.021661
v 0.000000 3.088270 0.000000
v 0.000000 3.094074 -0.021661
v 0.000000 3.109931 -0.037518
v 0.000000 3.131591 -0.043322
v 0.000000 3.153252 -0.037518
v 0.000000 3.169109 -0.021661
v -0.042410 3.172133 0.000000
v -0.041652 3.166379 0.021661
v -0.039582 3.150658 0.037518
v -0.036755 3.129182 0.043322
v -0.033928 3.107707 0.037518
v -0.031858 3.091985 0.021661
v -0.031100 3.086231 0.000000
v -0.031858 3.091985 -0.021661
v -0.033928 3.107707 -0.037518
v -0.036755 3.129182 -0.043322
v -0.039582 3.150658 -0.037518
v -0.041652 3.166379 -0.021661
v -0.084094 3.163842 0.000000
v -0.082592 3.158236 0.021661
v -0.078487 3.142919 0.037518
v -0.072881 3.121996 0.043322
v -0.067275 3.101074 0.037518
v -0.063171 3.085757 0.021661
v -0.061669 3.080151 0.000000
v -0.063171 3.085757 -0.021661
v -0.067275 3.101074 -0.037518
v -0.072881 3.121996 -0.043322
v -0.078487 3.142919 -0.037518
v -0.082592 3.158236 -0.021661
v -0.124339 3.150181 0.000000
v -0.122118 3.144819 0.021661
v -0.116050 3.130168 0.037518
v -0.107760 3.110157 0.043322
v -0.099471 3.090144 0.037518
v -0.093403 3.075495 0.021661
v -0.091182 3.070132 0.000000
v -0.093403 3.075495 -0.021661
v -0.099471 3.090144 -0.037518
v -0.107760 3.110157 -0.043322
v -0.116050 3.130168 -0.037518
v -0.122118 3.144819 -0.021661
v -0.162457 3.131383 0.000000
v -0.159555 3.126357 0.021661
v -0.151626 3.112624 0.037518
v -0.140796 3.093866 0.043322
v -0.129965 3.075106 0.037518
v -0.122037 3.061374 0.021661
v -0.119135 3.056348 0.000000
v -0.122037 3.061374 -0.021661
v -0.129965 3.075106 -0.037518
v -0.140796 3.093866 -0.043322
v -0.151626 3.112624 -0.037518
v -0.159555 3.126357 -0.021661
v -0.197795 3.107771 0.000000
v -0.194261 3.103167 0.021661
v -0.184608 3.090586 0.037518
v -0.171422 3.073402 0.043322
v -0.158236 3.056217 0.037518
v -0.148583 3.043637 0.021661
v -0.145049 3.039032 0.000000
v -0.148583 3.043637 -0.021661
v -0.158236 3.056217 -0.037518
v -0.171422 3.073402 -0.043322
v -0.184608 3.090586 -0.037518
v -0.194261 3.103167 -0.021661
v -0.229748 3.079748 0.000000
v -0.225644 3.075644 0.021661
v -0.214432 3.064432 0.037518
v -0.199115 3.049115 0.043322
v -0.183799 3.033798 0.037518
v -0.172586 3.022586 0.021661
v -0.168482 3.018482 0.000000
v -0.172586 3.022586 -0.021661
v -0.183799 3.033798 -0.037518
v -0.199115 3.049115 -0.043322
v -0.214432 3.064432 -0.037518
v -0.225644 3.075644 -0.021661
v -0.257771 3.047795 0.000000
v -0.253166 3.044261 0.021661
v -0.240586 3.034608 0.037518
v -0.223402 3.021422 0.043322
v -0.206217 3.008236 0.037518
v -0.193637 2.998583 0.021661
v -0.189032 2.995049 0.000000
v -0.193637 2.998583 -0.021661
v -0.206217 3.008236 -0.037518
v -0.223402 3.021422 -0.043322
v -0.240586 3.034608 -0.037518
v -0.253166 3.044261 -0.021661
v -0.281383 3.012457 0.000000
v -0.276357 3.009555 0.021661
v -0.262624 3.001626 0.037518
v -0.243865 2.990796 0.043322
v -0.225106 2.979965 0.037518
v -0.211374 2.972037 0.021661
v -0.206348 2.969135 0.000000
v -0.211374 2.972037 -0.021661
v -0.225106 2.979965 -0.037518
v -0.243865 2.990796 -0.043322
v -0.262624 3.001626 -0.037518
v -0.276357 3.009555 -0.021661
v -0.300181 2.974339 0.000000
v -0.294819 2.972118 0.021661
v -0.280169 2.966050 0.037518
v -0.260157 2.957760 0.043322
v -0.240145 2.949471 0.037518
v -0.225495 2.943403 0.021661
v -0.220133 2.941182 0.000000
v -0.225495 2.943403 -0.021661
v -0.240145 2.949471 -0.037518
v -0.260157 2.957760 -0.043322
v -0.280169 2.966050 -0.037518
v -0.294819 2.972118 -0.021661
v -0.313842 2.934094 0.000000
v -0.308236 2.932592 0.021661
v -0.292919 2.928487 0.037518
v -0.271997 2.922881 0.043322
v -0.251074 2.917275 0.037518
v -0.235757 2.913171 0.021661
v -0.230151 2.911669 0.000000
v -0.235757 2.913171 -0.021661
v -0.251074 2.917275 -0.037518
v -0.271997 2.922881 -0.043322
v -0.292919 2.928487 -0.037518
v -0.308236 2.932592 -0.021661
v -0.322134 2.892410 0.000000
v -0.316379 2.891652 0.021661
v -0.300658 2.889582 0.037518
v -0.279182 2.886755 0.043322
v -0.257707 2.883928 0.037518
v -0.241986 2.881858 0.021661
v -0.236231 2.881100 0.000000
v -0.241986 2.881858 -0.021661
v -0.257707 2.883928 -0.037518
v -0.279182 2.886755 -0.043322
v -0.300658 2.889582 -0.037518
v -0.316379 2.891652 -0.021661
v -0.324913 2.850000 0.000000
v -0.319109 2.850000 0.021661
v -0.303252 2.850000 0.037518
v -0.281592 2.850000 0.043322
v -0.259931 2.850000 0.037518
v -0.244074 2.850000 0.021661
v -0.238270 2.850000 0.000000
v -0.244074 2.850000 -0.021661
v -0.259931 2.850000 -0.037518
v -0.281592 2.850000 -0.043322
v -0.303252 2.850000 -0.037518
v -0.319109 2.850000 -0.021661
v -0.322134 2.807590 -0.000000
v -0.316379 2.808348 0.021661
v -0.300658 2.810417 0.037518
v -0.279182 2.813245 0.043322
v -0.257707 2.816072 0.037518
v -0.241986 2.818142 0.021661
v -0.236231 2.818899 -0.000000
v -0.241986 2.818142 -0.021661
v -0.257707 2.816072 -0.037518
v -0.279182 2.813245 -0.043322
v -0.300658 2.810417 -0.037518
v -0.316379 2.808348 -0.021661
v -0.313842 2.765906 -0.000000
v -0.308236 2.767408 0.021661
v -0.292919 2.771513 0.037518
v -0.271997 2.777119 0.043322
v -0.251074 2.782725 0.037518
v -0.235757 2.786829 0.021661
v -0.230151 2.788331 -0.000000
v -0.235757 2.786829 -0.021661
v -0.251074 2.782725 -0.037518
v -0.271997 2.777119 -0.043322
v -0.292919 2.771513 -0.037518
v -0.308236 2.767408 -0.021661
v -0.300181 2.725661 -0.000000
v -0.294819 2.727882 0.021661
v -0.280169 2.733951 0.037518
v -0.260157 2.742240 0.043322
v -0.240145 2.750529 0.037518
v -0.225495 2.756597 0.021661
v -0.220133 2.758818 -0.000000
v -0.225495 2.756597 -0.021661
v -0.240145 2.750529 -0.037518
v -0.260157 2.742240 -0.043322
v -0.280169 2.733951 -0.037518
v -0.294819 2.727882 -0.021661
v -0.281383 2.687543 -0.000000
v -0.276357 2.690445 0.021661
v -0.262624 2.698374 0.037518
v -0.243865 2.709204 0.043322
v -0.225107 2.720035 0.037518
v -0.211374 2.727963 0.021661
v -0.206348 2.730865 -0.000000
v -0.211374 2.727963 -0.021661
v -0.225107 2.720035 -0.037518
v -0.243865 2.709204 -0.043322
v -0.262624 2.698374 -0.037518
v -0.276357 2.690445 -0.021661
v -0.257771 2.652205 -0.000000
v -0.253166 2.655739 0.021661
v -0.240586 2.665391 0.037518
v -0.223402 2.678578 0.043322
v -0.206217 2.691764 0.037518
v -0.193637 2.701417 0.021661
v -0.189032 2.704951 -0.000000
v -0.193637 2.701417 -0.021661
v -0.206217 2.691764 -0.037518
v -0.223402 2.678578 -0.043322
v -0.240586 2.665391 -0.037518
v -0.253166 2.655739 -0.021661
v -0.229748 2.620252 -0.000000
v -0.225644 2.624356 0.021661
v -0.214432 2.635568 0.037518
v -0.199115 2.650885 0.043322
v -0.183799 2.666201 0.037518
v -0.172586 2.677414 0.021661
v -0.168482 2.681518 -0.000000
v -0.172586 2.677414 -0.021661
v -0.183799 2.666201 -0.037518
v -0.199115 2.650885 -0.043322
v -0.214432 2.635568 -0.037518
v -0.225644 2.624356 -0.021661
v -0.197795 2.592229 -0.000000
v -0.194262 2.596834 0.021661
v -0.184608 2.609414 0.037518
v -0.171422 2.626598 0.043322
v -0.158236 2.643783 0.037518
v -0.148583 2.656363 0.021661
v -0.145050 2.660968 -0.000000
v -0.148583 2.656363 -0.021661
v -0.158236 2.643783 -0.037518
v -0.171422 2.626598 -0.043322
v -0.184608 2.609414 -0.037518
v -0.194262 2.596834 -0.021661
v -0.162457 2.568617 -0.000000
v -0.159555 2.573643 0.021661
v -0.151626 2.587376 0.037518
v -0.140796 2.606134 0.043322
v -0.129965 2.624893 0.037518
v -0.122037 2.638626 0.021661
v -0.119135 2.643652 -0.000000
v -0.122037 2.638626 -0.021661
v -0.129965 2.624893 -0.037518
v -0.140796 2.606134 -0.043322
v -0.151626 2.587376 -0.037518
v -0.159555 2.573643 -0.021661
v -0.124339 2.549819 -0.000000
v -0.122118 2.555182 0.021661
v -0.116050 2.569832 0.037518
v -0.107760 2.589843 0.043322
v -0.099471 2.609855 0.037518
v -0.093403 2.624505 0.021661
v -0.091182 2.629867 -0.000000
v -0.093403 2.624505 -0.021661
v -0.099471 2.609855 -0.037518
v -0.107760 2.589843 -0.043322
v -0.116050 2.569832 -0.037518
v -0.122118 2.555182 -0.021661
v -0.084094 2.536158 -0.000000
v -0.082592 2.541764 0.021661
v -0.078488 2.557081 0.037518
v -0.072881 2.578004 0.043322
v -0.067275 2.598926 0.037518
v -0.063171 2.614243 0.021661
v -0.061669 2.619849 -0.000000
v -0.063171 2.614243 -0.021661
v -0.067275 2.598926 -0.037518
v -0.072881 2.578004 -0.043322
v -0.078488 2.557081 -0.037518
v -0.082592 2.541764 -0.021661
v -0.042410 2.527866 -0.000000
v -0.041652 2.533621 0.021661
v -0.039583 2.549342 0.037518
v -0.036755 2.570817 0.043322
v -0.033928 2.592293 0.037518
v -0.031858 2.608014 0.021661
v -0.031101 2.613769 -0.000000
v -0.031858 2.608014 -0.021661
v -0.033928 2.592293 -0.037518
v -0.036755 2.570817 -0.043322
v -0.039583 2.549342 -0.037518
v -0.041652 2.533621 -0.021661
v 0.000000 2.525087 -0.000000
v 0.000000 2.530891 0.021661
v 0.000000 2.546747 0.037518
v 0.000000 2.568409 0.043322
v 0.000000 2.590070 0.037518
v 0.000000 2.605926 0.021661
v 0.000000 2.611730 -0.000000
v 0.000000 2.605926 -0.021661
v 0.000000 2.590070 -0.037518
v 0.000000 2.568409 -0.043322
v 0.000000 2.546747 -0.037518
v 0.000000 2.530891 -0.021661
v 0.042410 2.527866 -0.000000
v 0.041652 2.533621 0.021661
v 0.039582 2.549342 0.037518
v 0.036755 2.570817 0.043322
v 0.033928 2.592293 0.037518
v 0.031858 2.608014 0.021661
v 0.031100 2.613769 -0.000000
v 0.031858 2.608014 -0.021661
v 0.033928 2.592293 -0.037518
v 0.036755 2.570817 -0.043322
v 0.039582 2.549342 -0.037518
v 0.041652 2.533621 -0.021661
v 0.084094 2.536158 -0.000000
v 0.082591 2.541764 0.021661
v 0.078487 2.557081 0.037518
v 0.072881 2.578004 0.043322
v 0.067275 2.598926 0.037518
v 0.063171 2.614243 0.021661
v 0.061669 2.619849 -0.000000
v 0.063171 2.614243 -0.021661
v 0.067275 2.598926 -0.037518
v 0.072881 2.578004 -0.043322
v 0.078487 2.557081 -0.037518
v 0.082591 2.541764 -0.021661
v 0.124339 2.549819 -0.000000
v 0.122118 2.555182 0.021661
v 0.116050 2.569832 0.037518
v 0.107760 2.589843 0.043322
v 0.099471 2.609855 0.037518
v 0.093403 2.624505 0.021661
v 0.091182 2.629867 -0.000000
v 0.093403 2.624505 -0.021661
v 0.099471 2.609855 -0.037518
v 0.107760 2.589843 -0.043322
v 0.116050 2.569832 -0.037518
v 0.122118 2.555182 -0.021661
v 0.162457 2.568617 -0.000000
v 0.159555 2.573643 0.021661
v 0.151626 2.587376 0.037518
v 0.140796 2.606134 0.043322
v 0.129965 2.624893 0.037518
v 0.122037 2.638626 0.021661
v 0.119135 2.643652 -0.000000
v 0.122037 2.638626 -0.021661
v 0.129965 2.624893 -0.037518
v 0.140796 2.606134 -0.043322
v 0.151626 2.587376 -0.037518
v 0.159555 2.573643 -0.021661
v 0.197795 2.592229 -0.000000
v 0.194261 2.596833 0.021661
v 0.184608 2.609414 0.037518
v 0.171422 2.626598 0.043322
v 0.158236 2.643783 0.037518
v 0.148583 2.656363 0.021661
v 0.145049 2.660968 -0.000000
v 0.148583 2.656363 -0.021661
v 0.158236 2.643783 -0.037518
v 0.171422 2.626598 -0.043322
v 0.184608 2.609414 -0.037518
v 0.194261 2.596833 -0.021661
v 0.229748 2.620251 -0.000000
v 0.225644 2.624356 0.021661
v 0.214432 2.635568 0.037518
v 0.199115 2.650885 0.043322
v 0.183799 2.666201 0.037518
v 0.172586 2.677414 0.021661
v 0.168482 2.681518 -0.000000
v 0.172586 2.677414 -0.021661
v 0.183799 2.666201 -0.037518
v 0.199115 2.650885 -0.043322
v 0.214432 2.635568 -0.037518
v 0.225644 2.624356 -0.021661
v 0.257771 2.652205 -0.000000
v 0.253166 2.655739 0.021661
v 0.240586 2.665392 0.037518
v 0.223402 2.678578 0.043322
v 0.206217 2.691764 0.037518
v 0.193637 2.701417 0.021661
v 0.189032 2.704951 -0.000000
v 0.193637 2.701417 -0.021661
v 0.206217 2.691764 -0.037518
v 0.223402 2.678578 -0.043322
v 0.240586 2.665392 -0.037518
v 0.253166 2.655739 -0.021661
v 0.281383 2.687543 -0.000000
v 0.276357 2.690445 0.021661
v 0.262624 2.698374 0.037518
v 0.243865 2.709204 0.043322
v 0.225106 2.720035 0.037518
v 0.211374 2.727963 0.021661
v 0.206348 2.730865 -0.000000
v 0.211374 2.727963 -0.021661
v 0.225106 2.720035 -0.037518
v 0.243865 2.709204 -0.043322
v 0.262624 2.698374 -0.037518
v 0.276357 2.690445 -0.021661
v 0.300181 2.725661 -0.000000
v 0.294818 2.727882 0.021661
v 0.280169 2.733950 0.037518
v 0.260157 2.742239 0.043322
v 0.240145 2.750529 0.037518
v 0.225495 2.756597 0.021661
v 0.220132 2.758818 -0.000000
v 0.225495 2.756597 -0.021661
v 0.240145 2.750529 -0.037518
v 0.260157 2.742239 -0.043322
v 0.280169 2.733950 -0.037518
v 0.294818 2.727882 -0.021661
v 0.313842 2.765906 -0.000000
v 0.308236 2.767408 0.021661
v 0.292919 2.771513 0.037518
v 0.271997 2.777119 0.043322
v 0.251074 2.782725 0.037518
v 0.235757 2.786829 0.021661
v 0.230151 2.788331 -0.000000
v 0.235757 2.786829 -0.021661
v 0.251074 2.782725 -0.037518
v 0.271997 2.777119 -0.043322
v 0.292919 2.771513 -0.037518
v 0.308236 2.767408 -0.021661
v 0.322134 2.807590 -0.000000
v 0.316379 2.808348 0.021661
v 0.300658 2.810418 0.037518
v 0.279182 2.813245 0.043322
v 0.257707 2.816072 0.037518
v 0.241986 2.818142 0.021661
v 0.236231 2.818899 -0.000000
v 0.241986 2.818142 -0.021661
v 0.257707 2.816072 -0.037518
v 0.279182 2.813245 -0.043322
v 0.300658 2.810418 -0.037518
v 0.316379 2.808348 -0.021661
vn -0.0000 -0.0000 -1.0000
vn 0.1951 -0.0000 -0.9808
vn 0.3827 -0.0000 -0.9239
vn 0.5556 -0.0000 -0.8315
vn 0.7071 -0.0000 -0.7071
vn 0.8315 -0.0000 -0.5556
vn 0.9239 -0.0000 -0.3827
vn 0.9808 -0.0000 -0.1951
vn 1.0000 -0.0000 -0.0000
vn 0.9808 -0.0000 0.1951
vn 0.9239 -0.0000 0.3827
vn 0.8315 -0.0000 0.5556
vn 0.7071 -0.0000 0.7071
vn 0.5556 -0.0000 0.8315
vn 0.3827 -0.0000 0.9239
vn 0.1951 -0.0000 0.9808
vn -0.0000 -0.0000 1.0000
vn -0.1951 -0.0000 0.9808
vn -0.3827 -0.0000 0.9239
vn -0.5556 -0.0000 0.8315
vn -0.7071 -0.0000 0.7071
vn -0.8315 -0.0000 0.5556
vn -0.9239 -0.0000 0.3827
vn -0.9808 -0.0000 0.1951
vn -1.0000 -0.0000 -0.0000
vn -0.9808 -0.0000 -0.1951
vn -0.9239 -0.0000 -0.3827
vn -0.8315 -0.0000 -0.5556
vn -0.7071 -0.0000 -0.7071
vn -0.5556 -0.0000 -0.8315
vn -0.3827 -0.0000 -0.9239
vn 0.9159 0.1310 0.3794
vn 0.9723 0.1310 0.1934
vn -0.1951 -0.0000 -0.9808
vn -0.0000 1.0000 -0.0000
vn -0.9723 0.1310 0.1934
vn -0.9159 0.1310 0.3794
vn 0.9914 0.1310 -0.0000
vn -0.8243 0.1310 0.5508
vn 0.9723 0.1310 -0.1934
vn -0.7010 0.1310 0.7010
vn 0.1934 0.1310 -0.9723
vn -0.0000 0.1310 -0.9914
vn 0.9159 0.1310 -0.3794
vn -0.5508 0.1310 0.8243
vn 0.3794 0.1310 -0.9159
vn 0.8243 0.1310 -0.5508
vn -0.3794 0.1310 0.9159
vn -0.1934 0.1310 -0.9723
vn 0.7010 0.1310 -0.7010
vn -0.1934 0.1310 0.9723
vn -0.3794 0.1310 -0.9159
vn 0.5508 0.1310 -0.8243
vn -0.0000 0.1310 0.9914
vn -0.5508 0.1310 -0.8243
vn 0.1934 0.1310 0.9723
vn -0.7010 0.1310 -0.7010
vn 0.3794 0.1310 0.9159
vn -0.8243 0.1310 -0.5508
vn 0.5508 0.1310 0.8243
vn -0.9159 0.1310 -0.3794
vn 0.7010 0.1310 0.7010
vn -0.9723 0.1310 -0.1934
vn 0.8243 0.1310 0.5508
vn -0.9914 0.1310 -0.0000
vn 0.9895 0.1444 -0.0000
vn 0.8583 0.1179 0.4995
vn 0.8663 -0.0000 0.4995
vn 0.4975 0.0592 0.8654
vn 0.2588 -0.0000 0.9659
vn 0.0023 -0.0097 0.9999
vn -0.2588 -0.0000 0.9659
vn -0.4947 -0.0716 0.8661
vn -0.8594 -0.1090 0.4996
vn -0.8658 -0.0000 0.5005
vn -0.9931 -0.1177 -0.0000
vn -0.8594 -0.1090 -0.4996
vn -0.8658 -0.0000 -0.5005
vn -0.4947 -0.0716 -0.8661
vn -0.2588 -0.0000 -0.9659
vn 0.0023 -0.0097 -0.9999
vn 0.2588 -0.0000 -0.9659
vn 0.4975 0.0592 -0.8654
vn 0.8583 0.1179 -0.4995
vn 0.8663 -0.0000 -0.4995
vn 0.9264 0.2735 0.2587
vn 0.9386 0.2281 0.2588
vn 0.6745 0.2134 0.7068
vn 0.4872 0.1206 0.8649
vn 0.0043 -0.0124 0.9999
vn -0.4819 -0.1394 0.8651
vn -0.6907 -0.1531 0.7068
vn -0.9264 -0.2735 0.2587
vn -0.9386 -0.2281 0.2588
vn -0.9386 -0.2281 -0.2588
vn -0.9264 -0.2735 -0.2587
vn -0.6907 -0.1531 -0.7068
vn -0.4819 -0.1394 -0.8651
vn 0.0043 -0.0124 -0.9999
vn 0.4872 0.1206 -0.8649
vn 0.6745 0.2134 -0.7068
vn 0.9386 0.2281 -0.2588
vn 0.9264 0.2735 -0.2587
vn 0.8796 0.3993 0.2587
vn 0.9034 0.3419 0.2587
vn 0.6392 0.3034 0.7067
vn 0.4695 0.1822 0.8639
vn 0.0064 -0.0129 0.9999
vn -0.4612 -0.2038 0.8636
vn -0.6663 -0.2381 0.7067
vn -0.8796 -0.3993 0.2587
vn -0.9034 -0.3419 0.2587
vn -0.9034 -0.3419 -0.2587
vn -0.8796 -0.3993 -0.2587
vn -0.6663 -0.2381 -0.7067
vn -0.4611 -0.2038 -0.8636
vn 0.0064 -0.0129 -0.9999
vn 0.4695 0.1822 -0.8639
vn 0.6392 0.3034 -0.7067
vn 0.9034 0.3419 -0.2587
vn 0.8796 0.3993 -0.2587
vn 0.8170 0.5154 0.2586
vn 0.8534 0.4525 0.2587
vn 0.5930 0.3861 0.7066
vn 0.4445 0.2423 0.8624
vn 0.0083 -0.0124 0.9999
vn -0.4327 -0.2649 0.8617
vn -0.6305 -0.3212 0.7066
vn -0.8170 -0.5154 0.2586
vn -0.8534 -0.4525 0.2587
vn -0.8534 -0.4525 -0.2587
vn -0.8170 -0.5154 -0.2586
vn -0.6305 -0.3212 -0.7066
vn -0.4327 -0.2649 -0.8617
vn 0.0083 -0.0124 -0.9999
vn 0.4445 0.2423 -0.8624
vn 0.5930 0.3861 -0.7066
vn 0.8534 0.4525 -0.2587
vn 0.8170 0.5153 -0.2586
vn 0.7403 0.6205 0.2586
vn 0.7889 0.5574 0.2586
vn 0.5368 0.4611 0.7066
vn 0.4123 0.2997 0.8604
vn 0.0102 -0.0113 0.9999
vn -0.3968 -0.3222 0.8595
vn -0.5838 -0.3999 0.7066
vn -0.7403 -0.6205 0.2586
vn -0.7889 -0.5574 0.2586
vn -0.7889 -0.5574 -0.2586
vn -0.7403 -0.6205 -0.2586
vn -0.5838 -0.3999 -0.7066
vn -0.3968 -0.3222 -0.8595
vn 0.0102 -0.0113 -0.9999
vn 0.4123 0.2997 -0.8604
vn 0.5368 0.4611 -0.7066
vn 0.7889 0.5574 -0.2586
vn 0.7403 0.6205 -0.2586
vn 0.6510 0.7137 0.2586
vn 0.7108 0.6541 0.2586
vn 0.4716 0.5276 0.7066
vn 0.3732 0.3535 0.8578
vn 0.0120 -0.0096 0.9999
vn -0.3537 -0.3746 0.8571
vn -0.5269 -0.4724 0.7066
vn -0.6510 -0.7137 0.2586
vn -0.7108 -0.6541 0.2586
vn -0.7108 -0.6541 -0.2586
vn -0.6510 -0.7137 -0.2586
vn -0.5269 -0.4724 -0.7066
vn -0.3537 -0.3746 -0.8571
vn 0.0120 -0.0096 -0.9999
vn 0.3732 0.3535 -0.8578
vn 0.4716 0.5276 -0.7066
vn 0.7108 0.6541 -0.2586
vn 0.6510 0.7137 -0.2586
vn 0.5508 0.7936 0.2585
vn 0.6202 0.7406 0.2586
vn 0.3985 0.5848 0.7065
vn 0.3274 0.4028 0.8547
vn 0.0136 -0.0073 0.9999
vn -0.3037 -0.4212 0.8546
vn -0.4607 -0.5371 0.7066
vn -0.5507 -0.7936 0.2585
vn -0.6202 -0.7406 0.2586
vn -0.6202 -0.7406 -0.2586
vn -0.5508 -0.7936 -0.2585
vn -0.4607 -0.5371 -0.7066
vn -0.3037 -0.4212 -0.8546
vn 0.0136 -0.0073 -0.9999
vn 0.3274 0.4028 -0.8547
vn 0.3985 0.5848 -0.7065
vn 0.6202 0.7406 -0.2586
vn 0.5508 0.7936 -0.2585
vn 0.4414 0.8593 0.2585
vn 0.5183 0.8152 0.2586
vn 0.3190 0.6317 0.7066
vn 0.2753 0.4470 0.8511
vn 0.0149 -0.0041 0.9999
vn -0.2475 -0.4603 0.8526
vn -0.3860 -0.5930 0.7066
vn -0.4414 -0.8593 0.2585
vn -0.5183 -0.8152 0.2586
vn -0.5183 -0.8152 -0.2586
vn -0.4414 -0.8593 -0.2585
vn -0.3860 -0.5930 -0.7066
vn -0.2475 -0.4603 -0.8526
vn 0.0149 -0.0041 -0.9999
vn 0.2753 0.4470 -0.8511
vn 0.3190 0.6317 -0.7066
vn 0.5183 0.8152 -0.2586
vn 0.4414 0.8593 -0.2585
vn 0.3251 0.9097 0.2585
vn 0.4062 0.8764 0.2586
vn 0.2347 0.6676 0.7066
vn 0.2173 0.4857 0.8467
vn 0.0159 0.0009 0.9999
vn -0.1859 -0.4901 0.8516
vn -0.3037 -0.6391 0.7066
vn -0.3251 -0.9097 0.2585
vn -0.4062 -0.8764 0.2586
vn -0.4062 -0.8764 -0.2586
vn -0.3251 -0.9097 -0.2585
vn -0.3037 -0.6391 -0.7066
vn -0.1859 -0.4901 -0.8516
vn 0.0159 0.0009 -0.9999
vn 0.2173 0.4857 -0.8467
vn 0.2347 0.6676 -0.7066
vn 0.4062 0.8764 -0.2586
vn 0.3251 0.9097 -0.2585
vn 0.2048 0.9441 0.2585
vn 0.2464 0.8733 0.4202
vn 0.1539 0.5204 0.8399
vn 0.0165 0.0111 0.9998
vn -0.1203 -0.5064 0.8539
vn -0.2145 -0.8803 0.4231
vn -0.2840 -0.9233 0.2586
vn -0.2840 -0.9233 -0.2586
vn -0.2145 -0.8803 -0.4231
vn -0.1203 -0.5064 -0.8539
vn 0.0165 0.0111 -0.9998
vn 0.1539 0.5204 -0.8399
vn 0.2464 0.8733 -0.4202
vn 0.2048 0.9440 -0.2585
vn 0.0874 0.9620 0.2586
vn 0.1305 0.9165 0.3781
vn 0.0841 0.5626 0.8224
vn 0.0150 0.0430 0.9990
vn -0.0540 -0.4935 0.8681
vn -0.0996 -0.8963 0.4320
vn -0.1479 -0.9545 0.2588
vn -0.1480 -0.9545 -0.2588
vn -0.0996 -0.8963 -0.4320
vn -0.0540 -0.4935 -0.8681
vn 0.0150 0.0430 -0.9990
vn 0.0841 0.5626 -0.8224
vn 0.1305 0.9165 -0.3781
vn 0.0874 0.9620 -0.2586
vn -0.0000 0.9659 0.2588
vn -0.0000 0.9420 0.3356
vn -0.0000 0.6090 0.7932
vn -0.0000 0.0984 0.9951
vn -0.0000 -0.4460 0.8950
vn -0.0000 -0.8783 0.4781
vn -0.0000 -0.9659 0.2588
vn -0.0000 -0.9659 -0.2588
vn -0.0000 -0.8783 -0.4781
vn -0.0000 -0.4460 -0.8950
vn -0.0000 0.0984 -0.9951
vn -0.0000 0.6090 -0.7932
vn -0.0000 0.9420 -0.3356
vn -0.0000 0.9659 -0.2588
vn -0.0874 0.9620 0.2586
vn -0.1305 0.9165 0.3781
vn -0.0841 0.5626 0.8224
vn -0.0150 0.0430 0.9990
vn 0.0540 -0.4935 0.8681
vn 0.0996 -0.8963 0.4320
vn 0.1479 -0.9545 0.2588
vn 0.1480 -0.9545 -0.2588
vn 0.0996 -0.8963 -0.4320
vn 0.0540 -0.4935 -0.8681
vn -0.0150 0.0430 -0.9990
vn -0.0841 0.5626 -0.8224
vn -0.1305 0.9165 -0.3781
vn -0.0874 0.9620 -0.2586
vn -0.2048 0.9441 0.2585
vn -0.2464 0.8733 0.4202
vn -0.1539 0.5204 0.8399
vn -0.0165 0.0111 0.9998
vn 0.1203 -0.5064 0.8539
vn 0.2145 -0.8803 0.4231
vn 0.2840 -0.9233 0.2586
vn 0.2840 -0.9233 -0.2586
vn 0.2145 -0.8803 -0.4231
vn 0.1203 -0.5064 -0.8539
vn -0.0165 0.0111 -0.9998
vn -0.1539 0.5204 -0.8399
vn -0.2464 0.8733 -0.4202
vn -0.2048 0.9440 -0.2585
vn -0.3251 0.9097 0.2585
vn -0.4062 0.8764 0.2586
vn -0.2347 0.6676 0.7066
vn -0.2173 0.4857 0.8467
vn -0.0159 0.0009 0.9999
vn 0.1859 -0.4901 0.8516
vn 0.3037 -0.6391 0.7066
vn 0.3251 -0.9097 0.2585
vn 0.4062 -0.8764 0.2586
vn 0.4062 -0.8764 -0.2586
vn 0.3251 -0.9097 -0.2585
vn 0.3037 -0.6391 -0.7066
vn 0.1859 -0.4901 -0.8516
vn -0.0159 0.0009 -0.9999
vn -0.2173 0.4857 -0.8467
vn -0.2347 0.6676 -0.7066
vn -0.4062 0.8764 -0.2586
vn -0.3251 0.9097 -0.2585
vn -0.4414 0.8593 0.2585
vn -0.5183 0.8152 0.2586
vn -0.3190 0.6317 0.7066
vn -0.2753 0.4470 0.8511
vn -0.0149 -0.0041 0.9999
vn 0.2475 -0.4603 0.8526
vn 0.3860 -0.5930 0.7066
vn 0.4414 -0.8593 0.2585
vn 0.5183 -0.8152 0.2586
vn 0.5183 -0.8152 -0.2586
vn 0.4414 -0.8593 -0.2585
vn 0.3860 -0.5930 -0.7066
vn 0.2475 -0.4603 -0.8526
vn -0.0149 -0.0041 -0.9999
vn -0.2753 0.4470 -0.8511
vn -0.3190 0.6317 -0.7066
vn -0.5183 0.8152 -0.2586
vn -0.4414 0.8593 -0.2585
vn -0.5508 0.7936 0.2585
vn -0.6202 0.7406 0.2586
vn -0.3985 0.5848 0.7065
vn -0.3274 0.4028 0.8547
vn -0.0136 -0.0073 0.9999
vn 0.3037 -0.4212 0.8546
vn 0.4607 -0.5371 0.7066
vn 0.5507 -0.7936 0.2585
vn 0.6202 -0.7406 0.2586
vn 0.6202 -0.7406 -0.2586
vn 0.5508 -0.7936 -0.2585
vn 0.4607 -0.5371 -0.7066
vn 0.3037 -0.4212 -0.8546
vn -0.0136 -0.0073 -0.9999
vn -0.3274 0.4028 -0.8547
vn -0.3985 0.5848 -0.7065
vn -0.6202 0.7406 -0.2586
vn -0.5508 0.7936 -0.2585
vn -0.6510 0.7137 0.2586
vn -0.7108 0.6541 0.2586
vn -0.4716 0.5276 0.7066
vn -0.3732 0.3535 0.8578
vn -0.0120 -0.0096 0.9999
vn 0.3537 -0.3746 0.8571
vn 0.5269 -0.4724 0.7066
vn 0.6510 -0.7137 0.2586
vn 0.7108 -0.6541 0.2586
vn 0.7108 -0.6541 -0.2586
vn 0.6510 -0.7137 -0.2586
vn 0.5269 -0.4724 -0.7066
vn 0.3537 -0.3746 -0.8571
vn -0.0120 -0.0096 -0.9999
vn -0.3732 0.3535 -0.8578
vn -0.4716 0.5276 -0.7066
vn -0.7108 0.6541 -0.2586
vn -0.6510 0.7137 -0.2586
vn -0.7403 0.6205 0.2586
vn -0.7889 0.5574 0.2586
vn -0.5368 0.4611 0.7066
vn -0.4123 0.2997 0.8604
vn -0.0102 -0.0113 0.9999
vn 0.3968 -0.3222 0.8595
vn 0.5838 -0.3999 0.7066
vn 0.7403 -0.6205 0.2586
vn 0.7889 -0.5574 0.2586
vn 0.7889 -0.5574 -0.2586
vn 0.7403 -0.6205 -0.2586
vn 0.5838 -0.3999 -0.7066
vn 0.3968 -0.3222 -0.8595
vn -0.0102 -0.0113 -0.9999
vn -0.4123 0.2997 -0.8604
vn -0.5368 0.4611 -0.7066
vn -0.7889 0.5574 -0.2586
vn -0.7403 0.6205 -0.2586
vn -0.8170 0.5153 0.2586
vn -0.8534 0.4525 0.2587
vn -0.5930 0.3861 0.7066
vn -0.4445 0.2423 0.8624
vn -0.0083 -0.0124 0.9999
vn 0.4327 -0.2649 0.8617
vn 0.6305 -0.3212 0.7066
vn 0.8170 -0.5154 0.2586
vn 0.8534 -0.4525 0.2587
vn 0.8534 -0.4525 -0.2587
vn 0.8170 -0.5154 -0.2586
vn 0.6305 -0.3212 -0.7066
vn 0.4327 -0.2649 -0.8617
vn -0.0083 -0.0124 -0.9999
vn -0.4445 0.2423 -0.8624
vn -0.5930 0.3861 -0.7066
vn -0.8534 0.4525 -0.2587
vn -0.8170 0.5153 -0.2586
vn -0.8796 0.3993 0.2587
vn -0.9034 0.3419 0.2587
vn -0.6392 0.3034 0.7067
vn -0.4695 0.1822 0.8639
vn -0.0064 -0.0129 0.9999
vn 0.4612 -0.2038 0.8636
vn 0.6663 -0.2381 0.7067
vn 0.8796 -0.3993 0.2587
vn 0.9034 -0.3419 0.2587
vn 0.9034 -0.3419 -0.2587
vn 0.8796 -0.3993 -0.2587
vn 0.6663 -0.2381 -0.7067
vn 0.4611 -0.2038 -0.8636
vn -0.0064 -0.0129 -0.9999
vn -0.4695 0.1822 -0.8639
vn -0.6392 0.3034 -0.7067
vn -0.9034 0.3419 -0.2587
vn -0.8796 0.3993 -0.2587
vn -0.9264 0.2735 0.2587
vn -0.9386 0.2281 0.2588
vn -0.6745 0.2134 0.7068
vn -0.4872 0.1206 0.8649
vn -0.0043 -0.0124 0.9999
vn 0.4819 -0.1394 0.8651
vn 0.6907 -0.1531 0.7068
vn 0.9264 -0.2735 0.2587
vn 0.9386 -0.2281 0.2588
vn 0.9386 -0.2281 -0.2588
vn 0.9264 -0.2735 -0.2587
vn 0.6907 -0.1531 -0.7068
vn 0.4819 -0.1394 -0.8651
vn -0.0043 -0.0124 -0.9999
vn -0.4872 0.1206 -0.8649
vn -0.6745 0.2134 -0.7068
vn -0.9386 0.2281 -0.2588
vn -0.9264 0.2735 -0.2587
vn -0.9895 0.1444 -0.0000
vn -0.8583 0.1179 0.4995
vn -0.4975 0.0592 0.8654
vn -0.0023 -0.0097 0.9999
vn 0.4947 -0.0716 0.8661
vn 0.8594 -0.1090 0.4996
vn 0.9931 -0.1177 -0.0000
vn 0.8594 -0.1090 -0.4996
vn 0.4947 -0.0716 -0.8661
vn -0.0023 -0.0097 -0.9999
vn -0.4975 0.0592 -0.8654
vn -0.8583 0.1179 -0.4995
vn -0.8663 -0.0000 0.4995
vn 0.8658 -0.0000 0.5005
vn 0.8658 -0.0000 -0.5005
vn -0.8663 -0.0000 -0.4995
vn -0.9895 -0.1444 -0.0000
vn -0.8583 -0.1179 0.4995
vn -0.4975 -0.0592 0.8654
vn -0.0023 0.0097 0.9999
vn 0.4947 0.0716 0.8661
vn 0.8594 0.1090 0.4996
vn 0.9931 0.1177 -0.0000
vn 0.8594 0.1090 -0.4996
vn 0.4947 0.0716 -0.8661
vn -0.0023 0.0097 -0.9999
vn -0.4975 -0.0592 -0.8654
vn -0.8583 -0.1179 -0.4995
vn -0.6745 -0.2134 0.7068
vn -0.4872 -0.1206 0.8649
vn -0.0043 0.0124 0.9999
vn 0.4819 0.1394 0.8651
vn 0.6907 0.1531 0.7068
vn 0.6907 0.1531 -0.7068
vn 0.4819 0.1394 -0.8651
vn -0.0043 0.0124 -0.9999
vn -0.4872 -0.1206 -0.8649
vn -0.6745 -0.2134 -0.7068
vn -0.6392 -0.3034 0.7067
vn -0.4695 -0.1822 0.8639
vn -0.0064 0.0129 0.9999
vn 0.4612 0.2038 0.8636
vn 0.6663 0.2381 0.7067
vn 0.6663 0.2381 -0.7067
vn 0.4612 0.2038 -0.8636
vn -0.0064 0.0129 -0.9999
vn -0.4695 -0.1822 -0.8639
vn -0.6392 -0.3034 -0.7067
vn -0.8170 -0.5153 0.2586
vn -0.5930 -0.3861 0.7066
vn -0.4445 -0.2423 0.8624
vn -0.0083 0.0124 0.9999
vn 0.4327 0.2649 0.8617
vn 0.6305 0.3212 0.7066
vn 0.8170 0.5154 -0.2586
vn 0.6305 0.3212 -0.7066
vn 0.4327 0.2649 -0.8617
vn -0.0083 0.0124 -0.9999
vn -0.4445 -0.2423 -0.8624
vn -0.5930 -0.3861 -0.7066
vn -0.8170 -0.5153 -0.2586
vn -0.5368 -0.4611 0.7066
vn -0.4123 -0.2997 0.8604
vn -0.0102 0.0113 0.9999
vn 0.3968 0.3222 0.8595
vn 0.5838 0.3999 0.7066
vn 0.5838 0.3999 -0.7066
vn 0.3968 0.3222 -0.8595
vn -0.0102 0.0113 -0.9999
vn -0.4123 -0.2997 -0.8604
vn -0.5368 -0.4611 -0.7066
vn -0.4716 -0.5277 0.7065
vn -0.3732 -0.3535 0.8578
vn -0.0120 0.0096 0.9999
vn 0.3537 0.3746 0.8571
vn 0.5269 0.4724 0.7066
vn 0.5269 0.4724 -0.7066
vn 0.3537 0.3746 -0.8571
vn -0.0120 0.0096 -0.9999
vn -0.3732 -0.3535 -0.8578
vn -0.4716 -0.5277 -0.7065
vn -0.3985 -0.5848 0.7065
vn -0.3274 -0.4028 0.8547
vn -0.0136 0.0073 0.9999
vn 0.3037 0.4212 0.8546
vn 0.4607 0.5371 0.7066
vn 0.4607 0.5371 -0.7066
vn 0.3037 0.4212 -0.8546
vn -0.0136 0.0073 -0.9999
vn -0.3274 -0.4028 -0.8547
vn -0.3985 -0.5848 -0.7065
vn -0.3190 -0.6317 0.7066
vn -0.2753 -0.4470 0.8511
vn -0.0149 0.0041 0.9999
vn 0.2475 0.4603 0.8526
vn 0.3860 0.5930 0.7066
vn 0.3860 0.5930 -0.7066
vn 0.2475 0.4603 -0.8526
vn -0.0149 0.0041 -0.9999
vn -0.2753 -0.4470 -0.8511
vn -0.3190 -0.6317 -0.7066
vn -0.2347 -0.6676 0.7066
vn -0.2173 -0.4857 0.8467
vn -0.0159 -0.0009 0.9999
vn 0.1859 0.4901 0.8516
vn 0.3037 0.6391 0.7066
vn 0.3037 0.6391 -0.7066
vn 0.1859 0.4901 -0.8516
vn -0.0159 -0.0009 -0.9999
vn -0.2173 -0.4857 -0.8467
vn -0.2347 -0.6676 -0.7066
vn -0.2048 -0.9440 0.2585
vn -0.2464 -0.8733 0.4202
vn -0.1539 -0.5204 0.8399
vn -0.0165 -0.0111 0.9998
vn 0.1203 0.5064 0.8539
vn 0.2145 0.8803 0.4232
vn 0.2840 0.9233 0.2587
vn 0.2840 0.9233 -0.2587
vn 0.2145 0.8803 -0.4232
vn 0.1203 0.5064 -0.8539
vn -0.0165 -0.0111 -0.9998
vn -0.1539 -0.5204 -0.8399
vn -0.2464 -0.8733 -0.4202
vn -0.2048 -0.9440 -0.2585
vn -0.0874 -0.9620 0.2586
vn -0.1305 -0.9165 0.3781
vn -0.0841 -0.5626 0.8224
vn -0.0150 -0.0430 0.9990
vn 0.0540 0.4935 0.8681
vn 0.0996 0.8963 0.4320
vn 0.1479 0.9545 0.2588
vn 0.1479 0.9545 -0.2588
vn 0.0996 0.8963 -0.4320
vn 0.0540 0.4935 -0.8681
vn -0.0150 -0.0430 -0.9990
vn -0.0841 -0.5626 -0.8224
vn -0.1305 -0.9165 -0.3781
vn -0.0874 -0.9620 -0.2586
vn -0.0000 -0.9420 0.3356
vn -0.0000 -0.6090 0.7931
vn -0.0000 -0.0984 0.9951
vn -0.0000 0.4460 0.8950
vn -0.0000 0.8783 0.4781
vn -0.0000 0.8783 -0.4781
vn -0.0000 0.4460 -0.8950
vn -0.0000 -0.0984 -0.9951
vn -0.0000 -0.6090 -0.7931
vn -0.0000 -0.9420 -0.3356
vn 0.0874 -0.9620 0.2586
vn 0.1305 -0.9165 0.3781
vn 0.0841 -0.5626 0.8224
vn 0.0150 -0.0430 0.9990
vn -0.0540 0.4935 0.8681
vn -0.0996 0.8963 0.4320
vn -0.1479 0.9545 0.2588
vn -0.1479 0.9545 -0.2588
vn -0.0996 0.8963 -0.4320
vn -0.0540 0.4935 -0.8681
vn 0.0150 -0.0430 -0.9990
vn 0.0841 -0.5626 -0.8224
vn 0.1305 -0.9165 -0.3781
vn 0.0874 -0.9620 -0.2586
vn 0.2048 -0.9440 0.2585
vn 0.2464 -0.8733 0.4202
vn 0.1539 -0.5204 0.8399
vn 0.0165 -0.0111 0.9998
vn -0.1203 0.5064 0.8539
vn -0.2145 0.8803 0.4232
vn -0.2840 0.9233 0.2587
vn -0.2840 0.9233 -0.2587
vn -0.2145 0.8803 -0.4232
vn -0.1203 0.5064 -0.8539
vn 0.0165 -0.0111 -0.9998
vn 0.1539 -0.5204 -0.8399
vn 0.2464 -0.8733 -0.4202
vn 0.2048 -0.9440 -0.2585
vn 0.2347 -0.6676 0.7066
vn 0.2173 -0.4857 0.8467
vn 0.0159 -0.0009 0.9999
vn -0.1859 0.4901 0.8516
vn -0.3037 0.6391 0.7066
vn -0.3037 0.6391 -0.7066
vn -0.1859 0.4901 -0.8516
vn 0.0159 -0.0009 -0.9999
vn 0.2173 -0.4857 -0.8467
vn 0.2347 -0.6676 -0.7066
vn 0.3190 -0.6317 0.7066
vn 0.2753 -0.4470 0.8511
vn 0.0149 0.0041 0.9999
vn -0.2475 0.4603 0.8526
vn -0.3860 0.5930 0.7066
vn -0.3860 0.5930 -0.7066
vn -0.2475 0.4603 -0.8526
vn 0.0149 0.0041 -0.9999
vn 0.2753 -0.4470 -0.8511
vn 0.3190 -0.6317 -0.7066
vn 0.3985 -0.5848 0.7065
vn 0.3274 -0.4028 0.8547
vn 0.0135 0.0073 0.9999
vn -0.3037 0.4212 0.8546
vn -0.4607 0.5371 0.7066
vn -0.4607 0.5371 -0.7066
vn -0.3037 0.4212 -0.8546
vn 0.0135 0.0073 -0.9999
vn 0.3274 -0.4028 -0.8547
vn 0.3985 -0.5848 -0.7065
vn 0.4716 -0.5277 0.7066
vn 0.3732 -0.3535 0.8578
vn 0.0120 0.0096 0.9999
vn -0.3537 0.3746 0.8571
vn -0.5269 0.4724 0.7066
vn -0.5269 0.4724 -0.7066
vn -0.3537 0.3746 -0.8571
vn 0.0120 0.0096 -0.9999
vn 0.3732 -0.3535 -0.8578
vn 0.4716 -0.5277 -0.7066
vn 0.5368 -0.4611 0.7066
vn 0.4123 -0.2997 0.8604
vn 0.0102 0.0113 0.9999
vn -0.3968 0.3222 0.8595
vn -0.5838 0.3999 0.7066
vn -0.5838 0.3999 -0.7066
vn -0.3968 0.3222 -0.8595
vn 0.0102 0.0113 -0.9999
vn 0.4123 -0.2997 -0.8604
vn 0.5368 -0.4611 -0.7066
vn 0.5930 -0.3861 0.7066
vn 0.4445 -0.2423 0.8624
vn 0.0083 0.0124 0.9999
vn -0.4327 0.2649 0.8617
vn -0.6305 0.3212 0.7066
vn -0.8170 0.5154 0.2586
vn -0.8170 0.5154 -0.2586
vn -0.6305 0.3212 -0.7066
vn -0.4327 0.2649 -0.8617
vn 0.0083 0.0124 -0.9999
vn 0.4445 -0.2423 -0.8624
vn 0.5930 -0.3861 -0.7066
vn 0.6392 -0.3034 0.7067
vn 0.4695 -0.1822 0.8639
vn 0.0064 0.0129 0.9999
vn -0.4612 0.2038 0.8636
vn -0.6663 0.2381 0.7067
vn -0.6663 0.2381 -0.7067
vn -0.4612 0.2038 -0.8636
vn 0.0064 0.0129 -0.9999
vn 0.4695 -0.1822 -0.8639
vn 0.6392 -0.3034 -0.7067
vn 0.9386 -0.2281 0.2587
vn 0.6745 -0.2134 0.7068
vn 0.4872 -0.1206 0.8649
vn 0.0043 0.0124 0.9999
vn -0.4819 0.1394 0.8651
vn -0.6907 0.1531 0.7068
vn -0.6907 0.1531 -0.7068
vn -0.4819 0.1394 -0.8651
vn 0.0043 0.0124 -0.9999
vn 0.4872 -0.1206 -0.8649
vn 0.6745 -0.2134 -0.7068
vn 0.9386 -0.2281 -0.2587
vn 0.9895 -0.1444 -0.0000
vn 0.8583 -0.1179 0.4995
vn 0.4975 -0.0592 0.8654
vn 0.0023 0.0097 0.9999
vn -0.4947 0.0716 0.8661
vn -0.8594 0.1090 0.4996
vn -0.9931 0.1177 -0.0000
vn -0.8594 0.1090 -0.4996
vn -0.4947 0.0716 -0.8661
vn 0.0023 0.0097 -0.9999
vn 0.4975 -0.0592 -0.8654
vn 0.8583 -0.1179 -0.4995
vt 1.000000 0.500000
vt 1.000000 1.000000
vt 0.968750 1.000000
vt 0.968750 0.500000
vt 0.937500 1.000000
vt 0.937500 0.500000
vt 0.906250 1.000000
vt 0.906250 0.500000
vt 0.875000 1.000000
vt 0.875000 0.500000
vt 0.843750 1.000000
vt 0.843750 0.500000
vt 0.812500 1.000000
vt 0.812500 0.500000
vt 0.781250 1.000000
vt 0.781250 0.500000
vt 0.750000 1.000000
vt 0.750000 0.500000
vt 0.718750 1.000000
vt 0.718750 0.500000
vt 0.687500 1.000000
vt 0.687500 0.500000
vt 0.656250 1.000000
vt 0.656250 0.500000
vt 0.625000 1.000000
vt 0.625000 0.500000
vt 0.593750 1.000000
vt 0.593750 0.500000
vt 0.562500 1.000000
vt 0.562500 0.500000
vt 0.531250 1.000000
vt 0.531250 0.500000
vt 0.500000 1.000000
vt 0.500000 0.500000
vt 0.468750 1.000000
vt 0.468750 0.500000
vt 0.437500 1.000000
vt 0.437500 0.500000
vt 0.406250 1.000000
vt 0.406250 0.500000
vt 0.375000 1.000000
vt 0.375000 0.500000
vt 0.343750 1.000000
vt 0.343750 0.500000
vt 0.312500 1.000000
vt 0.312500 0.500000
vt 0.281250 1.000000
vt 0.281250 0.500000
vt 0.250000 1.000000
vt 0.250000 0.500000
vt 0.218750 1.000000
vt 0.218750 0.500000
vt 0.187500 1.000000
vt 0.187500 0.500000
vt 0.156250 1.000000
vt 0.156250 0.500000
vt 0.125000 1.000000
vt 0.125000 0.500000
vt 0.093750 1.000000
vt 0.093750 0.500000
vt 0.062500 1.000000
vt 0.062500 0.500000
vt 0.396956 0.189129
vt 0.406008 0.218968
vt 0.031250 1.000000
vt 0.031250 0.500000
vt 0.000000 1.000000
vt 0.000000 0.500000
vt 0.296822 0.485388
vt 0.250000 0.490000
vt 0.250000 0.409064
vt 0.281032 0.406008
vt 0.203178 0.485388
vt 0.218968 0.406008
vt 0.158156 0.471731
vt 0.189129 0.396956
vt 0.116663 0.449553
vt 0.161629 0.382257
vt 0.080294 0.419706
vt 0.137525 0.362475
vt 0.050447 0.383337
vt 0.117743 0.338371
vt 0.028269 0.341844
vt 0.103044 0.310871
vt 0.014612 0.296822
vt 0.093992 0.281032
vt 0.010000 0.250000
vt 0.090936 0.250000
vt 0.014612 0.203178
vt 0.093992 0.218968
vt 0.028269 0.158156
vt 0.103044 0.189129
vt 0.050447 0.116663
vt 0.117743 0.161629
vt 0.080294 0.080294
vt 0.137525 0.137525
vt 0.116663 0.050447
vt 0.161629 0.117743
vt 0.158156 0.028269
vt 0.189129 0.103044
vt 0.203178 0.014612
vt 0.218968 0.093992
vt 0.250000 0.010000
vt 0.250000 0.090936
vt 0.296822 0.014612
vt 0.281032 0.093992
vt 0.341844 0.028269
vt 0.310871 0.103044
vt 0.383337 0.050447
vt 0.338371 0.117743
vt 0.419706 0.080294
vt 0.362475 0.137525
vt 0.449553 0.116663
vt 0.382257 0.161629
vt 0.471731 0.158156
vt 0.485388 0.203178
vt 0.490000 0.250000
vt 0.409064 0.250000
vt 0.485388 0.296822
vt 0.406008 0.281032
vt 0.471731 0.341844
vt 0.396956 0.310871
vt 0.449553 0.383337
vt 0.382257 0.338371
vt 0.419706 0.419706
vt 0.362475 0.362475
vt 0.383337 0.449553
vt 0.338371 0.382257
vt 0.341844 0.471731
vt 0.310871 0.396956
vt 0.520833 0.500000
vt 0.520833 0.583333
vt 0.500000 0.583333
vt 0.520833 0.666667
vt 0.500000 0.666667
vt 0.520833 0.750000
vt 0.500000 0.750000
vt 0.520833 0.833333
vt 0.500000 0.833333
vt 0.520833 0.916667
vt 0.500000 0.916667
vt 0.520833 1.000000
vt 0.500000 0.000000
vt 0.520833 0.000000
vt 0.520833 0.083333
vt 0.500000 0.083333
vt 0.520833 0.166667
vt 0.500000 0.166667
vt 0.520833 0.250000
vt 0.500000 0.250000
vt 0.520833 0.333333
vt 0.500000 0.333333
vt 0.520833 0.416667
vt 0.500000 0.416667
vt 0.541667 0.500000
vt 0.541667 0.583333
vt 0.541667 0.666667
vt 0.541667 0.750000
vt 0.541667 0.833333
vt 0.541667 0.916667
vt 0.541667 1.000000
vt 0.541667 0.000000
vt 0.541667 0.083333
vt 0.541667 0.166667
vt 0.541667 0.250000
vt 0.541667 0.333333
vt 0.541667 0.416667
vt 0.562500 0.583333
vt 0.562500 0.666667
vt 0.562500 0.750000
vt 0.562500 0.833333
vt 0.562500 0.916667
vt 0.562500 0.000000
vt 0.562500 0.083333
vt 0.562500 0.166667
vt 0.562500 0.250000
vt 0.562500 0.333333
vt 0.562500 0.416667
vt 0.583333 0.500000
vt 0.583333 0.583333
vt 0.583333 0.666667
vt 0.583333 0.750000
vt 0.583333 0.833333
vt 0.583333 0.916667
vt 0.583333 1.000000
vt 0.583333 0.000000
vt 0.583333 0.083333
vt 0.583333 0.166667
vt 0.583333 0.250000
vt 0.583333 0.333333
vt 0.583333 0.416667
vt 0.604167 0.500000
vt 0.604167 0.583333
vt 0.604167 0.666667
vt 0.604167 0.750000
vt 0.604167 0.833333
vt 0.604167 0.916667
vt 0.604167 1.000000
vt 0.604167 0.000000
vt 0.604167 0.083333
vt 0.604167 0.166667
vt 0.604167 0.250000
vt 0.604167 0.333333
vt 0.604167 0.416667
vt 0.625000 0.583333
vt 0.625000 0.666667
vt 0.625000 0.750000
vt 0.625000 0.833333
vt 0.625000 0.916667
vt 0.625000 0.000000
vt 0.625000 0.083333
vt 0.625000 0.166667
vt 0.625000 0.250000
vt 0.625000 0.333333
vt 0.625000 0.416667
vt 0.645833 0.500000
vt 0.645833 0.583333
vt 0.645833 0.666667
vt 0.645833 0.750000
vt 0.645833 0.833333
vt 0.645833 0.916667
vt 0.645833 1.000000
vt 0.645833 0.000000
vt 0.645833 0.083333
vt 0.645833 0.166667
vt 0.645833 0.250000
vt 0.645833 0.333333
vt 0.645833 0.416667
vt 0.666667 0.500000
vt 0.666667 0.583333
vt 0.666667 0.666667
vt 0.666667 0.750000
vt 0.666667 0.833333
vt 0.666667 0.916667
vt 0.666667 1.000000
vt 0.666667 0.000000
vt 0.666667 0.083333
vt 0.666667 0.166667
vt 0.666667 0.250000
vt 0.666667 0.333333
vt 0.666667 0.416667
vt 0.687500 0.583333
vt 0.687500 0.666667
vt 0.687500 0.750000
vt 0.687500 0.833333
vt 0.687500 0.916667
vt 0.687500 0.000000
vt 0.687500 0.083333
vt 0.687500 0.166667
vt 0.687500 0.250000
vt 0.687500 0.333333
vt 0.687500 0.416667
vt 0.708333 0.500000
vt 0.708333 0.583333
vt 0.708333 0.666667
vt 0.708333 0.750000
vt 0.708333 0.833333
vt 0.708333 0.916667
vt 0.708333 1.000000
vt 0.708333 0.000000
vt 0.708333 0.083333
vt 0.708333 0.166667
vt 0.708333 0.250000
vt 0.708333 0.333333
vt 0.708333 0.416667
vt 0.729167 0.500000
vt 0.729167 0.583333
vt 0.729167 0.666667
vt 0.729167 0.750000
vt 0.729167 0.833333
vt 0.729167 0.916667
vt 0.729167 1.000000
vt 0.729167 0.000000
vt 0.729167 0.083333
vt 0.729167 0.166667
vt 0.729167 0.250000
vt 0.729167 0.333333
vt 0.729167 0.416667
vt 0.750000 0.583333
vt 0.750000 0.666667
vt 0.750000 0.750000
vt 0.750000 0.833333
vt 0.750000 0.916667
vt 0.750000 0.000000
vt 0.750000 0.083333
vt 0.750000 0.166667
vt 0.750000 0.250000
vt 0.750000 0.333333
vt 0.750000 0.416667
vt 0.770833 0.500000
vt 0.770833 0.583333
vt 0.770833 0.666667
vt 0.770833 0.750000
vt 0.770833 0.833333
vt 0.770833 0.916667
vt 0.770833 1.000000
vt 0.770833 0.000000
vt 0.770833 0.083333
vt 0.770833 0.166667
vt 0.770833 0.250000
vt 0.770833 0.333333
vt 0.770833 0.416667
vt 0.791667 0.500000
vt 0.791667 0.583333
vt 0.791667 0.666667
vt 0.791667 0.750000
vt 0.791667 0.833333
vt 0.791667 0.916667
vt 0.791667 1.000000
vt 0.791667 0.000000
vt 0.791667 0.083333
vt 0.791667 0.166667
vt 0.791667 0.250000
vt 0.791667 0.333333
vt 0.791667 0.416667
vt 0.812500 0.583333
vt 0.812500 0.666667
vt 0.812500 0.750000
vt 0.812500 0.833333
vt 0.812500 0.916667
vt 0.812500 0.000000
vt 0.812500 0.083333
vt 0.812500 0.166667
vt 0.812500 0.250000
vt 0.812500 0.333333
vt 0.812500 0.416667
vt 0.833333 0.500000
vt 0.833333 0.583333
vt 0.833333 0.666667
vt 0.833333 0.750000
vt 0.833333 0.833333
vt 0.833333 0.916667
vt 0.833333 1.000000
vt 0.833333 0.000000
vt 0.833333 0.083333
vt 0.833333 0.166667
vt 0.833333 0.250000
vt 0.833333 0.333333
vt 0.833333 0.416667
vt 0.854167 0.500000
vt 0.854167 0.583333
vt 0.854167 0.666667
vt 0.854167 0.750000
vt 0.854167 0.833333
vt 0.854167 0.916667
vt 0.854167 1.000000
vt 0.854167 0.000000
vt 0.854167 0.083333
vt 0.854167 0.166667
vt 0.854167 0.250000
vt 0.854167 0.333333
vt 0.854167 0.416667
vt 0.875000 0.583333
vt 0.875000 0.666667
vt 0.875000 0.750000
vt 0.875000 0.833333
vt 0.875000 0.916667
vt 0.875000 0.000000
vt 0.875000 0.083333
vt 0.875000 0.166667
vt 0.875000 0.250000
vt 0.875000 0.333333
vt 0.875000 0.416667
vt 0.895833 0.500000
vt 0.895833 0.583333
vt 0.895833 0.666667
vt 0.895833 0.750000
vt 0.895833 0.833333
vt 0.895833 0.916667
vt 0.895833 1.000000
vt 0.895833 0.000000
vt 0.895833 0.083333
vt 0.895833 0.166667
vt 0.895833 0.250000
vt 0.895833 0.333333
vt 0.895833 0.416667
vt 0.916667 0.500000
vt 0.916667 0.583333
vt 0.916667 0.666667
vt 0.916667 0.750000
vt 0.916667 0.833333
vt 0.916667 0.916667
vt 0.916667 1.000000
vt 0.916667 0.000000
vt 0.916667 0.083333
vt 0.916667 0.166667
vt 0.916667 0.250000
vt 0.916667 0.333333
vt 0.916667 0.416667
vt 0.937500 0.583333
vt 0.937500 0.666667
vt 0.937500 0.750000
vt 0.937500 0.833333
vt 0.937500 0.916667
vt 0.937500 0.000000
vt 0.937500 0.083333
vt 0.937500 0.166667
vt 0.937500 0.250000
vt 0.937500 0.333333
vt 0.937500 0.416667
vt 0.958333 0.500000
vt 0.958333 0.583333
vt 0.958333 0.666667
vt 0.958333 0.750000
vt 0.958333 0.833333
vt 0.958333 0.916667
vt 0.958333 1.000000
vt 0.958333 0.000000
vt 0.958333 0.083333
vt 0.958333 0.166667
vt 0.958333 0.250000
vt 0.958333 0.333333
vt 0.958333 0.416667
vt 0.979167 0.500000
vt 0.979167 0.583333
vt 0.979167 0.666667
vt 0.979167 0.750000
vt 0.979167 0.833333
vt 0.979167 0.916667
vt 0.979167 1.000000
vt 0.979167 0.000000
vt 0.979167 0.083333
vt 0.979167 0.166667
vt 0.979167 0.250000
vt 0.979167 0.333333
vt 0.979167 0.416667
vt 1.000000 0.583333
vt 1.000000 0.666667
vt 1.000000 0.750000
vt 1.000000 0.833333
vt 1.000000 0.916667
vt 1.000000 0.000000
vt 1.000000 0.083333
vt 1.000000 0.166667
vt 1.000000 0.250000
vt 1.000000 0.333333
vt 1.000000 0.416667
vt 0.000000 0.500000
vt 0.020833 0.500000
vt 0.020833 0.583333
vt 0.000000 0.583333
vt 0.020833 0.666667
vt 0.000000 0.666667
vt 0.020833 0.750000
vt 0.000000 0.750000
vt 0.020833 0.833333
vt 0.000000 0.833333
vt 0.020833 0.916667
vt 0.000000 0.916667
vt 0.020833 1.000000
vt 0.000000 1.000000
vt 0.000000 0.000000
vt 0.020833 0.000000
vt 0.020833 0.083333
vt 0.000000 0.083333
vt 0.020833 0.166667
vt 0.000000 0.166667
vt 0.020833 0.250000
vt 0.000000 0.250000
vt 0.020833 0.333333
vt 0.000000 0.333333
vt 0.020833 0.416667
vt 0.000000 0.416667
vt 0.041667 0.500000
vt 0.041667 0.583333
vt 0.041667 0.666667
vt 0.041667 0.750000
vt 0.041667 0.833333
vt 0.041667 0.916667
vt 0.041667 1.000000
vt 0.041667 0.000000
vt 0.041667 0.083333
vt 0.041667 0.166667
vt 0.041667 0.250000
vt 0.041667 0.333333
vt 0.041667 0.416667
vt 0.062500 0.583333
vt 0.062500 0.666667
vt 0.062500 0.750000
vt 0.062500 0.833333
vt 0.062500 0.916667
vt 0.062500 0.000000
vt 0.062500 0.083333
vt 0.062500 0.166667
vt 0.062500 0.250000
vt 0.062500 0.333333
vt 0.062500 0.416667
vt 0.083333 0.500000
vt 0.083333 0.583333
vt 0.083333 0.666667
vt 0.083333 0.750000
vt 0.083333 0.833333
vt 0.083333 0.916667
vt 0.083333 1.000000
vt 0.083333 0.000000
vt 0.083333 0.083333
vt 0.083333 0.166667
vt 0.083333 0.250000
vt 0.083333 0.333333
vt 0.083333 0.416667
vt 0.104167 0.500000
vt 0.104167 0.583333
vt 0.104167 0.666667
vt 0.104167 0.750000
vt 0.104167 0.833333
vt 0.104167 0.916667
vt 0.104167 1.000000
vt 0.104167 0.000000
vt 0.104167 0.083333
vt 0.104167 0.166667
vt 0.104167 0.250000
vt 0.104167 0.333333
vt 0.104167 0.416667
vt 0.125000 0.583333
vt 0.125000 0.666667
vt 0.125000 0.750000
vt 0.125000 0.833333
vt 0.125000 0.916667
vt 0.125000 0.000000
vt 0.125000 0.083333
vt 0.125000 0.166667
vt 0.125000 0.250000
vt 0.125000 0.333333
vt 0.125000 0.416667
vt 0.145833 0.500000
vt 0.145833 0.583333
vt 0.145833 0.666667
vt 0.145833 0.750000
vt 0.145833 0.833333
vt 0.145833 0.916667
vt 0.145833 1.000000
vt 0.145833 0.000000
vt 0.145833 0.083333
vt 0.145833 0.166667
vt 0.145833 0.250000
vt 0.145833 0.333333
vt 0.145833 0.416667
vt 0.166667 0.500000
vt 0.166667 0.583333
vt 0.166667 0.666667
vt 0.166667 0.750000
vt 0.166667 0.833333
vt 0.166667 0.916667
vt 0.166667 1.000000
vt 0.166667 0.000000
vt 0.166667 0.083333
vt 0.166667 0.166667
vt 0.166667 0.250000
vt 0.166667 0.333333
vt 0.166667 0.416667
vt 0.187500 0.583333
vt 0.187500 0.666667
vt 0.187500 0.750000
vt 0.187500 0.833333
vt 0.187500 0.916667
vt 0.187500 0.000000
vt 0.187500 0.083333
vt 0.187500 0.166667
vt 0.187500 0.250000
vt 0.187500 0.333333
vt 0.187500 0.416667
vt 0.208333 0.500000
vt 0.208333 0.583333
vt 0.208333 0.666667
vt 0.208333 0.750000
vt 0.208333 0.833333
vt 0.208333 0.916667
vt 0.208333 1.000000
vt 0.208333 0.000000
vt 0.208333 0.083333
vt 0.208333 0.166667
vt 0.208333 0.250000
vt 0.208333 0.333333
vt 0.208333 0.416667
vt 0.229167 0.500000
vt 0.229167 0.583333
vt 0.229167 0.666667
vt 0.229167 0.750000
vt 0.229167 0.833333
vt 0.229167 0.916667
vt 0.229167 1.000000
vt 0.229167 0.000000
vt 0.229167 0.083333
vt 0.229167 0.166667
vt 0.229167 0.250000
vt 0.229167 0.333333
vt 0.229167 0.416667
vt 0.250000 0.583333
vt 0.250000 0.666667
vt 0.250000 0.750000
vt 0.250000 0.833333
vt 0.250000 0.916667
vt 0.250000 0.000000
vt 0.250000 0.083333
vt 0.250000 0.166667
vt 0.250000 0.250000
vt 0.250000 0.333333
vt 0.250000 0.416667
vt 0.270833 0.500000
vt 0.270833 0.583333
vt 0.270833 0.666667
vt 0.270833 0.750000
vt 0.270833 0.833333
vt 0.270833 0.916667
vt 0.270833 1.000000
vt 0.270833 0.000000
vt 0.270833 0.083333
vt 0.270833 0.166667
vt 0.270833 0.250000
vt 0.270833 0.333333
vt 0.270833 0.416667
vt 0.291667 0.500000
vt 0.291667 0.583333
vt 0.291667 0.666667
vt 0.291667 0.750000
vt 0.291667 0.833333
vt 0.291667 0.916667
vt 0.291667 1.000000
vt 0.291667 0.000000
vt 0.291667 0.083333
vt 0.291667 0.166667
vt 0.291667 0.250000
vt 0.291667 0.333333
vt 0.291667 0.416667
vt 0.312500 0.583333
vt 0.312500 0.666667
vt 0.312500 0.750000
vt 0.312500 0.833333
vt 0.312500 0.916667
vt 0.312500 0.000000
vt 0.312500 0.083333
vt 0.312500 0.166667
vt 0.312500 0.250000
vt 0.312500 0.333333
vt 0.312500 0.416667
vt 0.333333 0.500000
vt 0.333333 0.583333
vt 0.333333 0.666667
vt 0.333333 0.750000
vt 0.333333 0.833333
vt 0.333333 0.916667
vt 0.333333 1.000000
vt 0.333333 0.000000
vt 0.333333 0.083333
vt 0.333333 0.166667
vt 0.333333 0.250000
vt 0.333333 0.333333
vt 0.333333 0.416667
vt 0.354167 0.500000
vt 0.354167 0.583333
vt 0.354167 0.666667
vt 0.354167 0.750000
vt 0.354167 0.833333
vt 0.354167 0.916667
vt 0.354167 1.000000
vt 0.354167 0.000000
vt 0.354167 0.083333
vt 0.354167 0.166667
vt 0.354167 0.250000
vt 0.354167 0.333333
vt 0.354167 0.416667
vt 0.375000 0.583333
vt 0.375000 0.666667
vt 0.375000 0.750000
vt 0.375000 0.833333
vt 0.375000 0.916667
vt 0.375000 0.000000
vt 0.375000 0.083333
vt 0.375000 0.166667
vt 0.375000 0.250000
vt 0.375000 0.333333
vt 0.375000 0.416667
vt 0.395833 0.500000
vt 0.395833 0.583333
vt 0.395833 0.666667
vt 0.395833 0.750000
vt 0.395833 0.833333
vt 0.395833 0.916667
vt 0.395833 1.000000
vt 0.395833 0.000000
vt 0.395833 0.083333
vt 0.395833 0.166667
vt 0.395833 0.250000
vt 0.395833 0.333333
vt 0.395833 0.416667
vt 0.416667 0.500000
vt 0.416667 0.583333
vt 0.416667 0.666667
vt 0.416667 0.750000
vt 0.416667 0.833333
vt 0.416667 0.916667
vt 0.416667 1.000000
vt 0.416667 0.000000
vt 0.416667 0.083333
vt 0.416667 0.166667
vt 0.416667 0.250000
vt 0.416667 0.333333
vt 0.416667 0.416667
vt 0.437500 0.583333
vt 0.437500 0.666667
vt 0.437500 0.750000
vt 0.437500 0.833333
vt 0.437500 0.916667
vt 0.437500 0.000000
vt 0.437500 0.083333
vt 0.437500 0.166667
vt 0.437500 0.250000
vt 0.437500 0.333333
vt 0.437500 0.416667
vt 0.458333 0.500000
vt 0.458333 0.583333
vt 0.458333 0.666667
vt 0.458333 0.750000
vt 0.458333 0.833333
vt 0.458333 0.916667
vt 0.458333 1.000000
vt 0.458333 0.000000
vt 0.458333 0.083333
vt 0.458333 0.166667
vt 0.458333 0.250000
vt 0.458333 0.333333
vt 0.458333 0.416667
vt 0.479167 0.500000
vt 0.479167 0.583333
vt 0.479167 0.666667
vt 0.479167 0.750000
vt 0.479167 0.833333
vt 0.479167 0.916667
vt 0.479167 1.000000
vt 0.479167 0.000000
vt 0.479167 0.083333
vt 0.479167 0.166667
vt 0.479167 0.250000
vt 0.479167 0.333333
vt 0.479167 0.416667
s 1
f 1/1/1 2/2/1 4/3/2 3/4/2
f 3/4/2 4/3/2 6/5/3 5/6/3
f 5/6/3 6/5/3 8/7/4 7/8/4
f 7/8/4 8/7/4 10/9/5 9/10/5
f 9/10/5 10/9/5 12/11/6 11/12/6
f 11/12/6 12/11/6 14/13/7 13/14/7
f 13/14/7 14/13/7 16/15/8 15/16/8
f 15/16/8 16/15/8 18/17/9 17/18/9
f 17/18/9 18/17/9 20/19/10 19/20/10
f 19/20/10 20/19/10 22/21/11 21/22/11
f 21/22/11 22/21/11 24/23/12 23/24/12
f 23/24/12 24/23/12 26/25/13 25/26/13
f 25/26/13 26/25/13 28/27/14 27/28/14
f 27/28/14 28/27/14 30/29/15 29/30/15
f 29/30/15 30/29/15 32/31/16 31/32/16
f 31/32/16 32/31/16 34/33/17 33/34/17
f 33/34/17 34/33/17 36/35/18 35/36/18
f 35/36/18 36/35/18 38/37/19 37/38/19
f 37/38/19 38/37/19 40/39/20 39/40/20
f 39/40/20 40/39/20 42/41/21 41/42/21
f 41/42/21 42/41/21 44/43/22 43/44/22
f 43/44/22 44/43/22 46/45/23 45/46/23
f 45/46/23 46/45/23 48/47/24 47/48/24
f 47/48/24 48/47/24 50/49/25 49/50/25
f 49/50/25 50/49/25 52/51/26 51/52/26
f 51/52/26 52/51/26 54/53/27 53/54/27
f 53/54/27 54/53/27 56/55/28 55/56/28
f 55/56/28 56/55/28 58/57/29 57/58/29
f 57/58/29 58/57/29 60/59/30 59/60/30
f 59/60/30 60/59/30 62/61/31 61/62/31
f 88/63/32 89/64/33 122/64/33 121/63/32
f 61/62/31 62/61/31 64/65/34 63/66/34
f 63/66/34 64/65/34 2/67/1 1/68/1
f 4/69/35 2/70/35 66/71/35 65/72/35
f 2/70/35 64/73/35 67/74/35 66/71/35
f 64/73/35 62/75/35 68/76/35 67/74/35
f 62/75/35 60/77/35 69/78/35 68/76/35
f 60/77/35 58/79/35 70/80/35 69/78/35
f 58/79/35 56/81/35 71/82/35 70/80/35
f 56/81/35 54/83/35 72/84/35 71/82/35
f 54/83/35 52/85/35 73/86/35 72/84/35
f 52/85/35 50/87/35 74/88/35 73/86/35
f 50/87/35 48/89/35 75/90/35 74/88/35
f 48/89/35 46/91/35 76/92/35 75/90/35
f 46/91/35 44/93/35 77/94/35 76/92/35
f 44/93/35 42/95/35 78/96/35 77/94/35
f 42/95/35 40/97/35 79/98/35 78/96/35
f 40/97/35 38/99/35 80/100/35 79/98/35
f 38/99/35 36/101/35 81/102/35 80/100/35
f 36/101/35 34/103/35 82/104/35 81/102/35
f 34/103/35 32/105/35 83/106/35 82/104/35
f 32/105/35 30/107/35 84/108/35 83/106/35
f 30/107/35 28/109/35 85/110/35 84/108/35
f 28/109/35 26/111/35 86/112/35 85/110/35
f 26/111/35 24/113/35 87/114/35 86/112/35
f 24/113/35 22/115/35 88/63/35 87/114/35
f 22/115/35 20/116/35 89/64/35 88/63/35
f 20/116/35 18/117/35 90/118/35 89/64/35
f 18/117/35 16/119/35 91/120/35 90/118/35
f 16/119/35 14/121/35 92/122/35 91/120/35
f 14/121/35 12/123/35 93/124/35 92/122/35
f 12/123/35 10/125/35 94/126/35 93/124/35
f 10/125/35 8/127/35 95/128/35 94/126/35
f 8/127/35 6/129/35 96/130/35 95/128/35
f 6/129/35 4/69/35 65/72/35 96/130/35
f 97/72/35 98/71/35 100/74/35 101/76/35 102/78/35 103/80/35 104/82/35 105/84/35 106/86/35 107/88/35 108/90/35 109/92/35 110/94/35 111/96/35 112/98/35 113/100/35 114/102/35 115/104/35 116/106/35 117/108/35 118/110/35 119/112/35 120/114/35 121/63/35 122/64/35 123/118/35 124/120/35 125/122/35 126/124/35 127/126/35 128/128/35 99/130/35
f 75/90/36 76/92/37 109/92/37 108/90/36
f 89/64/33 90/118/38 123/118/38 122/64/33
f 76/92/37 77/94/39 110/94/39 109/92/37
f 90/118/38 91/120/40 124/120/40 123/118/38
f 77/94/39 78/96/41 111/96/41 110/94/39
f 65/72/42 66/71/43 98/71/43 97/72/42
f 91/120/40 92/122/44 125/122/44 124/120/40
f 78/96/41 79/98/45 112/98/45 111/96/41
f 96/130/46 65/72/42 97/72/42 99/130/46
f 92/122/44 93/124/47 126/124/47 125/122/44
f 79/98/45 80/100/48 113/100/48 112/98/45
f 66/71/43 67/74/49 100/74/49 98/71/43
f 93/124/47 94/126/50 127/126/50 126/124/47
f 80/100/48 81/102/51 114/102/51 113/100/48
f 67/74/49 68/76/52 101/76/52 100/74/49
f 94/126/50 95/128/53 128/128/53 127/126/50
f 81/102/51 82/104/54 115/104/54 114/102/51
f 68/76/52 69/78/55 102/78/55 101/76/52
f 95/128/53 96/130/46 99/130/46 128/128/53
f 82/104/54 83/106/56 116/106/56 115/104/54
f 69/78/55 70/80/57 103/80/57 102/78/55
f 83/106/56 84/108/58 117/108/58 116/106/56
f 70/80/57 71/82/59 104/82/59 103/80/57
f 84/108/58 85/110/60 118/110/60 117/108/58
f 71/82/59 72/84/61 105/84/61 104/82/59
f 85/110/60 86/112/62 119/112/62 118/110/60
f 72/84/61 73/86/63 106/86/63 105/84/61
f 86/112/62 87/114/64 120/114/64 119/112/62
f 73/86/63 74/88/65 107/88/65 106/86/63
f 87/114/64 88/63/32 121/63/32 120/114/64
f 74/88/65 75/90/36 108/90/36 107/88/65
f 129/34/9 141/131/66 142/132/67 130/133/68
f 130/133/68 142/132/67 143/134/69 131/135/13
f 131/135/70 143/134/69 144/136/71 132/137/70
f 132/137/72 144/136/71 145/138/73 133/139/72
f 133/139/21 145/138/73 146/140/74 134/141/75
f 134/141/75 146/140/74 147/142/76 135/33/25
f 135/143/25 147/144/76 148/145/77 136/146/78
f 136/146/78 148/145/77 149/147/79 137/148/29
f 137/148/80 149/147/79 150/149/81 138/150/80
f 138/150/82 150/149/81 151/151/83 139/152/82
f 139/152/5 151/151/83 152/153/84 140/154/85
f 140/154/85 152/153/84 141/131/66 129/34/9
f 141/131/66 153/155/86 154/156/87 142/132/67
f 142/132/67 154/156/88 155/157/89 143/134/69
f 143/134/69 155/157/89 156/158/90 144/136/71
f 144/136/71 156/158/90 157/159/91 145/138/73
f 145/138/73 157/159/91 158/160/92 146/140/74
f 146/140/74 158/160/93 159/161/94 147/142/76
f 147/144/76 159/162/95 160/163/96 148/145/77
f 148/145/77 160/163/97 161/164/98 149/147/79
f 149/147/79 161/164/98 162/165/99 150/149/81
f 150/149/81 162/165/99 163/166/100 151/151/83
f 151/151/83 163/166/100 164/167/101 152/153/84
f 152/153/84 164/167/102 153/155/103 141/131/66
f 153/155/86 165/30/104 166/168/105 154/156/87
f 154/156/88 166/168/106 167/169/107 155/157/89
f 155/157/89 167/169/107 168/170/108 156/158/90
f 156/158/90 168/170/108 169/171/109 157/159/91
f 157/159/91 169/171/109 170/172/110 158/160/92
f 158/160/93 170/172/111 171/29/112 159/161/94
f 159/162/95 171/173/113 172/174/114 160/163/96
f 160/163/97 172/174/115 173/175/116 161/164/98
f 161/164/98 173/175/116 174/176/117 162/165/99
f 162/165/99 174/176/117 175/177/118 163/166/100
f 163/166/100 175/177/118 176/178/119 164/167/101
f 164/167/102 176/178/120 165/30/121 153/155/103
f 165/30/104 177/179/122 178/180/123 166/168/105
f 166/168/106 178/180/124 179/181/125 167/169/107
f 167/169/107 179/181/125 180/182/126 168/170/108
f 168/170/108 180/182/126 181/183/127 169/171/109
f 169/171/109 181/183/127 182/184/128 170/172/110
f 170/172/111 182/184/129 183/185/130 171/29/112
f 171/173/113 183/186/131 184/187/132 172/174/114
f 172/174/115 184/187/133 185/188/134 173/175/116
f 173/175/116 185/188/134 186/189/135 174/176/117
f 174/176/117 186/189/135 187/190/136 175/177/118
f 175/177/118 187/190/136 188/191/137 176/178/119
f 176/178/120 188/191/138 177/179/139 165/30/121
f 177/179/122 189/192/140 190/193/141 178/180/123
f 178/180/124 190/193/142 191/194/143 179/181/125
f 179/181/125 191/194/143 192/195/144 180/182/126
f 180/182/126 192/195/144 193/196/145 181/183/127
f 181/183/127 193/196/145 194/197/146 182/184/128
f 182/184/129 194/197/147 195/198/148 183/185/130
f 183/186/131 195/199/149 196/200/150 184/187/132
f 184/187/133 196/200/151 197/201/152 185/188/134
f 185/188/134 197/201/152 198/202/153 186/189/135
f 186/189/135 198/202/153 199/203/154 187/190/136
f 187/190/136 199/203/154 200/204/155 188/191/137
f 188/191/138 200/204/156 189/192/157 177/179/139
f 189/192/140 201/26/158 202/205/159 190/193/141
f 190/193/142 202/205/160 203/206/161 191/194/143
f 191/194/143 203/206/161 204/207/162 192/195/144
f 192/195/144 204/207/162 205/208/163 193/196/145
f 193/196/145 205/208/163 206/209/164 194/197/146
f 194/197/147 206/209/165 207/25/166 195/198/148
f 195/199/149 207/210/167 208/211/168 196/200/150
f 196/200/151 208/211/169 209/212/170 197/201/152
f 197/201/152 209/212/170 210/213/171 198/202/153
f 198/202/153 210/213/171 211/214/172 199/203/154
f 199/203/154 211/214/172 212/215/173 200/204/155
f 200/204/156 212/215/174 201/26/175 189/192/157
f 201/26/158 213/216/176 214/217/177 202/205/159
f 202/205/160 214/217/178 215/218/179 203/206/161
f 203/206/161 215/218/179 216/219/180 204/207/162
f 204/207/162 216/219/180 217/220/181 205/208/163
f 205/208/163 217/220/181 218/221/182 206/209/164
f 206/209/165 218/221/183 219/222/184 207/25/166
f 207/210/167 219/223/185 220/224/186 208/211/168
f 208/211/169 220/224/187 221/225/188 209/212/170
f 209/212/170 221/225/188 222/226/189 210/213/171
f 210/213/171 222/226/189 223/227/190 211/214/172
f 211/214/172 223/227/190 224/228/191 212/215/173
f 212/215/174 224/228/192 213/216/193 201/26/175
f 213/216/176 225/229/194 226/230/195 214/217/177
f 214/217/178 226/230/196 227/231/197 215/218/179
f 215/218/179 227/231/197 228/232/198 216/219/180
f 216/219/180 228/232/198 229/233/199 217/220/181
f 217/220/181 229/233/199 230/234/200 218/221/182
f 218/221/183 230/234/201 231/235/202 219/222/184
f 219/223/185 231/236/203 232/237/204 220/224/186
f 220/224/187 232/237/205 233/238/206 221/225/188
f 221/225/188 233/238/206 234/239/207 222/226/189
f 222/226/189 234/239/207 235/240/208 223/227/190
f 223/227/190 235/240/208 236/241/209 224/228/191
f 224/228/192 236/241/210 225/229/211 213/216/193
f 225/229/194 237/22/212 238/242/213 226/230/195
f 226/230/196 238/242/214 239/243/215 227/231/197
f 227/231/197 239/243/215 240/244/216 228/232/198
f 228/232/198 240/244/216 241/245/217 229/233/199
f 229/233/199 241/245/217 242/246/218 230/234/200
f 230/234/201 242/246/219 243/21/220 231/235/202
f 231/236/203 243/247/221 244/248/222 232/237/204
f 232/237/205 244/248/223 245/249/224 233/238/206
f 233/238/206 245/249/224 246/250/225 234/239/207
f 234/239/207 246/250/225 247/251/226 235/240/208
f 235/240/208 247/251/226 248/252/227 236/241/209
f 236/241/210 248/252/228 237/22/229 225/229/211
f 237/22/212 249/253/230 250/254/231 238/242/213
f 238/242/214 250/254/231 251/255/232 239/243/215
f 239/243/215 251/255/232 252/256/233 240/244/216
f 240/244/216 252/256/233 253/257/234 241/245/217
f 241/245/217 253/257/234 254/258/235 242/246/218
f 242/246/219 254/258/235 255/259/236 243/21/220
f 243/247/221 255/260/237 256/261/238 244/248/222
f 244/248/223 256/261/238 257/262/239 245/249/224
f 245/249/224 257/262/239 258/263/240 246/250/225
f 246/250/225 258/263/240 259/264/241 247/251/226
f 247/251/226 259/264/241 260/265/242 248/252/227
f 248/252/228 260/265/242 249/253/243 237/22/229
f 249/253/230 261/266/244 262/267/245 250/254/231
f 250/254/231 262/267/245 263/268/246 251/255/232
f 251/255/232 263/268/246 264/269/247 252/256/233
f 252/256/233 264/269/247 265/270/248 253/257/234
f 253/257/234 265/270/248 266/271/249 254/258/235
f 254/258/235 266/271/249 267/272/250 255/259/236
f 255/260/237 267/273/251 268/274/252 256/261/238
f 256/261/238 268/274/252 269/275/253 257/262/239
f 257/262/239 269/275/253 270/276/254 258/263/240
f 258/263/240 270/276/254 271/277/255 259/264/241
f 259/264/241 271/277/255 272/278/256 260/265/242
f 260/265/242 272/278/256 261/266/257 249/253/243
f 261/266/244 273/18/258 274/279/259 262/267/245
f 262/267/245 274/279/259 275/280/260 263/268/246
f 263/268/246 275/280/260 276/281/261 264/269/247
f 264/269/247 276/281/261 277/282/262 265/270/248
f 265/270/248 277/282/262 278/283/263 266/271/249
f 266/271/249 278/283/263 279/17/264 267/272/250
f 267/273/251 279/284/265 280/285/266 268/274/252
f 268/274/252 280/285/266 281/286/267 269/275/253
f 269/275/253 281/286/267 282/287/268 270/276/254
f 270/276/254 282/287/268 283/288/269 271/277/255
f 271/277/255 283/288/269 284/289/270 272/278/256
f 272/278/256 284/289/270 273/18/271 261/266/257
f 273/18/258 285/290/272 286/291/273 274/279/259
f 274/279/259 286/291/273 287/292/274 275/280/260
f 275/280/260 287/292/274 288/293/275 276/281/261
f 276/281/261 288/293/275 289/294/276 277/282/262
f 277/282/262 289/294/276 290/295/277 278/283/263
f 278/283/263 290/295/277 291/296/278 279/17/264
f 279/284/265 291/297/279 292/298/280 280/285/266
f 280/285/266 292/298/280 293/299/281 281/286/267
f 281/286/267 293/299/281 294/300/282 282/287/268
f 282/287/268 294/300/282 295/301/283 283/288/269
f 283/288/269 295/301/283 296/302/284 284/289/270
f 284/289/270 296/302/284 285/290/285 273/18/271
f 285/290/272 297/303/286 298/304/287 286/291/273
f 286/291/273 298/304/287 299/305/288 287/292/274
f 287/292/274 299/305/288 300/306/289 288/293/275
f 288/293/275 300/306/289 301/307/290 289/294/276
f 289/294/276 301/307/290 302/308/291 290/295/277
f 290/295/277 302/308/291 303/309/292 291/296/278
f 291/297/279 303/310/293 304/311/294 292/298/280
f 292/298/280 304/311/294 305/312/295 293/299/281
f 293/299/281 305/312/295 306/313/296 294/300/282
f 294/300/282 306/313/296 307/314/297 295/301/283
f 295/301/283 307/314/297 308/315/298 296/302/284
f 296/302/284 308/315/298 297/303/299 285/290/285
f 297/303/286 309/14/300 310/316/301 298/304/287
f 298/304/287 310/316/302 311/317/303 299/305/288
f 299/305/288 311/317/303 312/318/304 300/306/289
f 300/306/289 312/318/304 313/319/305 301/307/290
f 301/307/290 313/319/305 314/320/306 302/308/291
f 302/308/291 314/320/307 315/13/308 303/309/292
f 303/310/293 315/321/309 316/322/310 304/311/294
f 304/311/294 316/322/311 317/323/312 305/312/295
f 305/312/295 317/323/312 318/324/313 306/313/296
f 306/313/296 318/324/313 319/325/314 307/314/297
f 307/314/297 319/325/314 320/326/315 308/315/298
f 308/315/298 320/326/316 309/14/317 297/303/299
f 309/14/300 321/327/318 322/328/319 310/316/301
f 310/316/302 322/328/320 323/329/321 311/317/303
f 311/317/303 323/329/321 324/330/322 312/318/304
f 312/318/304 324/330/322 325/331/323 313/319/305
f 313/319/305 325/331/323 326/332/324 314/320/306
f 314/320/307 326/332/325 327/333/326 315/13/308
f 315/321/309 327/334/327 328/335/328 316/322/310
f 316/322/311 328/335/329 329/336/330 317/323/312
f 317/323/312 329/336/330 330/337/331 318/324/313
f 318/324/313 330/337/331 331/338/332 319/325/314
f 319/325/314 331/338/332 332/339/333 320/326/315
f 320/326/316 332/339/334 321/327/335 309/14/317
f 321/327/318 333/340/336 334/341/337 322/328/319
f 322/328/320 334/341/338 335/342/339 323/329/321
f 323/329/321 335/342/339 336/343/340 324/330/322
f 324/330/322 336/343/340 337/344/341 325/331/323
f 325/331/323 337/344/341 338/345/342 326/332/324
f 326/332/325 338/345/343 339/346/344 327/333/326
f 327/334/327 339/347/345 340/348/346 328/335/328
f 328/335/329 340/348/347 341/349/348 329/336/330
f 329/336/330 341/349/348 342/350/349 330/337/331
f 330/337/331 342/350/349 343/351/350 331/338/332
f 331/338/332 343/351/350 344/352/351 332/339/333
f 332/339/334 344/352/352 333/340/353 321/327/335
f 333/340/336 345/10/354 346/353/355 334/341/337
f 334/341/338 346/353/356 347/354/357 335/342/339
f 335/342/339 347/354/357 348/355/358 336/343/340
f 336/343/340 348/355/358 349/356/359 337/344/341
f 337/344/341 349/356/359 350/357/360 338/345/342
f 338/345/343 350/357/361 351/9/362 339/346/344
f 339/347/345 351/358/363 352/359/364 340/348/346
f 340/348/347 352/359/365 353/360/366 341/349/348
f 341/349/348 353/360/366 354/361/367 342/350/349
f 342/350/349 354/361/367 355/362/368 343/351/350
f 343/351/350 355/362/368 356/363/369 344/352/351
f 344/352/352 356/363/370 345/10/371 333/340/353
f 345/10/354 357/364/372 358/365/373 346/353/355
f 346/353/356 358/365/374 359/366/375 347/354/357
f 347/354/357 359/366/375 360/367/376 348/355/358
f 348/355/358 360/367/376 361/368/377 349/356/359
f 349/356/359 361/368/377 362/369/378 350/357/360
f 350/357/361 362/369/379 363/370/380 351/9/362
f 351/358/363 363/371/381 364/372/382 352/359/364
f 352/359/365 364/372/383 365/373/384 353/360/366
f 353/360/366 365/373/384 366/374/385 354/361/367
f 354/361/367 366/374/385 367/375/386 355/362/368
f 355/362/368 367/375/386 368/376/387 356/363/369
f 356/363/370 368/376/388 357/364/389 345/10/371
f 357/364/372 369/377/390 370/378/391 358/365/373
f 358/365/374 370/378/392 371/379/393 359/366/375
f 359/366/375 371/379/393 372/380/394 360/367/376
f 360/367/376 372/380/394 373/381/395 361/368/377
f 361/368/377 373/381/395 374/382/396 362/369/378
f 362/369/379 374/382/397 375/383/398 363/370/380
f 363/371/381 375/384/399 376/385/400 364/372/382
f 364/372/383 376/385/401 377/386/402 365/373/384
f 365/373/384 377/386/402 378/387/403 366/374/385
f 366/374/385 378/387/403 379/388/404 367/375/386
f 367/375/386 379/388/404 380/389/405 368/376/387
f 368/376/388 380/389/406 369/377/407 357/364/389
f 369/377/390 381/6/408 382/390/409 370/378/391
f 370/378/392 382/390/410 383/391/411 371/379/393
f 371/379/393 383/391/411 384/392/412 372/380/394
f 372/380/394 384/392/412 385/393/413 373/381/395
f 373/381/395 385/393/413 386/394/414 374/382/396
f 374/382/397 386/394/415 387/5/416 375/383/398
f 375/384/399 387/395/417 388/396/418 376/385/400
f 376/385/401 388/396/419 389/397/420 377/386/402
f 377/386/402 389/397/420 390/398/421 378/387/403
f 378/387/403 390/398/421 391/399/422 379/388/404
f 379/388/404 391/399/422 392/400/423 380/389/405
f 380/389/406 392/400/424 381/6/425 369/377/407
f 381/6/408 393/401/426 394/402/427 382/390/409
f 382/390/410 394/402/428 395/403/429 383/391/411
f 383/391/411 395/403/429 396/404/430 384/392/412
f 384/392/412 396/404/430 397/405/431 385/393/413
f 385/393/413 397/405/431 398/406/432 386/394/414
f 386/394/415 398/406/433 399/407/434 387/5/416
f 387/395/417 399/408/435 400/409/436 388/396/418
f 388/396/419 400/409/437 401/410/438 389/397/420
f 389/397/420 401/410/438 402/411/439 390/398/421
f 390/398/421 402/411/439 403/412/440 391/399/422
f 391/399/422 403/412/440 404/413/441 392/400/423
f 392/400/424 404/413/442 393/401/443 381/6/425
f 393/401/426 405/414/444 406/415/445 394/402/427
f 394/402/428 406/415/445 407/416/446 395/403/429
f 395/403/429 407/416/446 408/417/447 396/404/430
f 396/404/430 408/417/447 409/418/448 397/405/431
f 397/405/431 409/418/448 410/419/449 398/406/432
f 398/406/433 410/419/449 411/420/450 399/407/434
f 399/408/435 411/421/450 412/422/451 400/409/436
f 400/409/437 412/422/451 413/423/452 401/410/438
f 401/410/438 413/423/452 414/424/453 402/411/439
f 402/411/439 414/424/453 415/425/454 403/412/440
f 403/412/440 415/425/454 416/426/455 404/413/441
f 404/413/442 416/426/455 405/414/444 393/401/443
f 405/414/444 417/1/25 418/427/456 406/415/445
f 406/415/445 418/427/456 419/428/21 407/416/446
f 407/416/446 419/428/72 420/429/72 408/417/447
f 408/417/447 420/429/70 421/430/70 409/418/448
f 409/418/448 421/430/13 422/431/457 410/419/449
f 410/419/449 422/431/457 423/2/9 411/420/450
f 411/421/450 423/432/9 424/433/458 412/422/451
f 412/422/451 424/433/458 425/434/5 413/423/452
f 413/423/452 425/434/82 426/435/82 414/424/453
f 414/424/453 426/435/80 427/436/80 415/425/454
f 415/425/454 427/436/29 428/437/459 416/426/455
f 416/426/455 428/437/459 417/1/25 405/414/444
f 417/438/25 429/439/460 430/440/461 418/441/456
f 418/441/456 430/440/461 431/442/462 419/443/21
f 419/443/72 431/442/462 432/444/463 420/445/72
f 420/445/70 432/444/463 433/446/464 421/447/70
f 421/447/13 433/446/464 434/448/465 422/449/457
f 422/449/457 434/448/465 435/450/466 423/451/9
f 423/452/9 435/453/466 436/454/467 424/455/458
f 424/455/458 436/454/467 437/456/468 425/457/5
f 425/457/82 437/456/468 438/458/469 426/459/82
f 426/459/80 438/458/469 439/460/470 427/461/80
f 427/461/29 439/460/470 440/462/471 428/463/459
f 428/463/459 440/462/471 429/439/460 417/438/25
f 429/439/460 441/464/93 442/465/94 430/440/461
f 430/440/461 442/465/472 443/466/473 431/442/462
f 431/442/462 443/466/473 444/467/474 432/444/463
f 432/444/463 444/467/474 445/468/475 433/446/464
f 433/446/464 445/468/475 446/469/476 434/448/465
f 434/448/465 446/469/86 447/470/87 435/450/466
f 435/453/466 447/471/102 448/472/103 436/454/467
f 436/454/467 448/472/477 449/473/478 437/456/468
f 437/456/468 449/473/478 450/474/479 438/458/469
f 438/458/469 450/474/479 451/475/480 439/460/470
f 439/460/470 451/475/480 452/476/481 440/462/471
f 440/462/471 452/476/95 441/464/96 429/439/460
f 441/464/93 453/62/111 454/477/112 442/465/94
f 442/465/472 454/477/482 455/478/483 443/466/473
f 443/466/473 455/478/483 456/479/484 444/467/474
f 444/467/474 456/479/484 457/480/485 445/468/475
f 445/468/475 457/480/485 458/481/486 446/469/476
f 446/469/86 458/481/104 459/61/105 447/470/87
f 447/471/102 459/482/120 460/483/121 448/472/103
f 448/472/477 460/483/487 461/484/488 449/473/478
f 449/473/478 461/484/488 462/485/489 450/474/479
f 450/474/479 462/485/489 463/486/490 451/475/480
f 451/475/480 463/486/490 464/487/491 452/476/481
f 452/476/95 464/487/113 453/62/114 441/464/96
f 453/62/111 465/488/492 466/489/130 454/477/112
f 454/477/482 466/489/493 467/490/494 455/478/483
f 455/478/483 467/490/494 468/491/495 456/479/484
f 456/479/484 468/491/495 469/492/496 457/480/485
f 457/480/485 469/492/496 470/493/497 458/481/486
f 458/481/104 470/493/122 471/494/123 459/61/105
f 459/482/120 471/495/138 472/496/498 460/483/121
f 460/483/487 472/496/499 473/497/500 461/484/488
f 461/484/488 473/497/500 474/498/501 462/485/489
f 462/485/489 474/498/501 475/499/502 463/486/490
f 463/486/490 475/499/502 476/500/503 464/487/491
f 464/487/113 476/500/131 465/488/504 453/62/114
f 465/488/492 477/501/147 478/502/148 466/489/130
f 466/489/493 478/502/505 479/503/506 467/490/494
f 467/490/494 479/503/506 480/504/507 468/491/495
f 468/491/495 480/504/507 481/505/508 469/492/496
f 469/492/496 481/505/508 482/506/509 470/493/497
f 470/493/122 482/506/140 483/507/141 471/494/123
f 471/495/138 483/508/156 484/509/157 472/496/498
f 472/496/499 484/509/510 485/510/511 473/497/500
f 473/497/500 485/510/511 486/511/512 474/498/501
f 474/498/501 486/511/512 487/512/513 475/499/502
f 475/499/502 487/512/513 488/513/514 476/500/503
f 476/500/131 488/513/149 477/501/150 465/488/504
f 477/501/147 489/58/165 490/514/166 478/502/148
f 478/502/505 490/514/515 491/515/516 479/503/506
f 479/503/506 491/515/516 492/516/517 480/504/507
f 480/504/507 492/516/517 493/517/518 481/505/508
f 481/505/508 493/517/518 494/518/519 482/506/509
f 482/506/140 494/518/158 495/57/159 483/507/141
f 483/508/156 495/519/174 496/520/175 484/509/157
f 484/509/510 496/520/520 497/521/521 485/510/511
f 485/510/511 497/521/521 498/522/522 486/511/512
f 486/511/512 498/522/522 499/523/523 487/512/513
f 487/512/513 499/523/523 500/524/524 488/513/514
f 488/513/149 500/524/167 489/58/168 477/501/150
f 489/58/165 501/525/183 502/526/184 490/514/166
f 490/514/515 502/526/525 503/527/526 491/515/516
f 491/515/516 503/527/526 504/528/527 492/516/517
f 492/516/517 504/528/527 505/529/528 493/517/518
f 493/517/518 505/529/528 506/530/529 494/518/519
f 494/518/158 506/530/176 507/531/177 495/57/159
f 495/519/174 507/532/192 508/533/193 496/520/175
f 496/520/520 508/533/530 509/534/531 497/521/521
f 497/521/521 509/534/531 510/535/532 498/522/522
f 498/522/522 510/535/532 511/536/533 499/523/523
f 499/523/523 511/536/533 512/537/534 500/524/524
f 500/524/167 512/537/185 501/525/186 489/58/168
f 501/525/183 513/538/201 514/539/202 502/526/184
f 502/526/525 514/539/535 515/540/536 503/527/526
f 503/527/526 515/540/536 516/541/537 504/528/527
f 504/528/527 516/541/537 517/542/538 505/529/528
f 505/529/528 517/542/538 518/543/539 506/530/529
f 506/530/176 518/543/194 519/544/195 507/531/177
f 507/532/192 519/545/210 520/546/211 508/533/193
f 508/533/530 520/546/540 521/547/541 509/534/531
f 509/534/531 521/547/541 522/548/542 510/535/532
f 510/535/532 522/548/542 523/549/543 511/536/533
f 511/536/533 523/549/543 524/550/544 512/537/534
f 512/537/185 524/550/203 513/538/204 501/525/186
f 513/538/201 525/54/219 526/551/220 514/539/202
f 514/539/535 526/551/545 527/552/546 515/540/536
f 515/540/536 527/552/546 528/553/547 516/541/537
f 516/541/537 528/553/547 529/554/548 517/542/538
f 517/542/538 529/554/548 530/555/549 518/543/539
f 518/543/194 530/555/212 531/53/213 519/544/195
f 519/545/210 531/556/228 532/557/229 520/546/211
f 520/546/540 532/557/550 533/558/551 521/547/541
f 521/547/541 533/558/551 534/559/552 522/548/542
f 522/548/542 534/559/552 535/560/553 523/549/543
f 523/549/543 535/560/553 536/561/554 524/550/544
f 524/550/203 536/561/221 525/54/222 513/538/204
f 525/54/219 537/562/555 538/563/556 526/551/220
f 526/551/545 538/563/556 539/564/557 527/552/546
f 527/552/546 539/564/557 540/565/558 528/553/547
f 528/553/547 540/565/558 541/566/559 529/554/548
f 529/554/548 541/566/559 542/567/560 530/555/549
f 530/555/212 542/567/560 543/568/561 531/53/213
f 531/556/228 543/569/562 544/570/563 532/557/229
f 532/557/550 544/570/563 545/571/564 533/558/551
f 533/558/551 545/571/564 546/572/565 534/559/552
f 534/559/552 546/572/565 547/573/566 535/560/553
f 535/560/553 547/573/566 548/574/567 536/561/554
f 536/561/221 548/574/567 537/562/568 525/54/222
f 537/562/555 549/575/569 550/576/570 538/563/556
f 538/563/556 550/576/570 551/577/571 539/564/557
f 539/564/557 551/577/571 552/578/572 540/565/558
f 540/565/558 552/578/572 553/579/573 541/566/559
f 541/566/559 553/579/573 554/580/574 542/567/560
f 542/567/560 554/580/574 555/581/575 543/568/561
f 543/569/562 555/582/576 556/583/577 544/570/563
f 544/570/563 556/583/577 557/584/578 545/571/564
f 545/571/564 557/584/578 558/585/579 546/572/565
f 546/572/565 558/585/579 559/586/580 547/573/566
f 547/573/566 559/586/580 560/587/581 548/574/567
f 548/574/567 560/587/581 549/575/582 537/562/568
f 549/575/569 561/50/264 562/588/583 550/576/570
f 550/576/570 562/588/583 563/589/584 551/577/571
f 551/577/571 563/589/584 564/590/585 552/578/572
f 552/578/572 564/590/585 565/591/586 553/579/573
f 553/579/573 565/591/586 566/592/587 554/580/574
f 554/580/574 566/592/587 567/49/258 555/581/575
f 555/582/576 567/593/271 568/594/588 556/583/577
f 556/583/577 568/594/588 569/595/589 557/584/578
f 557/584/578 569/595/589 570/596/590 558/585/579
f 558/585/579 570/596/590 571/597/591 559/586/580
f 559/586/580 571/597/591 572/598/592 560/587/581
f 560/587/581 572/598/592 561/50/265 549/575/582
f 561/50/264 573/599/593 574/600/594 562/588/583
f 562/588/583 574/600/594 575/601/595 563/589/584
f 563/589/584 575/601/595 576/602/596 564/590/585
f 564/590/585 576/602/596 577/603/597 565/591/586
f 565/591/586 577/603/597 578/604/598 566/592/587
f 566/592/587 578/604/598 579/605/599 567/49/258
f 567/593/271 579/606/600 580/607/601 568/594/588
f 568/594/588 580/607/601 581/608/602 569/595/589
f 569/595/589 581/608/602 582/609/603 570/596/590
f 570/596/590 582/609/603 583/610/604 571/597/591
f 571/597/591 583/610/604 584/611/605 572/598/592
f 572/598/592 584/611/605 573/599/606 561/50/265
f 573/599/593 585/612/607 586/613/608 574/600/594
f 574/600/594 586/613/608 587/614/609 575/601/595
f 575/601/595 587/614/609 588/615/610 576/602/596
f 576/602/596 588/615/610 589/616/611 577/603/597
f 577/603/597 589/616/611 590/617/612 578/604/598
f 578/604/598 590/617/612 591/618/613 579/605/599
f 579/606/600 591/619/614 592/620/615 580/607/601
f 580/607/601 592/620/615 593/621/616 581/608/602
f 581/608/602 593/621/616 594/622/617 582/609/603
f 582/609/603 594/622/617 595/623/618 583/610/604
f 583/610/604 595/623/618 596/624/619 584/611/605
f 584/611/605 596/624/619 585/612/620 573/599/606
f 585/612/607 597/46/307 598/625/308 586/613/608
f 586/613/608 598/625/621 599/626/622 587/614/609
f 587/614/609 599/626/622 600/627/623 588/615/610
f 588/615/610 600/627/623 601/628/624 589/616/611
f 589/616/611 601/628/624 602/629/625 590/617/612
f 590/617/612 602/629/300 603/45/301 591/618/613
f 591/619/614 603/630/316 604/631/317 592/620/615
f 592/620/615 604/631/626 605/632/627 593/621/616
f 593/621/616 605/632/627 606/633/628 594/622/617
f 594/622/617 606/633/628 607/634/629 595/623/618
f 595/623/618 607/634/629 608/635/630 596/624/619
f 596/624/619 608/635/309 597/46/310 585/612/620
f 597/46/307 609/636/325 610/637/326 598/625/308
f 598/625/621 610/637/631 611/638/632 599/626/622
f 599/626/622 611/638/632 612/639/633 600/627/623
f 600/627/623 612/639/633 613/640/634 601/628/624
f 601/628/624 613/640/634 614/641/635 602/629/625
f 602/629/300 614/641/318 615/642/319 603/45/301
f 603/630/316 615/643/334 616/644/335 604/631/317
f 604/631/626 616/644/636 617/645/637 605/632/627
f 605/632/627 617/645/637 618/646/638 606/633/628
f 606/633/628 618/646/638 619/647/639 607/634/629
f 607/634/629 619/647/639 620/648/640 608/635/630
f 608/635/309 620/648/327 609/636/328 597/46/310
f 609/636/325 621/649/343 622/650/344 610/637/326
f 610/637/631 622/650/641 623/651/642 611/638/632
f 611/638/632 623/651/642 624/652/643 612/639/633
f 612/639/633 624/652/643 625/653/644 613/640/634
f 613/640/634 625/653/644 626/654/645 614/641/635
f 614/641/318 626/654/336 627/655/337 615/642/319
f 615/643/334 627/656/352 628/657/353 616/644/335
f 616/644/636 628/657/646 629/658/647 617/645/637
f 617/645/637 629/658/647 630/659/648 618/646/638
f 618/646/638 630/659/648 631/660/649 619/647/639
f 619/647/639 631/660/649 632/661/650 620/648/640
f 620/648/327 632/661/345 621/649/346 609/636/328
f 621/649/343 633/42/361 634/662/362 622/650/344
f 622/650/641 634/662/651 635/663/652 623/651/642
f 623/651/642 635/663/652 636/664/653 624/652/643
f 624/652/643 636/664/653 637/665/654 625/653/644
f 625/653/644 637/665/654 638/666/655 626/654/645
f 626/654/336 638/666/354 639/41/355 627/655/337
f 627/656/352 639/667/370 640/668/371 628/657/353
f 628/657/646 640/668/656 641/669/657 629/658/647
f 629/658/647 641/669/657 642/670/658 630/659/648
f 630/659/648 642/670/658 643/671/659 631/660/649
f 631/660/649 643/671/659 644/672/660 632/661/650
f 632/661/345 644/672/363 633/42/364 621/649/346
f 633/42/361 645/673/379 646/674/380 634/662/362
f 634/662/651 646/674/661 647/675/662 635/663/652
f 635/663/652 647/675/662 648/676/663 636/664/653
f 636/664/653 648/676/663 649/677/664 637/665/654
f 637/665/654 649/677/664 650/678/665 638/666/655
f 638/666/354 650/678/372 651/679/373 639/41/355
f 639/667/370 651/680/388 652/681/389 640/668/371
f 640/668/656 652/681/666 653/682/667 641/669/657
f 641/669/657 653/682/667 654/683/668 642/670/658
f 642/670/658 654/683/668 655/684/669 643/671/659
f 643/671/659 655/684/669 656/685/670 644/672/660
f 644/672/363 656/685/381 645/673/382 633/42/364
f 645/673/379 657/686/397 658/687/398 646/674/380
f 646/674/661 658/687/671 659/688/672 647/675/662
f 647/675/662 659/688/672 660/689/673 648/676/663
f 648/676/663 660/689/673 661/690/674 649/677/664
f 649/677/664 661/690/674 662/691/675 650/678/665
f 650/678/372 662/691/676 663/692/391 651/679/373
f 651/680/388 663/693/406 664/694/677 652/681/389
f 652/681/666 664/694/678 665/695/679 653/682/667
f 653/682/667 665/695/679 666/696/680 654/683/668
f 654/683/668 666/696/680 667/697/681 655/684/669
f 655/684/669 667/697/681 668/698/682 656/685/670
f 656/685/381 668/698/399 657/686/400 645/673/382
f 657/686/397 669/38/415 670/699/416 658/687/398
f 658/687/671 670/699/683 671/700/684 659/688/672
f 659/688/672 671/700/684 672/701/685 660/689/673
f 660/689/673 672/701/685 673/702/686 661/690/674
f 661/690/674 673/702/686 674/703/687 662/691/675
f 662/691/676 674/703/408 675/37/409 663/692/391
f 663/693/406 675/704/424 676/705/425 664/694/677
f 664/694/678 676/705/688 677/706/689 665/695/679
f 665/695/679 677/706/689 678/707/690 666/696/680
f 666/696/680 678/707/690 679/708/691 667/697/681
f 667/697/681 679/708/691 680/709/692 668/698/682
f 668/698/399 680/709/417 669/38/418 657/686/400
f 669/38/415 681/710/433 682/711/693 670/699/416
f 670/699/683 682/711/694 683/712/695 671/700/684
f 671/700/684 683/712/695 684/713/696 672/701/685
f 672/701/685 684/713/696 685/714/697 673/702/686
f 673/702/686 685/714/697 686/715/698 674/703/687
f 674/703/408 686/715/426 687/716/427 675/37/409
f 675/704/424 687/717/442 688/718/443 676/705/425
f 676/705/688 688/718/699 689/719/700 677/706/689
f 677/706/689 689/719/700 690/720/701 678/707/690
f 678/707/690 690/720/701 691/721/702 679/708/691
f 679/708/691 691/721/702 692/722/703 680/709/692
f 680/709/417 692/722/704 681/710/436 669/38/418
f 681/710/433 693/723/705 694/724/706 682/711/693
f 682/711/694 694/724/706 695/725/707 683/712/695
f 683/712/695 695/725/707 696/726/708 684/713/696
f 684/713/696 696/726/708 697/727/709 685/714/697
f 685/714/697 697/727/709 698/728/710 686/715/698
f 686/715/426 698/728/710 699/729/711 687/716/427
f 687/717/442 699/730/711 700/731/712 688/718/443
f 688/718/699 700/731/712 701/732/713 689/719/700
f 689/719/700 701/732/713 702/733/714 690/720/701
f 690/720/701 702/733/714 703/734/715 691/721/702
f 691/721/702 703/734/715 704/735/716 692/722/703
f 692/722/704 704/735/716 693/723/705 681/710/436
f 693/723/705 129/34/9 130/133/68 694/724/706
f 694/724/706 130/133/68 131/135/13 695/725/707
f 695/725/707 131/135/70 132/137/70 696/726/708
f 696/726/708 132/137/72 133/139/72 697/727/709
f 697/727/709 133/139/21 134/141/75 698/728/710
f 698/728/710 134/141/75 135/33/25 699/729/711
f 699/730/711 135/143/25 136/146/78 700/731/712
f 700/731/712 136/146/78 137/148/29 701/732/713
f 701/732/713 137/148/80 138/150/80 702/733/714
f 702/733/714 138/150/82 139/152/82 703/734/715
f 703/734/715 139/152/5 140/154/85 704/735/716
f 704/735/716 140/154/85 129/34/9 693/723/705
