# Blender 4.0.2
# www.blender.org
mtllib Lamp base obj.mtl
o Cube
v -1.000000 -0.100000 1.000000
v -0.900000 0.100000 0.900000
v -1.000000 -0.100000 -1.000000
v -0.900000 0.100000 -0.900000
v 1.000000 -0.100000 1.000000
v 0.900000 0.100000 0.900000
v 1.000000 -0.100000 -1.000000
v 0.900000 0.100000 -0.900000
v -1.000000 0.100000 1.000000
v -1.000000 0.100000 -1.000000
v 1.000000 0.100000 -1.000000
v 1.000000 0.100000 1.000000
v -0.900000 0.200000 0.900000
v -0.900000 0.200000 -0.900000
v 0.900000 0.200000 -0.900000
v 0.900000 0.200000 0.900000
v -0.810000 0.200000 0.810000
v -0.810000 0.200000 -0.810000
v 0.810000 0.200000 -0.810000
v 0.810000 0.200000 0.810000
v -0.810000 1.700000 0.810000
v -0.810000 1.700000 -0.810000
v 0.810000 1.700000 -0.810000
v 0.810000 1.700000 0.810000
v -0.810000 0.287853 -0.535768
v -0.810000 0.287853 0.535768
v -0.810000 1.612147 0.535768
v -0.810000 1.612147 -0.535768
v -0.529362 0.287853 0.810000
v 0.529362 0.287853 0.810000
v 0.529362 1.612147 0.810000
v -0.529362 1.612147 0.810000
v 0.529362 0.287853 -0.810000
v -0.529362 0.287853 -0.810000
v -0.529362 1.612147 -0.810000
v 0.529362 1.612147 -0.810000
v 0.810000 0.287853 0.535768
v 0.810000 0.287853 -0.535768
v 0.810000 1.612147 -0.535768
v 0.810000 1.612147 0.535768
v -0.810000 1.700000 0.810000
v -0.810000 1.700000 -0.810000
v 0.810000 1.700000 -0.810000
v 0.810000 1.700000 0.810000
v -0.405000 2.200000 0.405000
v -0.405000 2.200000 -0.405000
v 0.405000 2.200000 -0.405000
v 0.405000 2.200000 0.405000
v -1.012500 1.700000 1.012500
v -1.012500 1.700000 -1.012500
v 1.012500 1.700000 -1.012500
v 1.012500 1.700000 1.012500
v -1.012500 1.900000 1.012500
v -1.012500 1.900000 -1.012500
v 1.012500 1.900000 -1.012500
v 1.012500 1.900000 1.012500
v -0.265000 2.200000 0.265000
v 0.265000 2.200000 0.265000
v 0.265000 2.200000 -0.265000
v -0.265000 2.200000 -0.265000
v 0.265000 2.300000 0.265000
v -0.265000 2.300000 0.265000
v -0.265000 2.300000 -0.265000
v 0.265000 2.300000 -0.265000
v 0.397500 2.300000 0.397500
v -0.397500 2.300000 0.397500
v -0.397500 2.300000 -0.397500
v 0.397500 2.300000 -0.397500
v 0.318000 2.400000 0.318000
v -0.318000 2.400000 0.318000
v -0.318000 2.400000 -0.318000
v 0.318000 2.400000 -0.318000
v -0.610163 0.287853 0.526029
v -0.610163 0.287853 -0.526029
v -0.610163 1.612147 -0.526029
v -0.610163 1.612147 0.526029
v 0.533968 0.287853 0.610163
v -0.533968 0.287853 0.610163
v -0.533968 1.612147 0.610163
v 0.533968 1.612147 0.610163
v -0.533968 0.287853 -0.610163
v 0.533968 0.287853 -0.610163
v 0.533968 1.612147 -0.610163
v -0.533968 1.612147 -0.610163
v 0.610163 0.287853 -0.526029
v 0.610163 0.287853 0.526029
v 0.610163 1.612147 0.526029
v 0.610163 1.612147 -0.526029
v 0.199742 2.175497 0.454618
v -0.199742 2.175497 0.454618
v -0.708006 1.924503 0.962882
v 0.708006 1.924503 0.962882
v -0.454618 2.175497 0.199742
v -0.454618 2.175497 -0.199742
v -0.962882 1.924503 -0.708006
v -0.962882 1.924503 0.708006
v -0.199742 2.175497 -0.454618
v 0.199742 2.175497 -0.454618
v 0.708006 1.924503 -0.962882
v -0.708006 1.924503 -0.962882
v 0.454618 2.175497 -0.199742
v 0.454618 2.175497 0.199742
v 0.962882 1.924503 0.708006
v 0.962882 1.924503 -0.708006
v 0.000000 2.395456 -0.181815
v 0.035470 2.395456 -0.178321
v 0.069577 2.395456 -0.167975
v 0.101011 2.395456 -0.151173
v 0.128562 2.395456 -0.128562
v 0.151173 2.395456 -0.101011
v 0.167975 2.395456 -0.069577
v 0.178321 2.395456 -0.035470
v 0.181815 2.395456 0.000000
v 0.178321 2.395456 0.035470
v 0.167975 2.395456 0.069577
v 0.151173 2.395456 0.101011
v 0.128562 2.395456 0.128562
v 0.101011 2.395456 0.151173
v 0.069577 2.395456 0.167975
v 0.035470 2.395456 0.178321
v 0.000000 2.395456 0.181815
v -0.035470 2.395456 0.178321
v -0.069577 2.395456 0.167975
v -0.101011 2.395456 0.151173
v -0.128562 2.395456 0.128562
v -0.151173 2.395456 0.101011
v -0.167975 2.395456 0.069577
v -0.178321 2.395456 0.035470
v -0.181815 2.395456 0.000000
v -0.178321 2.395456 -0.035470
v -0.167975 2.395456 -0.069577
v -0.151173 2.395456 -0.101011
v -0.128562 2.395456 -0.128562
v -0.101011 2.395456 -0.151173
v -0.069577 2.395456 -0.167975
v -0.035470 2.395456 -0.178321
vn -1.0000 -0.0000 -0.0000
vn -0.0000 -0.0000 -1.0000
vn 1.0000 -0.0000 -0.0000
vn -0.0000 -0.0000 1.0000
vn -0.0000 -1.0000 -0.0000
vn -0.0000 1.0000 -0.0000
vn 0.9997 -0.0000 0.0230
vn 0.0487 -0.0000 -0.9988
vn -0.9997 -0.0000 -0.0230
vn -0.0000 0.8966 0.4428
vn -0.4428 0.8966 -0.0000
vn -0.7304 0.6830 -0.0000
vn -0.0000 0.6830 0.7304
vn -0.0000 0.6830 -0.7304
vn 0.7304 0.6830 -0.0000
vn -0.0000 0.8966 -0.4428
vn 0.4428 0.8966 -0.0000
vn 0.7828 0.6223 -0.0000
vn -0.0000 0.6223 0.7828
vn -0.0000 0.6223 -0.7828
vn -0.7828 0.6223 -0.0000
vn 0.0487 -0.0000 0.9988
vn -0.0487 -0.0000 0.9988
vn 0.9997 -0.0000 -0.0230
vn -0.0487 -0.0000 -0.9988
vn -0.9997 -0.0000 0.0230
vt 0.375000 0.000000
vt 0.625000 0.000000
vt 0.625000 0.250000
vt 0.375000 0.250000
vt 0.625000 0.500000
vt 0.375000 0.500000
vt 0.625000 0.750000
vt 0.375000 0.750000
vt 0.625000 1.000000
vt 0.375000 1.000000
vt 0.125000 0.500000
vt 0.125000 0.750000
vt 0.862500 0.512500
vt 0.862500 0.737500
vt 0.875000 0.500000
vt 0.875000 0.750000
vt 0.637500 0.512500
vt 0.637500 0.737500
vt 0.823522 0.512500
vt 0.823522 0.512500
vt 0.862500 0.698522
vt 0.862500 0.551478
vt 0.637500 0.698523
vt 0.637500 0.698522
vt 0.676477 0.737500
vt 0.676478 0.737500
vt 0.862500 0.698522
vt 0.823523 0.737500
vt 0.823523 0.737500
vt 0.676478 0.512500
vt 0.637500 0.551477
vt 0.637500 0.551477
vt 0.698307 0.737500
vt 0.801693 0.737500
vt 0.831411 0.737500
vt 0.668589 0.737500
vt 0.862500 0.676693
vt 0.862500 0.573307
vt 0.862500 0.543589
vt 0.862500 0.706411
vt 0.801693 0.512500
vt 0.698307 0.512500
vt 0.668589 0.512500
vt 0.831411 0.512500
vt 0.637500 0.573307
vt 0.637500 0.676693
vt 0.637500 0.706411
vt 0.637500 0.543589
vt 0.000000 0.000000
vt 0.750000 0.490000
vt 0.796822 0.485388
vt 0.841844 0.471731
vt 0.883337 0.449553
vt 0.919706 0.419706
vt 0.949553 0.383337
vt 0.971731 0.341844
vt 0.985388 0.296822
vt 0.990000 0.250000
vt 0.985388 0.203178
vt 0.971731 0.158156
vt 0.949553 0.116663
vt 0.919706 0.080294
vt 0.883337 0.050447
vt 0.841844 0.028269
vt 0.796822 0.014612
vt 0.750000 0.010000
vt 0.703178 0.014612
vt 0.658156 0.028269
vt 0.616663 0.050447
vt 0.580294 0.080294
vt 0.550447 0.116663
vt 0.528269 0.158156
vt 0.514612 0.203178
vt 0.510000 0.250000
vt 0.514612 0.296822
vt 0.528269 0.341844
vt 0.550447 0.383337
vt 0.580294 0.419706
vt 0.616663 0.449553
vt 0.658156 0.471731
vt 0.703178 0.485388
s 1
f 1/1/1 9/2/1 10/3/1 3/4/1
f 3/4/2 10/3/2 11/5/2 7/6/2
f 7/6/3 11/5/3 12/7/3 5/8/3
f 5/8/4 12/7/4 9/9/4 1/10/4
f 3/11/5 7/6/5 5/8/5 1/12/5
f 4/13/1 2/14/1 13/14/1 14/13/1
f 2/14/6 4/13/6 10/15/6 9/16/6
f 4/13/6 8/17/6 11/5/6 10/15/6
f 8/17/6 6/18/6 12/7/6 11/5/6
f 6/18/6 2/14/6 9/16/6 12/7/6
f 14/13/6 13/14/6 17/14/6 18/13/6
f 2/14/4 6/18/4 16/18/4 13/14/4
f 8/17/2 4/13/2 14/13/2 15/17/2
f 6/18/3 8/17/3 15/17/3 16/18/3
f 34/19/7 35/20/7 84/20/7 81/19/7
f 13/14/6 16/18/6 20/18/6 17/14/6
f 15/17/6 14/13/6 18/13/6 19/17/6
f 16/18/6 15/17/6 19/17/6 20/18/6
f 21/14/6 24/18/6 44/18/6 41/14/6
f 27/21/5 28/22/5 75/22/5 76/21/5
f 40/23/8 37/24/8 86/24/8 87/23/8
f 30/25/9 31/26/9 80/26/9 77/25/9
f 18/13/1 17/14/1 26/27/1 25/22/1
f 17/14/1 21/14/1 27/21/1 26/27/1
f 21/14/1 22/13/1 28/22/1 27/21/1
f 22/13/1 18/13/1 25/22/1 28/22/1
f 17/14/4 20/18/4 30/25/4 29/28/4
f 20/18/4 24/18/4 31/26/4 30/25/4
f 24/18/4 21/14/4 32/29/4 31/26/4
f 21/14/4 17/14/4 29/28/4 32/29/4
f 19/17/2 18/13/2 34/19/2 33/30/2
f 18/13/2 22/13/2 35/20/2 34/19/2
f 22/13/2 23/17/2 36/30/2 35/20/2
f 23/17/2 19/17/2 33/30/2 36/30/2
f 20/18/3 19/17/3 38/31/3 37/24/3
f 19/17/3 23/17/3 39/32/3 38/31/3
f 23/17/3 24/18/3 40/23/3 39/32/3
f 24/18/3 20/18/3 37/24/3 40/23/3
f 22/13/6 21/14/6 41/14/6 42/13/6
f 89/33/10 90/34/10 91/35/10 92/36/10
f 42/13/5 41/14/5 49/14/5 50/13/5
f 44/18/5 43/17/5 51/17/5 52/18/5
f 93/37/11 94/38/11 95/39/11 96/40/11
f 23/17/6 22/13/6 42/13/6 43/17/6
f 24/18/6 23/17/6 43/17/6 44/18/6
f 50/13/1 49/14/1 53/14/12 54/13/12
f 49/14/4 52/18/4 56/18/13 53/14/13
f 51/17/2 50/13/2 54/13/14 55/17/14
f 52/18/3 51/17/3 55/17/15 56/18/15
f 97/41/16 98/42/16 99/43/16 100/44/16
f 41/14/5 44/18/5 52/18/5 49/14/5
f 43/17/5 42/13/5 50/13/5 51/17/5
f 101/45/17 102/46/17 103/47/17 104/48/17
f 57/49/4 58/49/4 61/49/4 62/49/4
f 45/49/6 48/49/6 58/49/6 57/49/6
f 48/49/6 47/49/6 59/49/6 58/49/6
f 47/49/6 46/49/6 60/49/6 59/49/6
f 46/49/6 45/49/6 57/49/6 60/49/6
f 61/49/5 64/49/5 68/49/5 65/49/5
f 59/49/2 60/49/2 63/49/2 64/49/2
f 60/49/1 57/49/1 62/49/1 63/49/1
f 58/49/3 59/49/3 64/49/3 61/49/3
f 65/49/18 68/49/18 72/49/18 69/49/18
f 62/49/5 61/49/5 65/49/5 66/49/5
f 64/49/5 63/49/5 67/49/5 68/49/5
f 63/49/5 62/49/5 66/49/5 67/49/5
f 70/49/6 69/49/6 72/49/6 71/49/6
f 66/49/19 65/49/19 69/49/19 70/49/19
f 68/49/20 67/49/20 71/49/20 72/49/20
f 67/49/21 66/49/21 70/49/21 71/49/21
f 31/26/5 32/29/5 79/29/5 80/26/5
f 38/31/22 39/32/22 88/32/22 85/31/22
f 35/20/5 36/30/5 83/30/5 84/20/5
f 39/32/5 40/23/5 87/23/5 88/32/5
f 25/22/6 26/27/6 73/27/6 74/22/6
f 29/28/6 30/25/6 77/25/6 78/28/6
f 28/22/23 25/22/23 74/22/23 75/22/23
f 33/30/6 34/19/6 81/19/6 82/30/6
f 32/29/24 29/28/24 78/28/24 79/29/24
f 37/24/6 38/31/6 85/31/6 86/24/6
f 26/27/25 27/21/25 76/21/25 73/27/25
f 36/30/26 33/30/26 82/30/26 83/30/26
f 48/18/10 45/14/10 90/34/10 89/33/10
f 45/14/10 53/14/13 91/35/10 90/34/10
f 53/14/13 56/18/13 92/36/10 91/35/10
f 56/18/13 48/18/10 89/33/10 92/36/10
f 45/14/11 46/13/11 94/38/11 93/37/11
f 46/13/11 54/13/12 95/39/11 94/38/11
f 54/13/12 53/14/12 96/40/11 95/39/11
f 53/14/12 45/14/11 93/37/11 96/40/11
f 46/13/16 47/17/16 98/42/16 97/41/16
f 47/17/16 55/17/14 99/43/16 98/42/16
f 55/17/14 54/13/14 100/44/16 99/43/16
f 54/13/14 46/13/16 97/41/16 100/44/16
f 47/17/17 48/18/17 102/46/17 101/45/17
f 48/18/17 56/18/15 103/47/17 102/46/17
f 56/18/15 55/17/15 104/48/17 103/47/17
f 55/17/15 47/17/17 101/45/17 104/48/17
f 105/50/5 106/51/5 107/52/5 108/53/5 109/54/5 110/55/5 111/56/5 112/57/5 113/58/5 114/59/5 115/60/5 116/61/5 117/62/5 118/63/5 119/64/5 120/65/5 121/66/5 122/67/5 123/68/5 124/69/5 125/70/5 126/71/5 127/72/5 128/73/5 129/74/5 130/75/5 131/76/5 132/77/5 133/78/5 134/79/5 135/80/5 136/81/5
